<?xml version="1.0" encoding="UTF-8"?>
<svg width="50px" height="33px" viewBox="0 0 50 33" version="1.1" xmlns="http://www.w3.org/2000/svg" xmlns:xlink="http://www.w3.org/1999/xlink">
    <!-- Generator: sketchtool 53 (72520) - https://sketchapp.com -->
    <title>90952EF2-B093-4336-8F62-A9D2B23FC86C</title>
    <desc>Created with sketchtool.</desc>
    <g id="Desktop-Final" stroke="none" stroke-width="1" fill="none" fill-rule="evenodd">
        <g id="Buyers-Trades" transform="translate(-495.000000, -353.000000)" fill="#F2F0F0" fill-rule="nonzero">
            <g id="Group-28" transform="translate(281.000000, 212.000000)">
                <g id="Group-26" transform="translate(80.000000, 131.000000)">
                    <g id="BankTransfer" transform="translate(134.000000, 10.000000)">
                        <polygon id="Path" points="20.8966862 20.0584795 20.877193 20.0584795 19.9707602 22.8654971 21.7738791 22.8654971"></polygon>
                        <path d="M14.3664717,19.6881092 L12.6705653,19.6881092 L12.6705653,21.2378168 L14.4054581,21.2378168 C14.9902534,21.2378168 15.4483431,21.0038986 15.4483431,20.4483431 C15.4483431,19.8635478 15.0389864,19.6881092 14.3664717,19.6881092 Z" id="Path"></path>
                        <path d="M14.5516569,22.4269006 L12.6705653,22.4269006 L12.6705653,24.3177388 L14.4834308,24.3177388 C15.2046784,24.3177388 15.6140351,23.9961014 15.6140351,23.2846004 C15.6140351,22.6608187 15.0877193,22.4269006 14.5516569,22.4269006 Z" id="Path"></path>
                        <path d="M48.6354776,0.0779727096 L1.30604288,0.0779727096 C0.59454191,0.0779727096 0.0194931774,0.653021442 0.0194931774,1.36452242 L0.0194931774,31.1306043 C0.0194931774,31.8421053 0.59454191,32.417154 1.30604288,32.417154 L48.6354776,32.417154 C49.3469786,32.417154 49.9220273,31.8421053 49.9220273,31.1306043 L49.9220273,1.36452242 C49.9220273,0.653021442 49.3469786,0.0779727096 48.6354776,0.0779727096 Z M18.791423,10.9161793 C18.8206628,10.6335283 18.8596491,10.331384 18.9668616,10.0194932 C19.0545809,9.70760234 19.1325536,9.35672515 19.3079922,9.03508772 C19.3859649,8.86939571 19.4639376,8.69395712 19.5419103,8.52826511 C19.6296296,8.3625731 19.7465887,8.20662768 19.8440546,8.04093567 C20.0389864,7.69980507 20.3021442,7.40740741 20.5750487,7.10526316 C20.82846,6.79337232 21.1500975,6.55945419 21.4424951,6.27680312 C21.7641326,6.05263158 22.0662768,5.78947368 22.3879142,5.61403509 C22.7095517,5.40935673 23.0214425,5.23391813 23.3333333,5.0877193 C23.6354776,4.92202729 23.9376218,4.81481481 24.2202729,4.68810916 C24.6491228,4.52241715 25.0292398,4.3957115 25.3411306,4.29824561 C25.214425,3.97660819 25.0974659,3.64522417 25.0194932,3.28460039 C24.9317739,2.91423002 24.8635478,2.54385965 24.8538012,2.11500975 C25.2631579,2.23196881 25.6140351,2.39766082 25.9454191,2.57309942 C26.2768031,2.74853801 26.5789474,2.94346979 26.871345,3.15789474 C27.4463938,3.57699805 27.9337232,4.07407407 28.3820663,4.59064327 C28.7231969,4.99025341 28.7524366,5.54580897 28.4990253,5.96491228 L28.4502924,6.05263158 C28.0409357,6.73489279 27.5536062,7.36842105 26.9688109,7.9337232 C26.6764133,8.21637427 26.3547758,8.47953216 26.0038986,8.73294347 C25.8187135,8.84990253 25.6335283,8.9668616 25.4483431,9.08382066 C25.2534113,9.19103314 25.0389864,9.28849903 24.8050682,9.37621832 C24.785575,9.13255361 24.7953216,8.89863548 24.8148148,8.67446394 C24.834308,8.4502924 24.8635478,8.23586745 24.9025341,8.0214425 C24.9805068,7.60233918 25.0877193,7.19298246 25.2241715,6.8128655 C25.2339181,6.77387914 25.2534113,6.73489279 25.2729045,6.69590643 C25.1364522,6.71539961 25,6.73489279 24.8440546,6.75438596 C24.6003899,6.80311891 24.3274854,6.84210526 24.0545809,6.92007797 C23.7719298,6.98830409 23.4892788,7.07602339 23.1968811,7.18323587 C22.8947368,7.27095517 22.6218324,7.42690058 22.3099415,7.55360624 C22.037037,7.71929825 21.7251462,7.86549708 21.4619883,8.07017544 C21.1890838,8.26510721 20.9161793,8.46978558 20.6920078,8.71345029 C20.5750487,8.83040936 20.4483431,8.93762183 20.3411306,9.06432749 C20.2436647,9.19103314 20.1461988,9.32748538 20.0487329,9.45419103 C19.834308,9.69785575 19.7076023,9.98050682 19.5614035,10.2534113 C19.4054581,10.5165692 19.3079922,10.7797271 19.2202729,11.0331384 C19.1423002,11.2865497 19.0350877,11.5204678 18.9961014,11.7348928 C18.957115,11.9493177 18.9181287,12.1442495 18.8888889,12.3001949 C18.8304094,12.6120858 18.791423,12.797271 18.791423,12.797271 C18.791423,12.797271 18.7816764,12.6120858 18.7719298,12.2904483 C18.7621832,12.1247563 18.7621832,11.9298246 18.7524366,11.705653 C18.7134503,11.4522417 18.7719298,11.1988304 18.791423,10.9161793 Z M20.0487329,18.460039 L21.754386,18.460039 L24.2495127,25.5360624 L22.6413255,25.5360624 L22.1832359,24.0740741 L19.5711501,24.0740741 L19.0740741,25.5360624 L17.5146199,25.5360624 L20.0487329,18.460039 Z M14.2007797,27.3099415 L13.0994152,27.3099415 L13.0994152,30.2923977 L12.3391813,30.2923977 L12.3391813,27.3099415 L11.2475634,27.3099415 L11.2475634,26.6666667 L14.2007797,26.6666667 L14.2007797,27.3099415 Z M11.2475634,25.545809 L11.2475634,18.4697856 L14.6881092,18.4697856 C16.4230019,18.4697856 16.871345,19.5516569 16.871345,20.2826511 C16.871345,21.2962963 16.2962963,21.588694 16.0038986,21.7348928 C16.871345,22.0565302 17.0955166,22.748538 17.0955166,23.4502924 C17.0955166,24.005848 16.8615984,24.5419103 16.4814815,24.9122807 C16.0818713,25.3118908 15.6920078,25.5555556 14.2397661,25.5555556 L11.2475634,25.5555556 L11.2475634,25.545809 Z M16.8518519,30.2923977 C16.8031189,30.1267057 16.7738791,29.9317739 16.7738791,29.5614035 C16.7738791,29.0643275 16.7446394,28.8791423 16.1793372,28.8791423 L15.3996101,28.8791423 L15.3996101,30.2923977 L14.6588694,30.2923977 L14.6588694,26.6666667 L16.4912281,26.6666667 C17.4561404,26.6666667 17.6315789,27.3781676 17.6315789,27.6900585 C17.6315789,28.0896686 17.4269006,28.4307992 17.0662768,28.5575049 C17.3684211,28.6842105 17.5243665,28.8011696 17.5243665,29.4736842 C17.5243665,30 17.5243665,30.1364522 17.6803119,30.1949318 L17.6803119,30.2923977 L16.8518519,30.2923977 L16.8518519,30.2923977 Z M20.5360624,30.2923977 L20.3021442,29.5419103 L18.9668616,29.5419103 L18.7134503,30.2923977 L17.91423,30.2923977 L19.2105263,26.6666667 L20.0877193,26.6666667 L21.3645224,30.2923977 L20.5360624,30.2923977 Z M24.7758285,30.2923977 L24.0155945,30.2923977 L22.5341131,27.7095517 L22.5243665,27.7095517 L22.5243665,30.2923977 L21.8226121,30.2923977 L21.8226121,26.6666667 L22.6218324,26.6666667 L24.0643275,29.1910331 L24.0740741,29.1910331 L24.0740741,26.6666667 L24.785575,26.6666667 L24.785575,30.2923977 L24.7758285,30.2923977 Z M23.8888889,15.2729045 C24.0350877,15.5945419 24.1520468,15.9259259 24.2495127,16.2768031 C24.3469786,16.6374269 24.4346979,17.0175439 24.454191,17.4366472 C24.0350877,17.3294347 23.6939571,17.1832359 23.3528265,17.0175439 C23.0116959,16.8518519 22.6998051,16.6569201 22.417154,16.4619883 C21.8323587,16.0526316 21.3255361,15.5847953 20.8674464,15.0682261 C20.5165692,14.6783626 20.4678363,14.1325536 20.711501,13.6939571 L20.7602339,13.6062378 C21.1500975,12.91423 21.6081871,12.2612086 22.1832359,11.6764133 C22.4658869,11.3840156 22.7777778,11.1111111 23.1189084,10.8479532 C23.294347,10.7212476 23.4795322,10.6042885 23.6647173,10.4873294 C23.8596491,10.3703704 24.0643275,10.2631579 24.2982456,10.1754386 C24.3177388,10.4191033 24.3274854,10.6530214 24.3079922,10.877193 C24.288499,11.1013645 24.2690058,11.3157895 24.2397661,11.5302144 C24.17154,11.9590643 24.0838207,12.3586745 23.9473684,12.748538 C23.9376218,12.7875244 23.9181287,12.8265107 23.9083821,12.8752437 C24.0448343,12.8557505 24.1812865,12.8362573 24.337232,12.8070175 C24.5711501,12.748538 24.8440546,12.7095517 25.1169591,12.6218324 C25.3996101,12.5536062 25.6822612,12.4561404 25.9649123,12.3391813 C26.2670565,12.2417154 26.539961,12.0760234 26.8421053,11.9395712 C27.1052632,11.7641326 27.4269006,11.6179337 27.6705653,11.4035088 C27.9337232,11.1988304 28.2066277,10.994152 28.4210526,10.7407407 C28.5380117,10.6140351 28.6647173,10.5068226 28.7621832,10.380117 C28.8596491,10.2436647 28.9473684,10.1169591 29.0448343,9.98050682 C29.2495127,9.72709552 29.3762183,9.43469786 29.5126706,9.17153996 C29.668616,8.90838207 29.7563353,8.63547758 29.8245614,8.38206628 C29.8927875,8.12865497 30,7.89473684 30.0292398,7.68031189 C30.0682261,7.46588694 30.0974659,7.27095517 30.1169591,7.11500975 C30.165692,6.79337232 30.1949318,6.61793372 30.1949318,6.61793372 C30.1949318,6.61793372 30.2046784,6.80311891 30.2241715,7.11500975 C30.2339181,7.28070175 30.2436647,7.47563353 30.2631579,7.69980507 C30.2826511,7.92397661 30.2339181,8.17738791 30.214425,8.46003899 C30.1949318,8.74269006 30.165692,9.0545809 30.0682261,9.36647173 C29.9902534,9.68810916 29.9220273,10.0292398 29.7563353,10.3606238 C29.6881092,10.5263158 29.6101365,10.7017544 29.5419103,10.877193 C29.4639376,11.0526316 29.3469786,11.208577 29.2495127,11.374269 C29.0545809,11.7153996 28.8109162,12.0272904 28.5477583,12.3294347 C28.3040936,12.6510721 27.9922027,12.8947368 27.7095517,13.1773879 C27.3976608,13.411306 27.1052632,13.6842105 26.7836257,13.8693957 C26.4717349,14.0838207 26.1598441,14.2690058 25.8576998,14.4249513 C25.5555556,14.6003899 25.2534113,14.7173489 24.9805068,14.8538012 C24.5711501,15.0389864 24.2007797,15.1754386 23.8888889,15.2729045 Z M25.1267057,18.460039 L26.6861598,18.460039 L29.4931774,23.3918129 L29.5126706,23.3918129 L29.5126706,18.460039 L30.8966862,18.460039 L30.8966862,25.5360624 L29.4152047,25.5360624 L26.5204678,20.4873294 L26.5009747,20.4873294 L26.5009747,25.5360624 L25.1169591,25.5360624 L25.1169591,18.460039 L25.1267057,18.460039 Z M26.8615984,30.3898635 C25.5360624,30.3898635 25.3118908,29.6296296 25.3118908,29.1812865 L26.0331384,29.1812865 C26.042885,29.3859649 26.1403509,29.7660819 26.8031189,29.7660819 C27.1637427,29.7660819 27.5633528,29.6783626 27.5633528,29.2982456 C27.5633528,29.0155945 27.2904483,28.9376218 26.9103314,28.8499025 L26.5204678,28.7621832 C25.9356725,28.625731 25.3703704,28.4990253 25.3703704,27.6998051 C25.3703704,27.3001949 25.5847953,26.5789474 26.7641326,26.5789474 C27.8752437,26.5789474 28.1676413,27.3099415 28.1773879,27.748538 L27.4561404,27.748538 C27.4366472,27.5925926 27.3781676,27.202729 26.7153996,27.202729 C26.4327485,27.202729 26.0818713,27.3099415 26.0818713,27.6413255 C26.0818713,27.9239766 26.3157895,27.9824561 26.4717349,28.0214425 L27.3489279,28.2358674 C27.8460039,28.3528265 28.3040936,28.5575049 28.3040936,29.2105263 C28.294347,30.2923977 27.1832359,30.3898635 26.8615984,30.3898635 Z M31.4522417,27.3099415 L29.6296296,27.3099415 L29.6296296,28.128655 L31.2280702,28.128655 L31.2280702,28.7719298 L29.6296296,28.7719298 L29.6296296,30.2923977 L28.8693957,30.2923977 L28.8693957,26.6666667 L31.4522417,26.6666667 L31.4522417,27.3099415 Z M34.7173489,30.2923977 L31.9688109,30.2923977 L31.9688109,26.6666667 L34.6393762,26.6666667 L34.6393762,27.3099415 L32.7192982,27.3099415 L32.7192982,28.0701754 L34.4834308,28.0701754 L34.4834308,28.7134503 L32.7192982,28.7134503 L32.7192982,29.6491228 L34.7270955,29.6491228 L34.7270955,30.2923977 L34.7173489,30.2923977 Z M38.3723197,30.2923977 L37.5341131,30.2923977 C37.4853801,30.1267057 37.4561404,29.9317739 37.4561404,29.5614035 C37.4561404,29.0643275 37.4269006,28.8791423 36.8615984,28.8791423 L36.0818713,28.8791423 L36.0818713,30.2923977 L35.3411306,30.2923977 L35.3411306,26.6666667 L37.1734893,26.6666667 C38.1384016,26.6666667 38.3138402,27.3781676 38.3138402,27.6900585 C38.3138402,28.0896686 38.1091618,28.4307992 37.748538,28.5575049 C38.0409357,28.6842105 38.2066277,28.8011696 38.2066277,29.4736842 C38.2066277,30 38.2066277,30.1364522 38.3625731,30.1949318 L38.3723197,30.2923977 L38.3723197,30.2923977 Z M38.6939571,25.545809 L36.7933723,25.545809 L34.6003899,22.4366472 L33.9083821,23.1481481 L33.9083821,25.545809 L32.4269006,25.545809 L32.4269006,18.4697856 L33.9083821,18.4697856 L33.9083821,21.3450292 L36.6081871,18.4697856 L38.5185185,18.4697856 L35.6335283,21.3645224 L38.6939571,25.545809 L38.6939571,25.545809 Z" id="Shape"></path>
                        <path d="M37.0272904,27.2904483 L36.0818713,27.2904483 L36.0818713,28.2651072 L36.9688109,28.2651072 C37.3586745,28.2651072 37.5536062,28.128655 37.5536062,27.7680312 C37.5536062,27.5730994 37.4658869,27.2904483 37.0272904,27.2904483 Z" id="Path"></path>
                        <polygon id="Path" points="19.6491228 27.4853801 19.6393762 27.4853801 19.17154 28.9181287 20.0974659 28.9181287"></polygon>
                        <path d="M16.3352827,27.2904483 L15.3898635,27.2904483 L15.3898635,28.2651072 L16.2768031,28.2651072 C16.6764133,28.2651072 16.8615984,28.128655 16.8615984,27.7680312 C16.871345,27.5730994 16.7836257,27.2904483 16.3352827,27.2904483 Z" id="Path"></path>
                    </g>
                </g>
            </g>
        </g>
    </g>
</svg>