<?xml version="1.0" encoding="UTF-8"?>
<svg width="118px" height="35px" viewBox="0 0 118 35" version="1.1" xmlns="http://www.w3.org/2000/svg" xmlns:xlink="http://www.w3.org/1999/xlink">
    <!-- Generator: sketchtool 53 (72520) - https://sketchapp.com -->
    <title>89B2D28D-6A17-4359-B6DB-B4D1CA502EC7</title>
    <desc>Created with sketchtool.</desc>
    <defs>
        <polygon id="path-1" points="0 35 118 35 118 0 0 0"></polygon>
    </defs>
    <g id="Desktop-Final" stroke="none" stroke-width="1" fill="none" fill-rule="evenodd">
        <g id="Home" transform="translate(-182.000000, -2223.000000)">
            <g id="Group-30" transform="translate(0.000000, 2170.000000)">
                <g id="Group-20">
                    <g id="Group-12">
                        <g id="Group-34" transform="translate(182.000000, 53.000000)">
                            <path d="M11.9876615,12.024684 C12.3168104,12.024684 12.5649612,12.1056649 12.7314693,12.2674101 C12.8979773,12.4291553 13.4836561,13.1218232 14.4876462,14.3451972 C15.5081796,13.1010366 16.1018078,12.3990581 16.2685307,12.2392616 C16.4350388,12.0796817 16.6829747,12 17.0123385,12 C17.3333231,12 17.5801848,12.0829296 17.7531383,12.2487888 C17.9177128,12.40642 18,12.6426503 18,12.9579127 L18,13.0014345 C18,13.354156 17.8251128,13.6837091 17.4753384,13.990527 L15.7962923,15.9875497 L17.481569,17.9657347 C17.8272613,18.2935556 18,18.608818 18,18.9115219 C18,18.9323084 17.9980664,18.9550437 17.9937694,18.9799442 L17.9937694,19.0607086 C17.9937694,19.3551845 17.9136306,19.5792893 17.7531383,19.7325899 C17.5720205,19.9027797 17.3210767,19.983544 16.9998772,19.975316 C16.6625641,19.97943 16.4083975,19.893469 16.2375925,19.717 C16.0667874,19.5407476 15.4918511,18.8534928 14.5123538,17.6548028 C13.5124459,18.8740628 12.9278414,19.5699786 12.7591848,19.7421171 C12.5905282,19.9142556 12.3374359,20 12.0001228,20 L11.9752003,20 C11.6666769,20 11.4260459,19.9192357 11.2530923,19.7574905 C11.088303,19.6041898 11.0062306,19.380085 11.0062306,19.0856091 L11.0062306,19.0048448 C11.0019336,18.9799442 11,18.957209 11,18.9364224 C11,18.633502 11.1727387,18.3204049 11.518431,17.997131 L13.2778306,16.0124503 L11.5248765,14.0154275 C11.1748872,13.7086096 11,13.37884 11,13.026335 L11,12.9828132 C11,12.6677673 11.0822872,12.431104 11.2468617,12.2734728 C11.4196004,12.1076136 11.6666769,12.024684 11.9876615,12.024684" id="Fill-1" fill="#E6B021"></path>
                            <path d="M21.9876615,12.024684 C22.3168104,12.024684 22.5649612,12.1056649 22.7316841,12.2674101 C22.8981922,12.4291553 23.4836561,13.1218232 24.487861,14.3451972 C25.5083945,13.1010366 26.1018078,12.3990581 26.2685307,12.2392616 C26.4352537,12.0796817 26.6829747,12 27.0125533,12 C27.333538,12 27.5801848,12.0829296 27.7531383,12.2487888 C27.9177128,12.40642 28,12.6426503 28,12.9579127 L28,13.0014345 C28,13.354156 27.8251128,13.6837091 27.4753384,13.990527 L25.7965072,15.9875497 L27.481569,17.9657347 C27.8272613,18.2935556 28,18.608818 28,18.9115219 C28,18.9323084 27.9980664,18.9550437 27.9939842,18.9799442 L27.9939842,19.0607086 C27.9939842,19.3551845 27.9136306,19.5792893 27.7531383,19.7325899 C27.5720205,19.9027797 27.3210767,19.983544 27.0000921,19.975316 C26.6625641,19.97943 26.4083975,19.893469 26.2378073,19.717 C26.0670022,19.5407476 25.4918511,18.8534928 24.5123538,17.6548028 C23.5124459,18.8740628 22.9280562,19.5699786 22.7593997,19.7421171 C22.5905282,19.9142556 22.3374359,20 22.0001228,20 L21.9752003,20 C21.6668917,20 21.4260459,19.9192357 21.2530923,19.7574905 C21.0885178,19.6041898 21.0062306,19.380085 21.0062306,19.0856091 L21.0062306,19.0048448 C21.0021485,18.9799442 21,18.957209 21,18.9364224 C21,18.633502 21.1729536,18.3204049 21.518431,17.997131 L23.2778306,16.0124503 L21.5248765,14.0154275 C21.1751021,13.7086096 21,13.37884 21,13.026335 L21,12.9828132 C21,12.6677673 21.0822872,12.431104 21.2470765,12.2734728 C21.4198152,12.1076136 21.6668917,12.024684 21.9876615,12.024684" id="Fill-3" fill="#E6B021"></path>
                            <path d="M17.5,32.0659863 C9.46841457,32.0659863 2.93421902,25.5317907 2.93421902,17.5 C2.93421902,9.46841457 9.46841457,2.93421902 17.5,2.93421902 C25.5317907,2.93421902 32.065781,9.46841457 32.065781,17.5 C32.065781,25.5317907 25.5317907,32.0659863 17.5,32.0659863 M17.5,0 C7.8503138,0 0,7.8503138 0,17.5 C0,27.1496862 7.8503138,35 17.5,35 C27.1496862,35 35,27.1496862 35,17.5 C35,7.8503138 27.1496862,0 17.5,0" id="Fill-5" fill="#104E8D"></path>
                            <path d="M15.999605,31 C10.6487821,28.9738039 6.82284398,23.6872466 6.82284398,17.5 C6.82284398,11.3127534 10.6489796,6.02579061 16,4 C11.3386438,4.29049914 7.32330481,7.07689882 5.2124424,11.0731372 C4.43331139,13.0614245 4,15.2293225 4,17.5 C4,19.771083 4.43331139,21.938981 5.2124424,23.9270655 C7.32330481,27.9231012 11.3384463,30.7092981 15.999605,31" id="Fill-7" fill="#104E8D"></path>
                            <path d="M23.0006202,0 C28.1443928,1.71247202 32.2874419,5.61930011 34.3095607,10.6039236 C35.4159173,12.6599211 36.0453747,15.0078944 36.0453747,17.5 C36.0453747,19.9921056 35.416124,22.3398727 34.3097674,24.395664 C32.2876486,29.3806999 28.1443928,33.2877342 23,35 C31.9589664,34.1803641 39,26.6465182 39,17.5 C39,8.35368799 31.9593798,0.820048309 23.0006202,0" id="Fill-9" fill="#104E8D"></path>
                            <path d="M50.8649548,14.5822661 C50.4604533,14.7694841 49.5018228,15 48.2885296,15 C44.7978549,15 43,12.8962882 43,10.1296906 C43,6.82989796 45.4568077,5 48.5129709,5 C49.6966767,5 50.5954985,5.23051592 51,5.41773387 L50.5204734,7.16123918 C50.0709568,6.97402122 49.4267977,6.80103265 48.603001,6.80103265 C46.8051461,6.80103265 45.396999,7.8529902 45.396999,10.0144327 C45.396999,11.9453592 46.5954985,13.170102 48.6177947,13.170102 C49.3219739,13.170102 50.0709568,13.0404114 50.5352671,12.8529902 L50.8649548,14.5822661 Z" id="Fill-11" fill="#E6B021"></path>
                            <path d="M54.0764668,9.47715609 L54.9015826,9.47715609 C55.9468973,9.47715609 56.5655885,8.91743367 56.5655885,8.04876275 C56.5655885,7.15017348 55.9882209,6.67895951 55.0253596,6.67895951 C54.5166708,6.67895951 54.227793,6.70825456 54.0764668,6.75250878 L54.0764668,9.47715609 Z M52,5.22085558 C52.6737895,5.08830068 53.664006,5 54.7917741,5 C56.1667082,5 57.1293756,5.22085558 57.7897786,5.79532941 C58.3535656,6.26654339 58.6560239,6.95861295 58.6560239,7.87174586 C58.6560239,9.12353784 57.8171337,9.99241653 57.0195671,10.3017806 L57.0195671,10.3460348 C57.6658075,10.625896 58.0235581,11.2737113 58.2573377,12.1868442 C58.5460215,13.3210405 58.8211247,14.6170867 59,15 L56.8542723,15 C56.7169147,14.7053874 56.4829412,13.9102657 56.2218065,12.6877688 C55.9606718,11.4359768 55.5615975,11.1118614 54.6953521,11.09711 L54.0764668,11.09711 L54.0764668,15 L52,15 L52,5.22085558 Z" id="Fill-13" fill="#E6B021"></path>
                            <path d="M65.5025233,10.741764 L64.8879204,8.62028549 C64.726889,8.02670685 64.5514062,7.27008246 64.4050328,6.69136423 L64.3610589,6.69136423 C64.2293435,7.28494286 64.0683122,8.04177655 63.9221452,8.62028549 L63.3219939,10.741764 L65.5025233,10.741764 Z M62.9999312,12.4331282 L62.3122448,15 L60,15 L63.0145892,5 L65.9269854,5 L69,15 L66.6000138,15 L65.8390375,12.4331282 L62.9999312,12.4331282 Z" id="Fill-15" fill="#E6B021"></path>
                            <polygon id="Fill-17" fill="#E6B021" points="69 13.7833058 73.9103121 6.91410093 73.9103121 6.8693095 69.4436652 6.8693095 69.4436652 5 76.9236102 5 76.9236102 6.30564916 72.1205459 13.0712477 72.1205459 13.1304812 77 13.1304812 77 15 69 15"></polygon>
                            <path d="M81.2658255,15 L81.2658255,10.9049333 L78,5 L80.6831291,5 L81.7256669,7.40366704 C82.0475126,8.13058585 82.2776496,8.66452477 82.5229272,9.31734935 L82.553641,9.31734935 C82.7835616,8.69445549 83.0288392,8.11572514 83.3355443,7.40366704 L84.3782985,5 L87,5 L83.5961788,10.8308391 L83.5961788,15 L81.2658255,15 Z" id="Fill-19" fill="#E6B021"></path>
                            <path d="M93.8649548,14.5822661 C93.4604533,14.7694841 92.5018228,15 91.2885296,15 C87.7978549,15 86,12.8962882 86,10.1296906 C86,6.82989796 88.4568077,5 91.5129709,5 C92.6966767,5 93.5954985,5.23051592 94,5.41773387 L93.5204734,7.16123918 C93.0709568,6.97402122 92.4267977,6.80103265 91.603001,6.80103265 C89.8051461,6.80103265 88.396999,7.8529902 88.396999,10.0144327 C88.396999,11.9453592 89.5954985,13.170102 91.6177947,13.170102 C92.3219739,13.170102 93.0709568,13.0404114 93.5352671,12.8529902 L93.8649548,14.5822661 Z" id="Fill-21" fill="#104E8D"></path>
                            <path d="M99.5139113,13.2615481 C100.944616,13.2615481 101.763813,11.8678679 101.763813,9.9713197 C101.763813,8.23286783 100.972243,6.73845187 99.5139113,6.73845187 C98.0557757,6.73845187 97.2361867,8.20408618 97.2361867,10.0142895 C97.2361867,11.8390863 98.0834023,13.2615481 99.5001959,13.2615481 L99.5139113,13.2615481 Z M99.403013,15 C96.638982,15 95,12.8306342 95,10.0720555 C95,7.16956848 96.8057213,5 99.5556451,5 C102.430574,5 104,7.22713177 104,9.89956828 C104,13.0890609 102.152937,15 99.4167283,15 L99.403013,15 Z" id="Fill-23" fill="#104E8D"></path>
                            <mask id="mask-2" fill="white">
                                <use xlink:href="#path-1"></use>
                            </mask>
                            <g id="Clip-26"></g>
                            <polygon id="Fill-25" fill="#104E8D" mask="url(#mask-2)" points="106 15 108 15 108 5 106 5"></polygon>
                            <path d="M110,15 L110,5 L112.551853,5 L114.559033,8.66452477 C115.132629,9.71796052 115.691864,10.9643762 116.136219,12.0919061 L116.164737,12.0919061 C116.0359,10.7713963 115.99282,9.4213743 115.99282,7.90809385 L115.99282,5 L118,5 L118,15 L115.706022,15 L113.641604,11.142286 C113.068211,10.0593382 112.422814,8.78341043 111.9641,7.61129832 L111.906862,7.61129832 C111.97846,8.9466689 112.00718,10.3561337 112.00718,11.9880905 L112.00718,15 L110,15 Z" id="Fill-27" fill="#104E8D" mask="url(#mask-2)"></path>
                            <polygon id="Fill-28" fill="#2C7BB7" mask="url(#mask-2)" points="46.7072896 21.8693095 44 21.8693095 44.3801963 20 52 20 51.6350373 21.8693095 48.8970659 21.8693095 47.3157754 30 45.1253554 30"></polygon>
                            <path d="M59.068133,24.4918142 L59.9139426,24.4918142 C61.032183,24.4918142 61.8492732,23.7995512 61.8492732,22.8276407 C61.8492732,22.0175767 61.2045001,21.6641735 60.3726457,21.6641735 C59.9857414,21.6641735 59.7420301,21.6938835 59.5697131,21.737929 L59.068133,24.4918142 Z M57.8066995,20.2503532 C58.4516749,20.0882988 59.42652,20 60.3870054,20 C61.3048161,20 62.2507395,20.1325521 62.9246366,20.5744619 C63.5554544,20.9573672 64,21.5758747 64,22.5037397 C64,23.9765644 63.0538744,24.9042217 61.8063962,25.3164215 L61.8063962,25.3610903 C62.3799772,25.6259869 62.637846,26.2739965 62.7238023,27.1723593 C62.8532423,28.2917809 62.9246366,29.5875925 63.0967514,30 L60.9751485,30 C60.8887878,29.7348957 60.7884717,28.8805784 60.7025155,27.6583146 C60.6021995,26.450802 60.2009354,26.08244 59.383643,26.08244 L58.7526229,26.08244 L58.0358488,30 L56,30 L57.8066995,20.2503532 Z" id="Fill-29" fill="#2C7BB7" mask="url(#mask-2)"></path>
                            <path d="M74.4003241,25.7713963 L74.2023781,23.620152 C74.1569127,23.071143 74.1112329,22.27013 74.0657675,21.6616782 L74.0203021,21.6616782 C73.7618787,22.27013 73.473002,23.0416309 73.1991374,23.620152 L72.1958967,25.7713963 L74.4003241,25.7713963 Z M71.5424391,27.4033531 L70.3412524,30 L68,30 L73.0018348,20 L75.8142544,20 L77,30 L74.7042129,30 L74.4914693,27.4033531 L71.5424391,27.4033531 Z" id="Fill-30" fill="#2C7BB7" mask="url(#mask-2)"></path>
                            <path d="M85.3126965,28.2454729 C85.5497248,28.274966 85.8421777,28.2891969 86.1906447,28.2891969 C87.2773192,28.2891969 88.2384041,27.8800066 88.8516116,27.149074 C89.4925314,26.3742111 89.8266509,25.3508229 89.8266509,24.1667698 C89.8266509,22.6024007 89.0049135,21.6813101 87.3468947,21.6813101 C86.9984277,21.6813101 86.7059748,21.7103906 86.4970519,21.7543208 L85.3126965,28.2454729 Z M84.7417453,20.2192385 C85.5497248,20.073217 86.4274764,20 87.3468947,20 C88.8097484,20 89.9659984,20.3508229 90.7602201,21.0671122 C91.526533,21.7103906 92,22.6898486 92,24.1519201 C92,26.0528812 91.2338836,27.7046983 90.0774371,28.6841563 C88.9907626,29.6052469 87.6116352,30 85.5776336,30 C84.4490959,30 83.4740566,29.8977024 83,29.7954049 L84.7417453,20.2192385 Z" id="Fill-31" fill="#2C7BB7" mask="url(#mask-2)"></path>
                            <polygon id="Fill-32" fill="#2C7BB7" mask="url(#mask-2)" points="103.648892 25.7418842 100.021094 25.7418842 99.5499518 28.1750633 103.633901 28.1750633 103.284613 30 97 30 98.9430346 20 105 20 104.635507 21.8249367 100.780062 21.8249367 100.354963 23.9466689 104.013385 23.9466689"></polygon>
                            <path d="M113.068211,24.4918142 L113.914244,24.4918142 C115.032513,24.4918142 115.849826,23.7995512 115.849826,22.8276407 C115.849826,22.0175767 115.204429,21.6641735 114.372958,21.6641735 C113.98564,21.6641735 113.742125,21.6938835 113.569803,21.737929 L113.068211,24.4918142 Z M111.806745,20.2503532 C112.451535,20.0882988 113.426607,20 114.387116,20 C115.304748,20 116.2511,20.1325521 116.925014,20.5744619 C117.555645,20.9573672 118,21.5758747 118,22.5037397 C118,23.9765644 117.05385,24.9042217 115.806543,25.3164215 L115.806543,25.3610903 C116.379936,25.6259869 116.638014,26.2739965 116.723972,27.1723593 C116.853213,28.2917809 116.925014,29.5875925 117.096931,30 L114.975274,30 C114.888911,29.7348957 114.788593,28.8805784 114.702634,27.6583146 C114.602316,26.450802 114.201042,26.08244 113.383729,26.08244 L112.752693,26.08244 L112.0359,30 L110,30 L111.806745,20.2503532 Z" id="Fill-33" fill="#2C7BB7" mask="url(#mask-2)"></path>
                        </g>
                    </g>
                </g>
            </g>
        </g>
    </g>
</svg>