<?xml version="1.0" encoding="UTF-8"?>
<svg width="50px" height="52px" viewBox="0 0 50 52" version="1.1" xmlns="http://www.w3.org/2000/svg" xmlns:xlink="http://www.w3.org/1999/xlink">
    <!-- Generator: sketchtool 53 (72520) - https://sketchapp.com -->
    <title>768C7D7A-CDA4-49BA-80EF-7FD11FAC3914</title>
    <desc>Created with sketchtool.</desc>
    <g id="Desktop-Final" stroke="none" stroke-width="1" fill="none" fill-rule="evenodd">
        <g id="Buyers-Trades" transform="translate(-743.000000, -343.000000)" fill="#FFFFFF" fill-rule="nonzero">
            <g id="Group-28" transform="translate(281.000000, 212.000000)">
                <g id="Group-26" transform="translate(80.000000, 131.000000)">
                    <g id="google" transform="translate(382.000000, 0.000000)">
                        <path d="M21.7966667,6.15333333 C21.7266667,6.03777778 21.6455556,5.92888889 21.5666667,5.82333333 C21.3033333,5.47777778 20.99,5.19111111 20.6377778,4.95888889 C20.0411111,4.56777778 19.3233333,4.34 18.5955556,4.34 C17.9922222,4.34 17.6822222,4.41333333 17.2488889,4.58888889 C16.8044444,4.76555556 16.33,5.00888889 15.9022222,5.46111111 C15.4777778,5.90777778 15.2244444,6.36555556 15.0466667,6.84 C14.6888889,7.79555556 14.7311111,9.05 15.3566667,10.0544444 C16.6633333,12.1655556 17.4355556,14.5588889 17.7188889,17.0233333 C17.7955556,17.68 17.8433333,18.34 17.8433333,19.0066667 C17.8433333,22.1788889 16.9777778,25.2811111 15.3422222,27.9755556 C15.2844444,28.0711111 15.2333333,28.1666667 15.1855556,28.2644444 C14.8666667,28.9066667 14.7511111,29.6011111 14.8155556,30.2777778 C14.9244444,31.4233333 15.5477778,32.5066667 16.6044444,33.1488889 C16.8777778,33.3111111 17.1655556,33.4355556 17.4655556,33.5288889 C17.82,33.6377778 18.1855556,33.6955556 18.5566667,33.6955556 C19.8833333,33.6955556 21.09,33.0188889 21.7788889,31.8855556 C23.85,28.4722222 25.0611111,24.6088889 25.32,20.6255556 C25.3555556,20.0877778 25.3722222,19.5477778 25.3722222,19.0055556 C25.3722222,14.4655556 24.1366667,10.0211111 21.7966667,6.15333333 Z" id="Path"></path>
                        <path d="M10.1977778,44.4433333 C8.71666667,44.4433333 7.67555556,45.5344444 7.67555556,46.8111111 C7.67555556,47.9011111 8.50222222,49.1055556 10.05,49.1055556 C11.6377778,49.1055556 12.5233333,47.8922222 12.5233333,46.74 C12.5233333,45.5622222 11.6266667,44.4433333 10.1977778,44.4433333 Z M11.2688889,48.3211111 C11.0433333,48.6311111 10.6544444,48.8177778 10.2755556,48.8177778 C9.09666667,48.8177778 8.61888889,47.2288889 8.61888889,46.2677778 C8.61888889,45.8488889 8.68777778,45.4188889 9.06777778,45.0766667 C9.30222222,44.8722222 9.62333333,44.7466667 9.94444444,44.7466667 C11.15,44.7466667 11.5611111,46.3833333 11.5611111,47.24 C11.5611111,47.6188889 11.5011111,48.0077778 11.2688889,48.3211111 Z" id="Shape"></path>
                        <path d="M17.1855556,16.8433333 C15.0311111,13.8711111 12.0277778,11.2677778 8.63,9.44777778 C8.11111111,9.17111111 7.53,9.02555556 6.94555556,9.02555556 C5.62,9.02555556 4.41222222,9.74777778 3.78777778,10.9133333 C2.85555556,12.6555556 3.51333333,14.8244444 5.25222222,15.7566667 C10.4955556,18.5611111 13.8777778,23.9122222 14.2788889,30.0955556 L14.2788889,30.0911111 C14.2188889,29.4011111 14.3311111,28.7255556 14.6488889,28.0855556 C14.6922222,27.9944444 14.7444444,27.8988889 14.8055556,27.7966667 C16.4433333,25.1022222 17.3066667,22 17.3066667,18.8255556 C17.3066667,18.16 17.26,17.5 17.1855556,16.8433333 Z" id="Path"></path>
                        <path d="M5.45888889,46.84 L4.72777778,47.2355556 L6.10666667,47.1622222 L6.10666667,48.6311111 C5.83555556,48.7411111 5.53333333,48.8588889 4.94888889,48.8588889 C2.95888889,48.8588889 1.71888889,47.2422222 1.71888889,45.5277778 C1.71888889,43.93 2.80444444,42.8344444 4.24444444,42.8344444 C5.32222222,42.8344444 5.89,43.39 6.2,43.6933333 L5.97111111,44.0555556 L6.29,43.9844444 L7.04888889,43.2644444 C6.84777778,43.1255556 6.52666667,42.8888889 5.84333333,42.6977778 C5.41333333,42.5788889 4.93888889,42.5066667 4.44666667,42.5066667 C2.11777778,42.5066667 0.757777778,44.15 0.757777778,45.92 C0.757777778,47.37 1.71777778,49.2233333 4.23555556,49.2233333 C4.73777778,49.2233333 5.21111111,49.1522222 5.74111111,49.0666667 L7.04777778,48.7666667 L7.04777778,47.6511111 C7.04777778,47.56 7.05555556,47.2955556 7.06333333,47.2133333 C7.08333333,47.1411111 7.09222222,47.1222222 7.15555556,47.0666667 L7.39222222,46.84 L5.45888889,46.84 L5.45888889,46.84 Z" id="Path"></path>
                        <path d="M21.46,48.7866667 L21.11,48.5155556 C21.0022222,48.4288889 20.8555556,48.31 20.8555556,48.0988889 C20.8555556,47.8822222 21.0033333,47.7455556 21.1288889,47.62 C21.5366667,47.2988889 21.9455556,46.9577778 21.9455556,46.2377778 C21.9455556,45.4955556 21.4788889,45.1066667 21.2566667,44.92 L21.8588889,44.92 L22.4811111,44.5755556 L20.4755556,44.5755556 C19.9488889,44.5755556 19.2888889,44.6511111 18.7333333,45.1088889 C18.3133333,45.4677778 18.1088889,45.9688889 18.1088889,46.4155556 C18.1088889,47.1755556 18.6944444,47.9433333 19.7266667,47.9433333 C19.8233333,47.9433333 19.93,47.9322222 20.0377778,47.9222222 C19.99,48.0411111 19.94,48.1366667 19.94,48.3033333 C19.94,48.6055556 20.0966667,48.79 20.2322222,48.9655556 C19.7944444,48.9933333 18.9777778,49.0433333 18.3733333,49.4122222 C17.7988889,49.7522222 17.6244444,50.25 17.6244444,50.5977778 C17.6244444,51.32 18.3055556,51.9911111 19.7177778,51.9911111 C21.3922222,51.9911111 22.2766667,51.0666667 22.2766667,50.1522222 C22.2766667,49.4811111 21.8877778,49.1477778 21.46,48.7866667 Z M20.1844444,47.67 C19.3477778,47.67 18.9666667,46.5888889 18.9666667,45.9355556 C18.9666667,45.6855556 19.0177778,45.4211111 19.1811111,45.2133333 C19.3355556,45.02 19.6088889,44.8922222 19.8622222,44.8922222 C20.6722222,44.8922222 21.09,45.9833333 21.09,46.6844444 C21.09,46.8577778 21.0711111,47.1711111 20.8488889,47.3977778 C20.6922222,47.5522222 20.4277778,47.67 20.1844444,47.67 Z M20.1944444,51.5766667 C19.1533333,51.5766667 18.4811111,51.0822222 18.4811111,50.3922222 C18.4811111,49.7 19.1044444,49.4677778 19.32,49.3888889 C19.7277778,49.2544444 20.2522222,49.2333333 20.3411111,49.2333333 C20.4377778,49.2333333 20.4866667,49.2333333 20.5633333,49.2422222 C21.3033333,49.77 21.6266667,50.0322222 21.6266667,50.5266667 C21.6266667,51.13 21.1288889,51.5766667 20.1944444,51.5766667 Z" id="Shape"></path>
                        <path d="M15.3755556,44.4433333 C13.8966667,44.4433333 12.8544444,45.5344444 12.8544444,46.8111111 C12.8544444,47.9011111 13.6811111,49.1055556 15.23,49.1055556 C16.8166667,49.1055556 17.7044444,47.8922222 17.7044444,46.74 C17.7044444,45.5622222 16.8066667,44.4433333 15.3755556,44.4433333 Z M16.4466667,48.3211111 C16.2222222,48.6311111 15.8344444,48.8177778 15.4555556,48.8177778 C14.2766667,48.8177778 13.7977778,47.2288889 13.7977778,46.2677778 C13.7977778,45.8488889 13.8677778,45.4188889 14.2466667,45.0766667 C14.4811111,44.8722222 14.8,44.7466667 15.1222222,44.7466667 C16.33,44.7466667 16.7388889,46.3833333 16.7388889,47.24 C16.7388889,47.6188889 16.6811111,48.0077778 16.4466667,48.3211111 Z" id="Shape"></path>
                        <rect id="Rectangle" x="40.5955556" y="42.6977778" width="1" height="6.28333333"></rect>
                        <path d="M39.8122222,10.29 C39.1811111,7.52222222 38.2422222,4.82 37.0222222,2.25555556 C36.3677778,0.885555556 34.9666667,0 33.4477778,0 C32.8633333,0 32.2877778,0.128888889 31.7544444,0.383333333 C29.7866667,1.32 28.9488889,3.69 29.8811111,5.65222222 C31.8911111,9.88666667 32.88,14.36 32.88,19.0066667 C32.88,23.6522222 31.8844444,28.1211111 29.9133333,32.2855556 C29.8844444,32.3488889 29.54,33.0866667 29.54,33.9366667 C29.5377778,34.1755556 29.5633333,34.5333333 29.64,34.8522222 C29.8955556,35.9722222 30.6277778,36.9877778 31.7966667,37.5477778 C32.3333333,37.8022222 32.8977778,37.9277778 33.4866667,37.9277778 C34.9288889,37.9277778 36.2644444,37.1311111 36.9533333,35.8766667 C37.7411111,34.3966667 38.5388889,32.4522222 39.2322222,29.95 C39.4511111,29.1944444 39.6355556,28.4877778 39.81,27.7211111 C40.4544444,24.8955556 40.7911111,21.9811111 40.7911111,19.0044444 C40.7877778,16.0644444 40.4544444,13.11 39.8122222,10.29 Z" id="Path"></path>
                        <path d="M46.6866667,46.7022222 C46.6866667,45.4188889 46.2322222,44.47 45.0911111,44.47 C44.0088889,44.47 43.4788889,45.3277778 43.4788889,46.74 C43.4788889,48.3144444 44.1011111,49.0788889 45.1455556,49.0788889 C45.9488889,49.0788889 46.5611111,48.5922222 46.6866667,47.5288889 L46.1777778,47.4577778 C46.0744444,48.2844444 45.6833333,48.6033333 45.1455556,48.6033333 C44.4533333,48.6033333 44,48.0766667 44,46.8655556 L46.6866667,46.8655556 L46.6866667,46.7022222 Z M46.1544444,46.4111111 L44.0022222,46.4111111 C44.04,45.5122222 44.4133333,44.9355556 45.0966667,44.9355556 C45.7977778,44.9355556 46.1255556,45.5755556 46.1544444,46.3933333 L46.1544444,46.4111111 Z" id="Shape"></path>
                        <rect id="Rectangle" x="42.1588889" y="42.6977778" width="1" height="6.28333333"></rect>
                        <path d="M48.5644444,48.5522222 C48.2111111,48.5522222 48.1277778,48.4344444 48.1277778,48.0155556 L48.1277778,45.0288889 L49.01,45.0288889 L49.01,44.5744444 L48.1288889,44.5744444 L48.1288889,42.9488889 L47.6177778,43.15 L47.6177778,44.5733333 L47.0422222,44.5733333 L47.0422222,45.0277778 L47.6177778,45.0277778 L47.6177778,48.0788889 C47.6177778,48.7055556 47.8266667,49.0333333 48.4811111,49.0333333 C48.7,49.0333333 48.8977778,48.9988889 49.0111111,48.9533333 L49.0111111,48.4522222 C48.8944444,48.5166667 48.7377778,48.5522222 48.5644444,48.5522222 Z" id="Path"></path>
                        <path d="M39.5877778,48.1144444 L39.5866667,45.8633333 C39.5866667,44.8866667 39.0411111,44.4677778 38.0677778,44.4677778 C37.24,44.4677778 36.6722222,44.9544444 36.5722222,45.6722222 L37.0633333,45.7422222 C37.1477778,45.2322222 37.4833333,44.9233333 38.05,44.9233333 C38.7766667,44.9233333 39.0955556,45.2 39.0955556,45.9177778 L39.0955556,46.3911111 C38.86,46.2822222 38.4944444,46.2022222 38.05,46.2022222 C37.1277778,46.2022222 36.4811111,46.7022222 36.4811111,47.6044444 C36.4811111,48.59 37.1222222,49.08 37.9333333,49.08 C38.3955556,49.08 38.8888889,48.8211111 39.0977778,48.5155556 C39.0977778,48.6411111 39.1166667,48.8611111 39.1622222,48.98 L39.67,48.98 C39.6155556,48.7611111 39.5877778,48.4988889 39.5877778,48.1144444 Z M39.0977778,47.86 C38.9144444,48.2511111 38.4588889,48.6155556 37.9611111,48.6155556 C37.3944444,48.6155556 36.9866667,48.2877778 36.9866667,47.6066667 C36.9866667,46.96 37.4211111,46.65 38.0411111,46.65 C38.5055556,46.65 38.85,46.7511111 39.0977778,46.8666667 L39.0977778,47.86 L39.0977778,47.86 Z" id="Shape"></path>
                        <path d="M24.3111111,48.7177778 C23.99,48.6888889 23.9222222,48.6311111 23.9222222,48.2488889 L23.9222222,46.0033333 C23.9222222,44.62 23.9322222,43.4311111 24.0122222,42.6822222 C24.05,42.34 24.1477778,42.2788889 24.4488889,42.1055556 L23.0577778,42.1055556 L22.3277778,42.4566667 L23.0844444,42.4566667 C23.0766667,42.9055556 23.0388889,43.5266667 23.0288889,44.0255556 C22.9988889,45.0344444 22.9877778,46.1155556 22.9877778,46.8766667 L22.9877778,48.4655556 C22.9877778,48.6588889 22.9488889,48.6866667 22.7266667,48.98 L24.4488889,48.98 L24.8088889,48.7677778 C24.6444444,48.7477778 24.4755556,48.7411111 24.3111111,48.7177778 Z" id="Path"></path>
                        <path d="M27.5633333,48.62 C26.6377778,48.62 25.8022222,47.8988889 25.5511111,46.6622222 L26.2977778,46.6022222 L28.5877778,45.6777778 C28.5233333,45.4533333 28.3955556,45.0344444 27.9088889,44.7133333 C27.6188889,44.5288889 27.2544444,44.44 26.9066667,44.44 C25.9055556,44.44 24.6788889,45.18 24.6788889,46.6888889 C24.6788889,47.4211111 24.9777778,48.2588889 25.6722222,48.7455556 C26.1666667,49.1022222 26.6533333,49.1233333 26.9655556,49.1233333 C27.2588889,49.1233333 27.5888889,49.0855556 27.91,48.9388889 C28.0166667,48.8911111 28.1277778,48.8233333 28.2333333,48.7666667 L28.75,48.2788889 C28.42,48.4466667 28.0577778,48.62 27.5633333,48.62 Z M25.5222222,46.1233333 C25.5222222,45.0677778 26.2511111,44.7655556 26.64,44.7655556 C27.1666667,44.7655556 27.6033333,45.2133333 27.6033333,45.6033333 C27.6033333,45.7422222 27.5055556,45.7988889 27.3211111,45.8666667 L25.55,46.6366667 C25.5377778,46.46 25.5188889,46.2855556 25.5222222,46.1233333 Z" id="Shape"></path>
                        <path d="M32.08,15.5077778 C29.5022222,11.3844444 25.7655556,7.69777778 21.3933333,4.99111111 C21.4188889,5.00777778 21.4444444,5.02444444 21.4477778,5.02777778 C21.7511111,5.24666667 22.0066667,5.47555556 22.2744444,5.82333333 C22.34,5.90777778 22.4311111,6.02888889 22.5066667,6.15333333 C24.8466667,10.0211111 26.0844444,14.4655556 26.0844444,19.0055556 C26.0844444,19.5455556 26.0655556,20.0877778 26.0322222,20.6255556 C27.9077778,24.1988889 28.9322222,28.26 28.9322222,32.52 C28.9322222,32.8588889 28.9366667,33.4033333 28.93,33.8 C28.95,33.3555556 29.06,32.8866667 29.2211111,32.4744444 C29.2455556,32.4088889 29.2722222,32.3466667 29.3011111,32.2855556 C31.27,28.1211111 32.2677778,23.6522222 32.2677778,19.0066667 C32.2688889,17.4088889 32.1611111,16.2444444 32.08,15.5077778 Z" id="Path"></path>
                        <polygon id="Path" points="35.3466667 44.5722222 34.5344444 48.5244444 33.6622222 44.57 32.9588889 44.57 32.0933333 48.5244444 31.2644444 44.5722222 30.7188889 44.5722222 31.7288889 48.98 32.4233333 48.98 33.3155556 45.0455556 34.1888889 48.98 34.8822222 48.98 35.8844444 44.5722222"></polygon>
                    </g>
                </g>
            </g>
        </g>
    </g>
</svg>