<?xml version="1.0" encoding="UTF-8"?>
<svg width="102px" height="102px" viewBox="0 0 102 102" version="1.1" xmlns="http://www.w3.org/2000/svg" xmlns:xlink="http://www.w3.org/1999/xlink">
    <!-- Generator: sketchtool 53 (72520) - https://sketchapp.com -->
    <title>D6CF7451-60D1-487D-8FBD-A5E2C36744B9</title>
    <desc>Created with sketchtool.</desc>
    <g id="Desktop-Final" stroke="none" stroke-width="1" fill="none" fill-rule="evenodd">
        <g id="Home" transform="translate(-949.000000, -542.000000)">
            <g id="Group-37" transform="translate(211.000000, 471.000000)">
                <g id="Group-31" transform="translate(159.000000, 72.000000)">
                    <g id="Group-22" transform="translate(564.000000, 0.000000)">
                        <g id="Group-17" transform="translate(16.000000, 0.000000)">
                            <g id="icon" transform="translate(26.865672, 27.611940)" fill="#E7B022" fill-rule="nonzero">
                                <path d="M43.2712471,23.9536583 L43.2712471,41.8536687 L9.64598495,41.8536687 L9.64598495,23.9536583 L43.2712471,23.9536583 L43.2712471,23.9536583 Z M46.1329715,21.0312076 L6.78426052,21.0312076 L6.78426052,44.7761194 L46.1329715,44.7761194 L46.1329715,21.0312076 L46.1329715,21.0312076 Z" id="Shape"></path>
                                <g id="Group" transform="translate(6.784261, 21.031208)">
                                    <path d="M28.8192732,0.229501841 L32.8713055,4.26729986 C32.8407174,4.41611746 32.7813403,4.55417717 32.7813403,4.71195968 C32.7813403,5.99752859 33.8267359,7.03745881 35.1168368,7.03745881 C35.2751755,7.03745881 35.4119226,6.97829037 35.5612648,6.94960264 L39.6150965,10.9874007 L39.6150965,0.229501841 L28.8192732,0.229501841 Z" id="Path"></path>
                                    <ellipse id="Oval" cx="31.518229" cy="11.8838922" rx="2.33549643" ry="2.32729211"></ellipse>
                                    <ellipse id="Oval" cx="19.8227538" cy="11.8838922" rx="7.06406702" ry="6.12124443"></ellipse>
                                    <ellipse id="Oval" cx="8.12727863" cy="11.8838922" rx="2.33369713" ry="2.32549913"></ellipse>
                                    <path d="M0.0304111852,10.9874007 L4.08244351,6.94960264 C4.23178574,6.98008335 4.37033213,7.03925179 4.52867087,7.03925179 C5.81877175,7.03925179 6.862368,5.99752859 6.862368,4.71195968 C6.862368,4.55417717 6.80299097,4.41791045 6.77240281,4.26909285 L10.8262344,0.229501841 L0.0304111852,0.229501841 L0.0304111852,10.9874007 Z" id="Path"></path>
                                    <path d="M6.86416731,19.0558248 C6.86416731,17.7702559 5.81877175,16.7303256 4.52867087,16.7303256 C4.37033213,16.7303256 4.23358504,16.7894941 4.08424282,16.8181818 L0.0304111852,12.7803838 L0.0304111852,23.5382826 L10.8262344,23.5382826 L6.77420211,19.5004846 C6.80479028,19.351667 6.86416731,19.2118143 6.86416731,19.0558248 Z" id="Path"></path>
                                    <path d="M35.1168368,16.7285327 C33.8267359,16.7285327 32.7831396,17.7702559 32.7831396,19.0558248 C32.7831396,19.2136073 32.8425167,19.349874 32.8731048,19.4986916 L28.8192732,23.5382826 L39.6150965,23.5382826 L39.6150965,12.7803838 L35.5630641,16.8181818 C35.4137219,16.7877011 35.2751755,16.7285327 35.1168368,16.7285327 Z" id="Path"></path>
                                </g>
                                <g id="Group">
                                    <ellipse id="Oval" cx="33.0859701" cy="14.4678596" rx="2.32298507" ry="2.3097863"></ellipse>
                                    <path d="M4.06746269,20.9199457 C4.06746269,19.4453867 5.27104478,18.2486431 6.75402985,18.2486431 L8.22268657,18.2486431 L8.28895522,18.020692 L29.0238806,6.72998643 L30.6089552,7.18945047 C30.6537313,7.33191995 30.6698507,7.48151289 30.7468657,7.61863976 C31.3629851,8.74058684 32.7743284,9.1484057 33.9026866,8.53578697 C34.038806,8.4609905 34.1319403,8.34523406 34.2447761,8.2472863 L35.8334328,8.71031208 L39.4459701,15.2674695 L38.9820896,16.8453189 C38.840597,16.8880597 38.6901493,16.9040875 38.5522388,16.978884 C38.0274627,17.2638229 37.678209,17.7304104 37.4937313,18.2486431 L44.3552239,18.2486431 L39.7235821,9.83760176 L39.7253731,9.83760176 L34.561791,0.46667232 L25.1337313,5.59913501 L25.1355224,5.59913501 L9.42626866,14.1526459 L0,19.2851085 L4.06746269,26.6703697 L4.06746269,20.9199457 Z" id="Path"></path>
                                    <path d="M19.9361194,14.6975916 C18.3761194,15.5452849 17.2531343,16.8310719 16.6226866,18.2486431 L29.5773134,18.2486431 C29.4734328,17.7054783 29.3176119,17.1729986 29.041791,16.6725746 C27.4173134,13.7270183 23.3426866,12.8437076 19.9361194,14.6975916 Z" id="Path"></path>
                                </g>
                            </g>
                            <circle id="Oval-Copy-5" stroke="#E7B022" cx="50" cy="50" r="50"></circle>
                        </g>
                    </g>
                </g>
            </g>
        </g>
    </g>
</svg>