<?xml version="1.0" encoding="UTF-8"?>
<svg width="102px" height="102px" viewBox="0 0 102 102" version="1.1" xmlns="http://www.w3.org/2000/svg" xmlns:xlink="http://www.w3.org/1999/xlink">
    <!-- Generator: sketchtool 53 (72520) - https://sketchapp.com -->
    <title>6D3D33DC-5C67-468B-8E7A-875C518D8150</title>
    <desc>Created with sketchtool.</desc>
    <g id="Desktop-Final" stroke="none" stroke-width="1" fill="none" fill-rule="evenodd">
        <g id="Home" transform="translate(-672.000000, -542.000000)">
            <g id="Group-37" transform="translate(211.000000, 471.000000)">
                <g id="Group-31" transform="translate(159.000000, 72.000000)">
                    <g id="Group-21" transform="translate(291.000000, 0.000000)">
                        <g id="Group-3" transform="translate(12.000000, 0.000000)">
                            <g id="bank-transfer-logo-on-black" transform="translate(16.417910, 28.358209)" fill="#E7B022" fill-rule="nonzero">
                                <polygon id="Path" points="28.0839905 26.8656716 28.0573035 26.8656716 26.8656716 30.8165057 29.2361721 30.8165057"></polygon>
                                <path d="M19.0039261,26.8656716 L16.5935031,26.8656716 L16.5935031,29.2361721 L19.0579096,29.2361721 C19.8864925,29.233466 20.5443371,28.8843855 20.5443371,28.0265674 C20.5443371,27.1362767 19.9555411,26.8656716 19.0039261,26.8656716 Z" id="Path"></path>
                                <path d="M19.1172523,30.0263389 L16.5935031,30.0263389 L16.5935031,32.3968393 L19.0248767,32.3968393 C19.9888991,32.3968393 20.5443371,31.999728 20.5443371,31.1004201 C20.5443371,30.3227897 19.8313869,30.0263389 19.1172523,30.0263389 Z" id="Path"></path>
                                <path d="M65.4351296,0 L1.72904951,0 C0.77295886,0 0,0.772939998 0,1.72635139 L0,41.731636 C0,42.6850474 0.77295886,43.4591747 1.72904951,43.4591747 L65.4351296,43.4591747 C66.3912202,43.4591747 67.1641791,42.6862347 67.1641791,41.7328233 L67.1641791,1.72635139 C67.1641791,0.772939998 66.3912202,0 65.4351296,0 Z M25.2698089,14.5671288 C25.3090514,14.1860017 25.3601856,13.7751918 25.5040749,13.3560707 C25.62537,12.9322004 25.732395,12.4667742 25.9642827,12.0334053 C26.0665511,11.8101907 26.1711978,11.5810395 26.2806012,11.350701 C26.3947613,11.1227372 26.5529206,10.9185195 26.6896749,10.6964922 C26.9584267,10.2405645 27.3092311,9.83925309 27.6671705,9.43794169 C28.0132183,9.01882062 28.4413185,8.69943374 28.8289871,8.33017976 C29.2558983,8.02860256 29.6625935,7.67953288 30.099018,7.43375933 C30.5283075,7.16305224 30.9504619,6.92084063 31.3690489,6.72137224 C31.7805008,6.50053224 32.1883853,6.34974364 32.5605947,6.18351998 C33.1373409,5.95911805 33.6474938,5.78695783 34.0684591,5.6634774 C33.8924623,5.2312959 33.741438,4.78130472 33.6296563,4.30163074 C33.514307,3.80770902 33.4144169,3.3031015 33.4025253,2.72962988 C33.954299,2.88398042 34.4192635,3.10956967 34.8699579,3.3434701 C35.3182741,3.58093246 35.7273477,3.845703 36.1102596,4.13303246 C36.8832185,4.70175483 37.5408281,5.35833826 38.1377902,6.06241418 C38.590863,6.5967045 38.6301055,7.3399617 38.2935711,7.90868406 L38.2234102,8.02385331 C37.675204,8.94045804 37.0223511,9.79057331 36.2327439,10.5528275 C35.8426969,10.9351419 35.4086508,11.2925228 34.934173,11.6214081 C34.6903936,11.7828825 34.4382901,11.9396077 34.1802408,12.0903963 C33.9126781,12.2364357 33.6296563,12.3706019 33.3204727,12.4893331 C33.3002569,12.1592604 33.3038244,11.8458101 33.3276077,11.5430456 C33.3585261,11.2450303 33.3953903,10.9529516 33.4417678,10.6644348 C33.5440362,10.0968998 33.6903038,9.55667288 33.8781923,9.04137954 C33.8972189,8.98557589 33.9198131,8.93333417 33.9412181,8.87871782 C33.7580863,8.90008944 33.5678195,8.9262103 33.3609044,8.95589309 C33.0374508,9.02475718 32.6688089,9.07224965 32.3013562,9.17910772 C31.9220118,9.26459417 31.5367215,9.38451266 31.1442962,9.52699008 C30.7328443,9.64809589 30.3642024,9.85706277 29.9456154,10.0244737 C29.5781627,10.2512503 29.1536299,10.4376582 28.8052038,10.7143019 C28.4401294,10.9778851 28.0714875,11.2450303 27.7694389,11.5727284 C27.6172255,11.7306408 27.4376612,11.8766802 27.2985286,12.0476531 C27.166531,12.2221879 27.0333443,12.3967228 26.903725,12.5676957 C26.6159465,12.8989557 26.4387605,13.2812701 26.2437371,13.6374636 C26.0296869,13.9865333 25.9000677,14.3498507 25.7882859,14.6906092 C25.6836392,15.0313677 25.5326149,15.3400688 25.4886157,15.6309602 C25.4327248,15.9230389 25.383969,16.1759363 25.3447264,16.3860905 C25.2662414,16.8111481 25.2198639,17.0533597 25.2198639,17.0533597 C25.2198639,17.0533597 25.2127288,16.8075862 25.1984588,16.376592 C25.1913238,16.1593139 25.1841888,15.8945434 25.1746755,15.5905916 C25.1556488,15.2818905 25.2341339,14.9470686 25.2698089,14.5671288 Z M26.9584267,24.7055844 L29.2535199,24.7055844 L32.6117289,34.2171395 L30.4498224,34.2171395 L29.8385903,32.258075 L26.3222221,32.258075 L25.6574775,34.2171395 L23.5621644,34.2171395 L26.9584267,24.7055844 Z M19.086138,36.5882012 L17.609192,36.5882012 L17.609192,40.5977532 L16.5924538,40.5977532 L16.5924538,36.5882012 L15.1178861,36.5882012 L15.1178861,35.7250255 L19.0873272,35.7250255 L19.086138,36.5882012 Z M15.1155078,34.2171395 L15.1155078,24.7043971 L19.7473151,24.7043971 C22.0840292,24.7043971 22.6809913,26.1636034 22.6809913,27.1443229 C22.6809913,28.5097315 21.9104108,28.8932333 21.5132288,29.0915143 C22.6809913,29.5284451 22.9854182,30.4557356 22.9854182,31.3948993 C22.9854182,32.147655 22.6679104,32.8659786 22.1637034,33.3551511 C21.6202539,33.8870668 21.102966,34.2171395 19.1515422,34.2171395 L15.1155078,34.2171395 Z M22.6536404,40.5989405 C22.5858579,40.3709767 22.5466154,40.1192666 22.5466154,39.6158463 C22.5466154,38.9533263 22.5049945,38.6944924 21.7498732,38.6944924 L20.6974599,38.6944924 L20.6974599,40.5989405 L19.6961809,40.5989405 L19.6961809,35.7262128 L22.1648926,35.7262128 C23.4634635,35.7262128 23.7001078,36.6831861 23.7001078,37.1034945 C23.7001078,37.6425341 23.4277885,38.1020238 22.9449865,38.2646855 C23.3457359,38.4404076 23.5645427,38.5900089 23.5645427,39.4994898 C23.5645427,40.2106896 23.5645427,40.3887863 23.7809712,40.4695235 L23.7821604,40.5989405 L22.6536404,40.5989405 L22.6536404,40.5989405 Z M27.620793,40.5977532 L27.3068528,39.5932874 L25.5064532,39.5932874 L25.1675405,40.5977532 L24.0925331,40.5977532 L25.8322851,35.7250255 L27.0095609,35.7250255 L28.7279079,40.5977532 L27.620793,40.5977532 Z M33.3145269,40.5989405 L32.293032,40.5989405 L30.3023657,37.1248661 L30.2880956,37.1248661 L30.2880956,40.5989405 L29.3379508,40.5989405 L29.3379508,35.7262128 L30.4105799,35.7262128 L32.350112,39.1183627 L32.3620037,39.1183627 L32.3620037,35.7262128 L33.3145269,35.7262128 L33.3145269,40.5989405 Z M32.1265486,20.4229507 C32.3168154,20.850383 32.4797313,21.2968122 32.6069722,21.7717369 C32.7342131,22.2620967 32.8507516,22.7631423 32.8804807,23.3342393 C32.3203829,23.1965111 31.8518509,22.9887315 31.3963997,22.7655169 C30.9397594,22.5423023 30.5211725,22.2870303 30.1311255,22.0139485 C29.3438967,21.4689724 28.6660712,20.831386 28.0477041,20.146307 C27.577983,19.6262645 27.5149571,18.8830073 27.8360323,18.3047864 L27.9038148,18.1884298 C28.423481,17.2563901 29.0501723,16.3860905 29.8171853,15.6012774 C30.1953406,15.2059025 30.6151167,14.8366486 31.0824595,14.4935154 C31.3214822,14.3249172 31.5652615,14.1610681 31.8209325,14.0031557 C32.0837385,13.8499924 32.3620037,13.7051404 32.6688089,13.5792853 C32.6997273,13.9069834 32.704484,14.221621 32.6878356,14.5243855 C32.6676198,14.8235881 32.6390797,15.1168542 32.6022156,15.4065582 C32.5165955,15.9788425 32.3869762,16.5226314 32.214547,17.0426739 C32.1955203,17.0984776 32.1729261,17.1507193 32.1562777,17.206523 C32.3370312,17.1792148 32.527298,17.1483447 32.7342131,17.111538 C33.0552884,17.0331754 33.4215519,16.9761845 33.784248,16.8574533 C34.1612141,16.761281 34.5453152,16.6306767 34.9317946,16.4751389 C35.3396791,16.3433473 35.7023752,16.1225073 36.1138271,15.9432232 C36.4717665,15.7045735 36.8962993,15.5074797 37.2316445,15.2201503 C37.5907731,14.9470686 37.9534692,14.6680503 38.2412477,14.332041 C38.3946503,14.168192 38.5682688,14.0174034 38.7026447,13.8440559 C38.8286965,13.6635845 38.9559374,13.4854877 39.0796108,13.3109529 C39.3566868,12.9701944 39.5231703,12.5831307 39.7051129,12.2221879 C39.9084605,11.8671817 40.0273773,11.5003023 40.1272673,11.1559819 C40.2224007,10.8116615 40.3639117,10.4993985 40.4007759,10.2073198 C40.4471534,9.91405374 40.4875851,9.65878169 40.5196926,9.4486275 C40.5898535,9.02238255 40.6267177,8.77898363 40.6267177,8.77898363 C40.6267177,8.77898363 40.643366,9.02356987 40.6683385,9.45337675 C40.6802302,9.67065481 40.6956894,9.93661266 40.7147161,10.2393772 C40.7420669,10.5468909 40.6754736,10.8852748 40.6516902,11.2640273 C40.6243394,11.6439671 40.5839077,12.0583389 40.4542884,12.4810219 C40.3460742,12.9072668 40.2533191,13.376255 40.0333231,13.8155604 C39.9393789,14.0423369 39.8394888,14.2738628 39.7384096,14.5077632 C39.6290062,14.739289 39.4803602,14.9494432 39.3495518,15.1750324 C39.0926916,15.6392714 38.7573464,16.0488939 38.4112987,16.4608911 C38.0771426,16.8883234 37.660934,17.2231453 37.2827787,17.6018978 C36.8630026,17.9165354 36.4658207,18.2774782 36.0377204,18.5363122 C35.6179443,18.8188924 35.2017357,19.0741645 34.7902837,19.285506 C34.3847776,19.5194064 33.9816498,19.6832554 33.6141971,19.8589776 C33.045775,20.0988146 32.541568,20.2864098 32.1265486,20.4229507 Z M33.7961397,24.7055844 L35.892642,24.7055844 L39.6753837,31.3295971 L39.7015454,31.3295971 L39.7015454,24.7055844 L41.559025,24.7055844 L41.559025,34.2183268 L39.570737,34.2183268 L35.6809701,27.4352143 L35.6548085,27.4352143 L35.6548085,34.2183268 L33.7961397,34.2183268 L33.7961397,24.7055844 Z M36.134043,40.7283575 C34.3538592,40.7283575 34.0494324,39.7037074 34.0494324,39.0993657 L35.0245497,39.0993657 C35.0316847,39.3712601 35.168439,39.8865534 36.0603146,39.8865534 C36.5407382,39.8865534 37.0794311,39.7713842 37.0794311,39.2560909 C37.0794311,38.8749638 36.7131675,38.7740423 36.1946905,38.6517491 L35.672646,38.5282687 C34.8830388,38.3477973 34.1231608,38.1708878 34.1231608,37.097558 C34.1231608,36.5549565 34.4133176,35.5967958 35.9972887,35.5967958 C37.4932614,35.5967958 37.8928217,36.5739534 37.8999567,37.1711713 L36.9248393,37.1711713 C36.893921,36.9562679 36.8154359,36.4385999 35.9235603,36.4385999 C35.5382701,36.4385999 35.0733056,36.5810773 35.0733056,37.02157 C35.0733056,37.4038844 35.3872458,37.4846216 35.5917826,37.5309268 L36.7785717,37.8230055 C37.4468839,37.9844799 38.0581159,38.2587489 38.0581159,39.1337977 C38.0581159,40.5977532 36.5621432,40.7283575 36.134043,40.7283575 Z M42.3093897,36.5882012 L39.8573263,36.5882012 L39.8573263,37.6876519 L42.0037736,37.6876519 L42.0037736,38.5496403 L39.8573263,38.5496403 L39.8573263,40.5989405 L38.8382098,40.5989405 L38.8382098,35.7262128 L42.3093897,35.7262128 L42.3093897,36.5882012 L42.3093897,36.5882012 Z M46.699796,40.5977532 L42.9955393,40.5977532 L42.9955393,35.7250255 L46.5844467,35.7250255 L46.5844467,36.5893885 L43.99444,36.5893885 L43.99444,37.6128513 L46.3727749,37.6128513 L46.3727749,38.4748397 L43.99444,38.4748397 L43.99444,39.7369521 L46.699796,39.7369521 L46.699796,40.5977532 Z M51.6170035,40.5989405 L50.4908619,40.5989405 C50.4230794,40.3709767 50.3838368,40.1192666 50.3838368,39.6158463 C50.3838368,38.9533263 50.3398376,38.6944924 49.5870946,38.6944924 L48.5346814,38.6944924 L48.5346814,40.5989405 L47.5334024,40.5989405 L47.5334024,35.7262128 L49.9997357,35.7262128 C51.2983066,35.7262128 51.5373293,36.6831861 51.5373293,37.1034945 C51.5373293,37.6425341 51.2614424,38.1020238 50.7810188,38.2646855 C51.180579,38.4404076 51.400575,38.5900089 51.400575,39.4994898 C51.400575,40.2106896 51.400575,40.3887863 51.6170035,40.4695235 L51.6170035,40.5989405 L51.6170035,40.5989405 Z M52.0474821,34.2195141 L49.4860154,34.2195141 L46.5404475,30.0449257 L45.6117078,30.9983371 L45.6117078,34.2195141 L43.6210414,34.2195141 L43.6210414,24.7055844 L45.6117078,24.7055844 L45.6117078,28.5750337 L49.2493711,24.7055844 L51.8227295,24.7055844 L47.9341518,28.5999672 L52.0474821,34.2159522 L52.0474821,34.2195141 L52.0474821,34.2195141 Z" id="Shape"></path>
                                <path d="M49.7137145,36.3476734 L48.2001756,36.3476734 L48.2001756,37.928007 L49.6270236,37.928007 C50.2608624,37.928007 50.570676,37.7063573 50.570676,37.1205688 C50.5678337,36.8082442 50.4299809,36.3476734 49.7137145,36.3476734 Z" id="Path"></path>
                                <polygon id="Path" points="26.0928628 37.1378402 26.0807877 37.1378402 25.285338 38.7181738 26.8656716 38.7181738"></polygon>
                                <path d="M22.0621396,36.3476734 L20.5443371,36.3476734 L20.5443371,37.928007 L21.9711851,37.928007 C22.6064451,37.928007 22.9148376,37.7063573 22.9148376,37.1205688 C22.9148376,36.8082442 22.7755636,36.3476734 22.0621396,36.3476734 Z" id="Path"></path>
                            </g>
                            <circle id="Oval-Copy-4" stroke="#E7B022" cx="50" cy="50" r="50"></circle>
                        </g>
                    </g>
                </g>
            </g>
        </g>
    </g>
</svg>