<?xml version="1.0" encoding="UTF-8"?>
<svg width="102px" height="102px" viewBox="0 0 102 102" version="1.1" xmlns="http://www.w3.org/2000/svg" xmlns:xlink="http://www.w3.org/1999/xlink">
    <!-- Generator: sketchtool 53 (72520) - https://sketchapp.com -->
    <title>4D368D11-DCB4-49D7-A86E-A9C7CF7A1041</title>
    <desc>Created with sketchtool.</desc>
    <g id="Desktop-Final" stroke="none" stroke-width="1" fill="none" fill-rule="evenodd">
        <g id="Home" transform="translate(-395.000000, -542.000000)">
            <g id="Group-37" transform="translate(211.000000, 471.000000)">
                <g id="Group-31" transform="translate(159.000000, 72.000000)">
                    <g id="Group-2" transform="translate(26.000000, 0.000000)">
                        <g id="gift-card" transform="translate(16.417910, 29.104478)" fill="#E7B022" fill-rule="nonzero">
                            <path d="M4.01463386,0 L63.1495452,0 C65.3617654,0 67.1641791,1.81003981 67.1641791,4.03161997 L67.1641791,17.8987117 L28.9551073,17.89858 C29.7787867,17.4413276 30.4910943,16.9409978 31.0113544,16.4185365 C34.1003819,13.3164392 34.1003819,8.28784823 31.0113544,5.18588263 C27.9223268,2.08378528 22.9149225,2.08378528 19.8258949,5.18601436 C19.1648787,5.84982736 18.5392811,6.82493032 17.9922604,7.94533706 C17.4452396,6.82493032 16.819642,5.84982736 16.1586258,5.18601436 C13.0695983,2.08391702 8.06232509,2.08391702 4.97329757,5.18601436 C1.88440124,8.28797997 1.88427006,13.3165709 4.97329757,16.4186683 C5.4935576,16.9411295 6.20599639,17.4414593 7.02954466,17.8987117 L0,17.8987117 L0,4.03161997 C0,1.81017155 1.80241371,0 4.01463386,0 L4.01463386,0 Z M42.1152198,29.7372152 C40.9750029,29.7372152 40.0507084,28.8090099 40.0507084,27.6639687 C40.0507084,26.5189275 40.9750029,25.5907223 42.1152198,25.5907223 L56.8417531,25.5907223 C57.98197,25.5907223 58.9062646,26.5189275 58.9062646,27.6639687 C58.9062646,28.8090099 57.98197,29.7372152 56.8417531,29.7372152 L42.1152198,29.7372152 L42.1152198,29.7372152 Z M42.1152198,38.0300694 C40.9750029,38.0300694 40.0507084,37.1018641 40.0507084,35.9568229 C40.0507084,34.8117817 40.9750029,33.8835764 42.1152198,33.8835764 L52.0240351,33.8835764 C53.164252,33.8835764 54.0885465,34.8117817 54.0885465,35.9568229 C54.0885465,37.1018641 53.164252,38.0300694 52.0240351,38.0300694 L42.1152198,38.0300694 L42.1152198,38.0300694 Z M67.1641791,22.045073 L23.6273612,22.045073 L26.5751079,25.1502002 C27.3589086,25.9776282 27.3265071,27.2865478 26.5025653,28.0736648 C25.6786235,28.8607818 24.3752186,28.8282433 23.5914179,28.0008153 L19.6850076,23.8859388 L19.6850076,41.8788411 L63.1495452,41.8788411 C65.3617654,41.8788411 67.1641791,40.0688013 67.1641791,37.8472211 L67.1641791,22.045073 L67.1641791,22.045073 Z M15.5561159,41.8788411 L4.01463386,41.8788411 C1.80241371,41.8788411 0,40.0688013 0,37.8472211 L0,22.045073 L11.8291599,22.045073 L9.24215835,24.5713563 C8.42713678,25.3674313 8.40916511,26.6764827 9.20188608,27.4949527 C9.99460704,28.3134226 11.2981431,28.3314703 12.1131646,27.5353953 L15.5561159,24.1731212 L15.5561159,41.8788411 L15.5561159,41.8788411 Z M16.006457,16.3477948 C15.8761952,14.0010663 14.8444642,9.7295568 13.2393453,8.11751479 C10.8664296,5.73455918 6.78554979,7.42656437 6.78554979,10.8021437 C6.78554979,11.7739533 7.08109841,12.8277021 7.89257813,13.4867726 C10.4112348,15.5324865 14.6021747,16.61469 16.006457,16.3477948 L16.006457,16.3477948 Z M19.978195,16.3477948 C21.3820837,16.6148218 26.9841272,14.599407 28.0920738,13.4869044 C30.4648583,11.1040805 28.7801131,7.00580257 25.4187558,7.00580257 C24.4510407,7.00580257 23.4834567,7.37650504 22.7454378,8.11751479 C21.0620044,9.80793917 20.1110803,13.9488992 19.978195,16.3477948 Z" id="Shape"></path>
                        </g>
                        <circle id="Oval" stroke="#E7B022" cx="50" cy="50" r="50"></circle>
                    </g>
                </g>
            </g>
        </g>
    </g>
</svg>