<?xml version="1.0" encoding="UTF-8"?>
<svg width="109px" height="109px" viewBox="0 0 109 109" version="1.1" xmlns="http://www.w3.org/2000/svg" xmlns:xlink="http://www.w3.org/1999/xlink">
    <!-- Generator: sketchtool 53 (72520) - https://sketchapp.com -->
    <title>138765EF-710F-49B1-AF09-7429FFCB1CDF</title>
    <desc>Created with sketchtool.</desc>
    <g id="Desktop-Final" stroke="none" stroke-width="1" fill="none" fill-rule="evenodd">
        <g id="How-to-Buy-Bitcoin" transform="translate(-285.000000, -741.000000)">
            <g id="Group-21" transform="translate(170.000000, 624.000000)">
                <g id="Group-19" transform="translate(0.000000, 119.000000)">
                    <g id="Group" transform="translate(117.000000, 0.000000)">
                        <g id="account" transform="translate(25.000000, 28.000000)" fill="#042C47" fill-rule="nonzero">
                            <path d="M35.71,40.446 C35.71,36.642 37.808,33.346 40.886,31.566 C38.96,30.95 36.886,30.462 34.706,30.122 C39.39,27.524 42.564,22.534 42.564,16.796 C42.564,8.382 35.744,1.562 27.33,1.562 C18.916,1.562 12.096,8.382 12.096,16.796 C12.096,22.532 15.27,27.524 19.954,30.122 C8.446,31.916 0,37.794 0,44.778 L36.7,44.778 C36.082,43.454 35.71,42 35.71,40.446 Z" id="Path"></path>
                            <path d="M46.008,32.412 C41.572,32.412 37.972,36.006 37.972,40.448 C37.972,44.886 41.572,48.482 46.008,48.482 C50.446,48.482 54.044,44.886 54.044,40.448 C54.04,36.004 50.446,32.412 46.008,32.412 Z M51.254,41.872 L47.436,41.872 L47.436,45.692 L44.582,45.692 L44.582,41.872 L40.762,41.872 L40.762,39.014 L44.582,39.014 L44.582,35.192 L47.436,35.192 L47.436,39.014 L51.254,39.014 L51.254,41.872 Z" id="Shape"></path>
                        </g>
                        <circle id="Oval" stroke="#042C47" stroke-width="3" cx="52.5" cy="52.5" r="52.5"></circle>
                    </g>
                </g>
            </g>
        </g>
    </g>
</svg>