<?xml version="1.0" encoding="UTF-8"?>
<svg width="109px" height="109px" viewBox="0 0 109 109" version="1.1" xmlns="http://www.w3.org/2000/svg" xmlns:xlink="http://www.w3.org/1999/xlink">
    <!-- Generator: sketchtool 53 (72520) - https://sketchapp.com -->
    <title>B985C35F-F497-4F9E-A03C-BDB8CC90A137</title>
    <desc>Created with sketchtool.</desc>
    <g id="Desktop-Final" stroke="none" stroke-width="1" fill="none" fill-rule="evenodd">
        <g id="How-to-Buy-Bitcoin" transform="translate(-285.000000, -1094.000000)">
            <g id="Group-21" transform="translate(170.000000, 624.000000)">
                <g id="Group-19" transform="translate(0.000000, 119.000000)">
                    <g id="Group-24" transform="translate(117.000000, 353.000000)">
                        <g id="Group-Copy-2" stroke="#042C47" stroke-width="3">
                            <circle id="Oval" cx="52.5" cy="52.5" r="52.5"></circle>
                        </g>
                        <g id="004-transaction" transform="translate(28.000000, 26.000000)" fill="#042C47" fill-rule="nonzero">
                            <path d="M7.69230769,1.92307692 C7.69230769,0.861065144 6.83124255,0 5.76923077,0 C4.70721899,0 3.84615385,0.861065144 3.84615385,1.92307692 L3.84615385,13.4615385 L7.69230769,13.4615385 L7.69230769,1.92307692 Z" id="Path"></path>
                            <polygon id="Path" points="3.84615385 21.1538462 7.69230769 21.1538462 7.69230769 30.7692308 3.84615385 30.7692308"></polygon>
                            <path d="M27.8771034,20.0692983 L31.1903733,17.3076923 L27.8771034,14.5460863 C27.8151292,15.0259165 27.4066632,15.3846154 26.9230769,15.3846154 L2.84217094e-14,15.3846154 L2.84217094e-14,19.2307692 L26.9230769,19.2307692 C27.4066632,19.2307692 27.8151292,19.5894681 27.8771034,20.0692983 Z" id="Path"></path>
                            <path d="M40.3846154,32.6923077 L24.0384615,32.6923077 L24.0384615,33.6538462 C24.0384615,34.0270996 23.822491,34.3670185 23.4844501,34.5252404 C23.1464093,34.6834623 22.7473332,34.6318172 22.460468,34.3923715 L16.6912373,29.5846792 C16.4724496,29.4020433 16.3456844,29.1316106 16.3456844,28.8461538 C16.3456844,28.5606971 16.4724496,28.2902644 16.6912373,28.1076285 L22.460468,23.2999362 C22.7473332,23.0604905 23.1464093,23.0088454 23.4844501,23.1670673 C23.822491,23.3252892 24.0384615,23.6652081 24.0384615,24.0384615 L24.0384615,25 L40.3846154,25 L40.3846154,2.88461538 C40.3846154,1.29159784 39.0930175,-2.84217094e-14 37.5,-2.84217094e-14 L9.08250072,-2.84217094e-14 C9.42805361,0.58218149 9.61209808,1.24605625 9.61538462,1.92307692 L9.61538462,13.4615385 L25.9615385,13.4615385 L25.9615385,12.5 C25.9615385,12.1267465 26.177509,11.7868276 26.5155499,11.6286058 C26.8535907,11.4703839 27.2526668,11.522029 27.539532,11.7614746 L33.3087627,16.5691669 C33.5275504,16.7518029 33.6543156,17.0222356 33.6543156,17.3076923 C33.6543156,17.593149 33.5275504,17.8635817 33.3087627,18.0462177 L27.539532,22.85391 C27.2526668,23.0933556 26.8535907,23.1450007 26.5155499,22.9867788 C26.177509,22.828557 25.9615385,22.4886381 25.9615385,22.1153846 L25.9615385,21.1538462 L9.61538462,21.1538462 L9.61538462,51.9230769 C9.61538462,52.9850887 10.4764498,53.8461538 11.5384615,53.8461538 C12.6004733,53.8461538 13.4615385,52.9850887 13.4615385,51.9230769 L13.4615385,49.0384615 C13.4615385,48.5074556 13.892071,48.0769231 14.4230769,48.0769231 L40.3846154,48.0769231 L40.3846154,32.6923077 Z M23.0769231,9.61538462 L13.4615385,9.61538462 L13.4615385,7.69230769 L23.0769231,7.69230769 L23.0769231,9.61538462 Z M23.0769231,5.76923077 L13.4615385,5.76923077 L13.4615385,3.84615385 L23.0769231,3.84615385 L23.0769231,5.76923077 Z M36.5384615,46.1538462 L17.3076923,46.1538462 L17.3076923,44.2307692 L36.5384615,44.2307692 L36.5384615,46.1538462 Z M36.5384615,42.3076923 L17.3076923,42.3076923 L17.3076923,40.3846154 L36.5384615,40.3846154 L36.5384615,42.3076923 Z M36.5384615,38.4615385 L30.7692308,38.4615385 L30.7692308,36.5384615 L36.5384615,36.5384615 L36.5384615,38.4615385 Z" id="Shape"></path>
                            <path d="M23.0769231,26.9230769 C22.9529748,26.9226075 22.830435,26.8977238 22.7163462,26.8498347 C22.6811335,26.8315242 22.6473294,26.8108661 22.6144644,26.78833 C22.5454477,26.752648 22.4806565,26.7089844 22.4219689,26.6578088 C22.3909819,26.6230656 22.3623423,26.5864446 22.3365197,26.5479454 C22.2895696,26.4939529 22.249662,26.4347957 22.2163274,26.3709435 C22.1975474,26.3258714 22.1829928,26.2789213 22.1721942,26.2305626 C22.1520058,26.1836125 22.1360427,26.1347844 22.1247746,26.0845478 L18.8096267,28.8461538 L22.1228966,31.6077599 C22.1341647,31.5575233 22.1501276,31.5086952 22.1703162,31.4617451 C22.1806453,31.4133864 22.1956694,31.3664363 22.2144494,31.3213642 C22.2473144,31.257512 22.2876916,31.1983548 22.3346417,31.1443623 C22.3604642,31.1058631 22.3891038,31.0692421 22.4200909,31.0344989 C22.4787786,30.9833233 22.5435697,30.9396597 22.6125864,30.9039776 C22.6454514,30.8814416 22.6792555,30.8607835 22.7144681,30.842473 C22.8290264,30.7941143 22.9525053,30.7692308 23.0769231,30.7692308 L50,30.7692308 L50,26.9230769 L23.0769231,26.9230769 Z" id="Path"></path>
                            <path d="M43.2692308,50 L15.3846154,50 L15.3846154,51.9230769 C15.3855543,52.5986892 15.2076135,53.2620944 14.8681641,53.8461538 L43.2692308,53.8461538 C44.3312425,53.8461538 45.1923077,52.9850887 45.1923077,51.9230769 C45.1923077,50.8610651 44.3312425,50 43.2692308,50 Z" id="Path"></path>
                        </g>
                    </g>
                </g>
            </g>
        </g>
    </g>
</svg>