<?xml version="1.0" encoding="UTF-8"?>
<svg width="109px" height="109px" viewBox="0 0 109 109" version="1.1" xmlns="http://www.w3.org/2000/svg" xmlns:xlink="http://www.w3.org/1999/xlink">
    <!-- Generator: sketchtool 53 (72520) - https://sketchapp.com -->
    <title>5608E912-D5EC-48E0-B96C-B4F5ABD5739D</title>
    <desc>Created with sketchtool.</desc>
    <g id="Desktop-Final" stroke="none" stroke-width="1" fill="none" fill-rule="evenodd">
        <g id="How-to-Buy-Bitcoin" transform="translate(-683.000000, -1094.000000)">
            <g id="Group-21" transform="translate(170.000000, 624.000000)">
                <g id="Group-19" transform="translate(0.000000, 119.000000)">
                    <g id="Group-25" transform="translate(515.000000, 353.000000)">
                        <g id="Group-3-Copy-2" stroke="#042C47" stroke-width="3">
                            <g id="Group-Copy">
                                <circle id="Oval" cx="52.5" cy="52.5" r="52.5"></circle>
                            </g>
                        </g>
                        <g id="005-cryptocurrency" transform="translate(24.000000, 28.000000)" fill="#042C47" fill-rule="nonzero">
                            <path d="M33.8272212,10.0834472 C34.1294787,10.3801815 34.6139942,10.3781733 34.9137411,10.0789283 C35.212986,9.77918136 35.2149943,9.29416375 34.9177578,8.99240848 L34.0792698,8.15392031 L40.806756,8.15392031 C41.2330294,8.15392031 41.5779643,7.80848329 41.5779643,7.38271208 C41.5779643,6.95694087 41.2330294,6.61150386 40.806756,6.61150386 L34.0792698,6.61150386 L34.9177578,5.77301568 C35.2149943,5.47126041 35.212986,4.9862428 34.9137411,4.68649589 C34.6139942,4.3872509 34.1294787,4.38524267 33.8272212,4.68197699 L31.6722566,6.83794589 C31.3710033,7.1391991 31.3710033,7.62773136 31.6722566,7.92848252 L33.8272212,10.0834472 Z" id="Path"></path>
                            <path d="M47.4192641,8.15392031 L47.5146609,8.15392031 C47.9404321,8.15392031 48.2858692,7.80848329 48.2858692,7.38271208 C48.2858692,6.95694087 47.9404321,6.61150386 47.5146609,6.61150386 L47.4192641,6.61150386 C46.9934929,6.61150386 46.6480559,6.95694087 46.6480559,7.38271208 C46.6480559,7.80848329 46.9934929,8.15392031 47.4192641,8.15392031 Z" id="Path"></path>
                            <path d="M45.657435,8.15392031 L45.719694,8.15392031 C46.1454652,8.15392031 46.4909022,7.80848329 46.4909022,7.38271208 C46.4909022,6.95694087 46.1454652,6.61150386 45.719694,6.61150386 L45.657435,6.61150386 C45.2311617,6.61150386 44.8862267,6.95694087 44.8862267,7.38271208 C44.8862267,7.80848329 45.2311617,8.15392031 45.657435,8.15392031 Z" id="Path"></path>
                            <path d="M43.1926815,8.15392031 L43.2218027,8.15392031 C43.6475739,8.15392031 43.9930109,7.80848329 43.9930109,7.38271208 C43.9930109,6.95694087 43.6475739,6.61150386 43.2218027,6.61150386 L43.1926815,6.61150386 C42.7664082,6.61150386 42.4214733,6.95694087 42.4214733,7.38271208 C42.4214733,7.80848329 42.7664082,8.15392031 43.1926815,8.15392031 Z" id="Path"></path>
                            <path d="M50.730037,41.8460797 C50.3042658,41.8460797 49.9588288,42.1915167 49.9588288,42.6172879 C49.9588288,43.0430591 50.3042658,43.3884961 50.730037,43.3884961 L50.8249317,43.3884961 C51.251205,43.3884961 51.59614,43.0430591 51.59614,42.6172879 C51.59614,42.1915167 51.251205,41.8460797 50.8249317,41.8460797 L50.730037,41.8460797 Z" id="Path"></path>
                            <path d="M48.9677057,41.8460797 C48.5419344,41.8460797 48.1964974,42.1915167 48.1964974,42.6172879 C48.1964974,43.0430591 48.5419344,43.3884961 48.9677057,43.3884961 L49.0299647,43.3884961 C49.4562379,43.3884961 49.8011729,43.0430591 49.8011729,42.6172879 C49.8011729,42.1915167 49.4562379,41.8460797 49.0299647,41.8460797 L48.9677057,41.8460797 Z" id="Path"></path>
                            <path d="M46.5029523,41.8460797 C46.0771811,41.8460797 45.7317441,42.1915167 45.7317441,42.6172879 C45.7317441,43.0430591 46.0771811,43.3884961 46.5029523,43.3884961 L46.5320734,43.3884961 C46.9583468,43.3884961 47.3032816,43.0430591 47.3032816,42.6172879 C47.3032816,42.1915167 46.9583468,41.8460797 46.5320734,41.8460797 L46.5029523,41.8460797 Z" id="Path"></path>
                            <path d="M33.9180992,41.0075915 C34.2193524,40.7063383 34.2193524,40.217806 33.9180992,39.9165528 C33.616846,39.6158018 33.1288159,39.6152996 32.8275627,39.9165528 L30.6725979,42.0720195 C30.3713447,42.3732728 30.3713447,42.8613031 30.6725979,43.1625563 L32.8275627,45.318023 C33.1288159,45.6192762 33.6173482,45.618774 33.9186014,45.318023 C34.2198546,45.0167698 34.2193524,44.5282375 33.9186014,44.2269843 L33.0796112,43.3884961 L44.1175289,43.3884961 C44.5433001,43.3884961 44.8887371,43.0430591 44.8887371,42.6172879 C44.8887371,42.1915167 44.5433001,41.8460797 44.1175289,41.8460797 L33.0796112,41.8460797 L33.9180992,41.0075915 Z" id="Path"></path>
                            <path d="M46.4025346,19.6728391 L48.5574992,21.8283058 C48.8587524,22.129559 49.3472847,22.129559 49.6485379,21.8283058 C49.9497911,21.5270526 49.9497911,21.0385203 49.6485379,20.7372671 L48.8095477,19.8987789 L50.3650185,19.8987789 C50.7907897,19.8987789 51.1362267,19.5533419 51.1362267,19.1275707 C51.1362267,18.7017995 50.7907897,18.3563625 50.3650185,18.3563625 L48.8095477,18.3563625 L49.6485379,17.5178743 C49.9497911,17.2166211 49.9497911,16.7280888 49.6485379,16.4268356 C49.3472847,16.1255824 48.8587524,16.1255824 48.5574992,16.4268356 L46.4025346,18.5823023 C46.1012814,18.8835555 46.1012814,19.3715859 46.4025346,19.6728391 L46.4025346,19.6728391 Z" id="Path"></path>
                            <path d="M56.4603752,19.8987789 L56.5552699,19.8987789 C56.9810411,19.8987789 57.3264781,19.5533419 57.3264781,19.1275707 C57.3264781,18.7017995 56.9810411,18.3563625 56.5552699,18.3563625 L56.4603752,18.3563625 C56.0341018,18.3563625 55.689167,18.7017995 55.689167,19.1275707 C55.689167,19.5533419 56.0341018,19.8987789 56.4603752,19.8987789 Z" id="Path"></path>
                            <path d="M54.6980438,19.8987789 L54.7603028,19.8987789 C55.186074,19.8987789 55.5315111,19.5533419 55.5315111,19.1275707 C55.5315111,18.7017995 55.186074,18.3563625 54.7603028,18.3563625 L54.6980438,18.3563625 C54.2717706,18.3563625 53.9268356,18.7017995 53.9268356,19.1275707 C53.9268356,19.5533419 54.2717706,19.8987789 54.6980438,19.8987789 Z" id="Path"></path>
                            <path d="M52.2332905,19.8987789 L52.2624116,19.8987789 C52.6881828,19.8987789 53.0336198,19.5533419 53.0336198,19.1275707 C53.0336198,18.7017995 52.6881828,18.3563625 52.2624116,18.3563625 L52.2332905,18.3563625 C51.8075193,18.3563625 51.4620823,18.7017995 51.4620823,19.1275707 C51.4620823,19.5533419 51.8075193,19.8987789 52.2332905,19.8987789 Z" id="Path"></path>
                            <path d="M56.131005,31.6436375 L56.1937661,31.6436375 C56.6195373,31.6436375 56.9649743,31.2982005 56.9649743,30.8724293 C56.9649743,30.4466581 56.6195373,30.1012211 56.1937661,30.1012211 L56.131005,30.1012211 C55.7052338,30.1012211 55.3597968,30.4466581 55.3597968,30.8724293 C55.3597968,31.2982005 55.7052338,31.6436375 56.131005,31.6436375 Z" id="Path"></path>
                            <path d="M53.6662517,31.6436375 L53.6953728,31.6436375 C54.121144,31.6436375 54.466581,31.2982005 54.466581,30.8724293 C54.466581,30.4466581 54.121144,30.1012211 53.6953728,30.1012211 L53.6662517,30.1012211 C53.2399783,30.1012211 52.8950434,30.4466581 52.8950434,30.8724293 C52.8950434,31.2982005 53.2399783,31.6436375 53.6662517,31.6436375 Z" id="Path"></path>
                            <path d="M46.818264,33.5731644 C47.1195172,33.8744176 47.6075474,33.8744176 47.9088006,33.5731644 C48.2100539,33.2719112 48.2100539,32.783881 47.9088006,32.4826278 L47.0703125,31.6441396 L51.7974775,31.6441396 C52.2237508,31.6441396 52.5686857,31.2987026 52.5686857,30.8729314 C52.5686857,30.4466581 52.2237508,30.1017231 51.7974775,30.1017231 L47.0703125,30.1017231 L47.9088006,29.2627329 C48.2100539,28.9614797 48.2100539,28.4734496 47.9088006,28.1721964 C47.6075474,27.8709432 47.1195172,27.8709432 46.818264,28.1721964 L44.6632994,30.3271609 C44.3620461,30.6284141 44.3620461,31.1169465 44.6632994,31.4181997 L46.818264,33.5731644 Z" id="Path"></path>
                            <path d="M27.0209069,3.14910026 C27.0188986,1.44601542 25.6391589,0.0662757069 23.936074,0.0642673522 L3.0848329,0.0642673522 C1.38174807,0.0662757069 0.00200835476,1.44601542 0,3.14910026 L0,3.94892751 L27.0209069,3.94892751 L27.0209069,3.14910026 Z" id="Path"></path>
                            <path d="M27.0209069,38.6578165 C25.187279,38.1702884 23.47114,37.3177418 21.9754177,36.1513897 L21.9754177,38.8817481 C21.9754177,39.3075193 21.6299807,39.6529563 21.2042095,39.6529563 L18.7530126,39.6529563 C18.3272414,39.6529563 17.9818044,39.3075193 17.9818044,38.8817481 L17.9818044,9.73801015 C17.9818044,9.31223895 18.3272414,8.96680193 18.7530126,8.96680193 L21.2037075,8.96680193 C21.6294787,8.96680193 21.9749157,9.31223895 21.9749157,9.73801015 L21.9749157,13.6005784 C22.2159183,13.4132994 22.4619416,13.2310411 22.7154964,13.0593267 C24.0299647,12.165609 25.4850177,11.4993373 27.0204049,11.0881266 L27.0204049,5.49134396 L0,5.49134396 L0,41.5950353 L27.0209069,41.5950353 L27.0209069,38.6578165 Z" id="Path"></path>
                            <path d="M3.0848329,49.9357326 L23.936074,49.9357326 C25.6391589,49.9337243 27.0188986,48.5539846 27.0209069,46.8508997 L27.0209069,43.1374518 L0,43.1374518 L0,46.8508997 C0.00200835476,48.5539846 1.38174807,49.9337243 3.0848329,49.9357326 Z M10.8682118,45.7653841 L16.1526952,45.7653841 C16.5784665,45.7653841 16.9239035,46.1108211 16.9239035,46.5365923 C16.9239035,46.9628656 16.5784665,47.3078005 16.1526952,47.3078005 L10.8682118,47.3078005 C10.4424406,47.3078005 10.0970036,46.9628656 10.0970036,46.5365923 C10.0970036,46.1108211 10.4424406,45.7653841 10.8682118,45.7653841 Z" id="Shape"></path>
                            <path d="M30.7197943,33.7403599 C35.6181716,33.7403599 39.5886889,29.7698425 39.5886889,24.8714653 C39.5886889,19.973088 35.6181716,16.0025707 30.7197943,16.0025707 C25.8214171,16.0025707 21.8508997,19.973088 21.8508997,24.8714653 C21.8564228,29.7673321 25.8239275,33.7348369 30.7197943,33.7403599 Z M27.0565553,24.9061094 L27.0565553,20.4565995 C27.0565553,20.0308283 27.4019923,19.6853913 27.8277635,19.6853913 L28.7029041,19.6853913 L28.7029041,18.9202081 C28.7029041,18.4944369 29.0483411,18.1489999 29.4741123,18.1489999 C29.8998835,18.1489999 30.2453206,18.4944369 30.2453206,18.9202081 L30.2453206,19.6858933 L30.808664,19.6858933 L30.808664,18.9202081 C30.808664,18.4944369 31.154101,18.1489999 31.5798722,18.1489999 C32.0056434,18.1489999 32.3510805,18.4944369 32.3510805,18.9202081 L32.3510805,19.8164364 C33.5586039,20.193505 34.3810251,21.3106523 34.3830334,22.5754138 L34.3830334,22.7872951 C34.3830334,23.5921433 34.0471361,24.3603391 33.4556756,24.9061094 C34.0471361,25.4518798 34.3835355,26.2200756 34.3830334,27.0249237 L34.3830334,27.2363031 C34.3815271,28.5015666 33.5586039,29.6192159 32.3510805,29.9962846 L32.3510805,30.8232247 C32.3510805,31.2489959 32.0056434,31.5944329 31.5798722,31.5944329 C31.154101,31.5944329 30.808664,31.2489959 30.808664,30.8232247 L30.808664,30.1263254 L30.2453206,30.1263254 L30.2453206,30.8232247 C30.2453206,31.2489959 29.8998835,31.5944329 29.4741123,31.5944329 C29.0483411,31.5944329 28.7029041,31.2489959 28.7029041,30.8232247 L28.7029041,30.1263254 L27.8277635,30.1263254 C27.4019923,30.1263254 27.0565553,29.7808884 27.0565553,29.3551172 L27.0565553,24.9061094 Z" id="Shape"></path>
                            <path d="M32.840617,27.2363031 L32.840617,27.0244216 C32.8396129,26.2808283 32.2366042,25.6783219 31.4930109,25.6773176 L28.5989717,25.6773176 L28.5989717,28.583909 L31.4930109,28.583909 C32.2366042,28.5829049 32.8396129,27.9803985 32.840617,27.2363031 Z" id="Path"></path>
                            <path d="M23.5821015,14.3351342 C23.1282134,14.6439188 22.6949108,14.9813224 22.2847044,15.3458387 L22.7134882,15.7746224 C22.9128174,15.9684287 22.9921473,16.2546193 22.9213528,16.5232366 C22.8505584,16.7923562 22.6406852,17.0022293 22.3715657,17.0730238 C22.1029483,17.1438183 21.8167577,17.0644883 21.6229514,16.8651591 L21.1946698,16.4368774 C21.0058844,16.649763 20.8226221,16.8676695 20.6478952,17.0931073 C20.227647,17.6383756 19.8520847,18.2162797 19.5247229,18.8217987 L19.5247229,30.9211319 C19.8525868,31.5266509 20.2281491,32.1050571 20.6488995,32.6503253 C20.8236262,32.8767674 21.0053824,33.095678 21.1931635,33.3075594 L21.6229514,32.8777715 C21.9252089,32.5835476 22.4077161,32.5870622 22.7059568,32.8853028 C23.0041974,33.1835436 23.0077121,33.6660508 22.7134882,33.9683082 L22.282194,34.3996023 C24.4065311,36.2919746 27.1082704,37.4106283 29.9485861,37.5733049 L29.9485861,36.9652756 C29.9485861,36.5395044 30.2940231,36.1940674 30.7197943,36.1940674 C31.1455656,36.1940674 31.4910026,36.5395044 31.4910026,36.9652756 L31.4910026,37.5723008 C34.3288078,37.4020927 37.0270324,36.282435 39.1518717,34.3935772 L38.7266027,33.9683082 C38.4323787,33.6660508 38.4358933,33.1835436 38.7341339,32.8853028 C39.0323747,32.5870622 39.5148819,32.5835476 39.8171393,32.8777715 L40.2424085,33.3030406 C42.130764,31.1782013 43.2504217,28.4804788 43.4206298,25.6426735 L42.8136046,25.6426735 C42.3878334,25.6426735 42.0423964,25.2972365 42.0423964,24.8714653 C42.0423964,24.4456941 42.3878334,24.1002571 42.8136046,24.1002571 L43.4206298,24.1002571 C43.2504217,21.2624518 42.130764,18.5642272 40.2419063,16.4393879 L39.8166373,16.8646569 C39.5143798,17.158881 39.0318726,17.1553663 38.7336319,16.8571257 C38.4353913,16.558885 38.4318766,16.0763778 38.7261005,15.7741203 L39.1513697,15.3488512 C37.0265303,13.4604956 34.3288078,12.3408379 31.4910026,12.1706298 L31.4910026,12.777655 C31.4910026,13.2034262 31.1455656,13.5488632 30.7197943,13.5488632 C30.2940231,13.5488632 29.9485861,13.2034262 29.9485861,12.777655 L29.9485861,12.1721361 C27.6701077,12.3051896 25.469955,13.0527996 23.5821015,14.3351342 L23.5821015,14.3351342 Z M30.7197943,14.4601542 C36.469714,14.4601542 41.1311054,19.1215456 41.1311054,24.8714653 C41.1311054,30.621385 36.469714,35.2827763 30.7197943,35.2827763 C24.9698747,35.2827763 20.3084833,30.621385 20.3084833,24.8714653 C20.3150104,19.124056 24.9723851,14.4666814 30.7197943,14.4601542 Z" id="Shape"></path>
                            <path d="M32.840617,22.7872951 L32.840617,22.5754138 C32.8396129,21.8318203 32.2371064,21.2293139 31.4930109,21.2278077 L28.5989717,21.2278077 L28.5989717,24.1349012 L31.4930109,24.1349012 C32.2371064,24.1333949 32.8396129,23.5308884 32.840617,22.7872951 Z" id="Path"></path>
                            <path d="M19.5242208,38.1105398 L20.4324992,38.1105398 L20.4324992,34.7585958 C20.1151792,34.4277193 19.8124197,34.0797719 19.5242208,33.7152555 L19.5242208,38.1105398 Z" id="Path"></path>
                            <path d="M19.5242208,10.5092184 L19.5242208,16.0291814 C19.8109134,15.6671754 20.1136729,15.3197301 20.4324992,14.9878495 L20.4324992,10.5092184 L19.5242208,10.5092184 Z" id="Path"></path>
                        </g>
                    </g>
                </g>
            </g>
        </g>
    </g>
</svg>