<?xml version="1.0" encoding="UTF-8"?>
<svg width="88px" height="28px" viewBox="0 0 88 28" version="1.1" xmlns="http://www.w3.org/2000/svg" xmlns:xlink="http://www.w3.org/1999/xlink">
    <!-- Generator: sketchtool 53 (72520) - https://sketchapp.com -->
    <title>0459690E-75B7-406C-BBB9-2A3381F06850</title>
    <desc>Created with sketchtool.</desc>
    <g id="Desktop-Final" stroke="none" stroke-width="1" fill="none" fill-rule="evenodd">
        <g id="Buyers-Trades" transform="translate(-991.000000, -355.000000)">
            <g id="Group-28" transform="translate(281.000000, 212.000000)">
                <g id="Group-26" transform="translate(80.000000, 131.000000)">
                    <g id="Group-27" transform="translate(630.000000, 12.000000)">
                        <text id="Google-Play-Gift-Car" font-family="Poppins-Regular, Poppins" font-size="10" font-weight="normal" letter-spacing="0.06875" fill="#F2F0F0">
                            <tspan x="28" y="12">Google Play</tspan>
                            <tspan x="28" y="27" font-size="8">Gift Cards</tspan>
                        </text>
                        <g id="google-play" fill="#FFFFFF" fill-rule="nonzero">
                            <path d="M4.37530735,0.361193958 C3.64019932,-0.0783300435 2.76408878,-0.117632567 2,0.248268396 L14.8111661,13 L19,8.82009353 L4.37530735,0.361193958 Z M0.247481646,2 C0.0865630869,2.33284184 0,2.70308773 0,3.08417538 L0,25.9266664 C0,26.3093803 0.0871179785,26.6742053 0.249701212,27 L13,14.4848215 L0.247481646,2 Z M14.8052383,15 L2,27.7756137 C2.33979913,27.9318531 2.7013588,28 3.06236051,28 C3.50817251,28 3.95286858,27.8941783 4.35571747,27.6537249 L19,19.1746931 L14.8052383,15 Z M24.7673028,12.3646232 C24.762176,12.3612927 24.7564796,12.3579623 24.7513529,12.3551869 L20.6009684,10 L16,14.5044406 L20.6038166,19 C20.6038166,19 24.762176,16.6375971 24.7673028,16.6348218 C25.5391626,16.1779943 26,15.3797952 26,14.4994449 C26,13.6190946 25.5391626,12.8208955 24.7673028,12.3646232 Z" id="Shape"></path>
                        </g>
                    </g>
                </g>
            </g>
        </g>
    </g>
</svg>