<?xml version="1.0" encoding="UTF-8"?>
<svg width="25px" height="25px" viewBox="0 0 25 25" version="1.1" xmlns="http://www.w3.org/2000/svg" xmlns:xlink="http://www.w3.org/1999/xlink">
    <!-- Generator: sketchtool 53 (72520) - https://sketchapp.com -->
    <title>15FABC38-EDA3-478B-9AC2-A804FBEFFCC0</title>
    <desc>Created with sketchtool.</desc>
    <defs>
        <circle id="path-1" cx="12.5" cy="12.5" r="12.5"></circle>
    </defs>
    <g id="Desktop-Final" stroke="none" stroke-width="1" fill="none" fill-rule="evenodd">
        <g id="Settings-Phone-#" transform="translate(-786.000000, -482.000000)">
            <g id="Group-19" transform="translate(149.000000, 280.000000)">
                <g id="Group-29" transform="translate(599.000000, 202.000000)">
                    <g id="Group-28">
                        <g id="maps-and-flags" transform="translate(38.000000, 0.000000)">
                            <mask id="mask-2" fill="white">
                                <use xlink:href="#path-1"></use>
                            </mask>
                            <use id="Mask" fill="#D8D8D8" xlink:href="#path-1"></use>
                            <g mask="url(#mask-2)">
                                <g transform="translate(13.500000, 13.000000) rotate(-8.000000) translate(-13.500000, -13.000000) translate(-12.000000, -3.000000)">
                                    <path d="M50.4545455,30.0527915 C33.7878462,36.7981197 17.1212447,23.3074633 0.454545455,30.0527915 C0.454545455,20.6842638 0.454545455,11.3156387 0.454545455,1.94720853 C17.1212447,-4.79811968 33.7878462,8.69253674 50.4545455,1.94720853 C50.4545455,11.3157362 50.4545455,20.6842638 50.4545455,30.0527915 Z" id="Path" fill="#FFFFFF" fill-rule="nonzero"></path>
                                    <path d="M0.454545455,11.0913959 C17.1212447,4.47979728 33.7878462,17.7029945 50.4545455,11.0913959 L50.4545455,1.90860412 C33.7878462,8.52020272 17.1212447,-4.70299449 0.454545455,1.90860412" id="Path" fill="#F4C653" fill-rule="nonzero"></path>
                                    <path d="M0.454545455,30.0913959 C17.1212447,23.4797973 33.7878462,36.7029945 50.4545455,30.0913959 L50.4545455,20.9086041 C33.7878462,27.5202027 17.1212447,14.2970055 0.454545455,20.9086041" id="Path" fill="#87E87C" fill-rule="nonzero"></path>
                                    <g id="Group" stroke-width="1" fill="none" fill-rule="evenodd" transform="translate(20.454545, 12.000000)">
                                        <path d="M4.01916049,1.59417284 C4.13718519,1.99841975 4.19832099,2.40246914 4.2422716,2.80661728 C4.28404938,3.2108642 4.30340741,3.61491358 4.30380247,4.01906173 C4.3042963,4.42330864 4.28474074,4.82735802 4.24306173,5.23150617 C4.19920988,5.63575309 4.13777778,6.03980247 4.01916049,6.44395062 C3.90044444,6.0397037 3.83911111,5.63565432 3.79525926,5.23150617 C3.75358025,4.82725926 3.73412346,4.42320988 3.73441975,4.01906173 C3.73471605,3.61481481 3.7542716,3.21076543 3.79595062,2.80661728 C3.84,2.40246914 3.9011358,1.99832099 4.01916049,1.59417284 Z" id="Path" fill="#53BEF4" fill-rule="nonzero"></path>
                                        <path d="M5.73392593,2.30439506 C5.53155556,2.67367901 5.28898765,3.0025679 5.0342716,3.31950617 C4.77797531,3.6348642 4.50597531,3.93432099 4.22044444,4.22034568 C3.93501235,4.50646914 3.63535802,4.77837037 3.32009877,5.03476543 C3.00335802,5.28958025 2.67407407,5.53195062 2.30439506,5.73382716 C2.50637037,5.36414815 2.74864198,5.03496296 3.00345679,4.71812346 C3.25975309,4.4028642 3.53165432,4.10320988 3.81787654,3.81777778 C4.10390123,3.53224691 4.40335802,3.26014815 4.71871605,3.00395062 C5.03565432,2.74933333 5.36464198,2.50676543 5.73392593,2.30439506 Z" id="Path" fill="#53BEF4" fill-rule="nonzero"></path>
                                        <path d="M6.44414815,4.01916049 C6.03990123,4.13718519 5.63585185,4.19832099 5.2317037,4.2422716 C4.82745679,4.28404938 4.42340741,4.30340741 4.01925926,4.30380247 C3.61501235,4.3042963 3.21096296,4.28474074 2.80681481,4.24296296 C2.4025679,4.19911111 1.99851852,4.13767901 1.59437037,4.01906173 C1.99861728,3.90034568 2.40266667,3.83901235 2.80681481,3.79516049 C3.21106173,3.75348148 3.61511111,3.73402469 4.01925926,3.73441975 C4.42350617,3.73471605 4.82755556,3.7542716 5.2317037,3.79595062 C5.63585185,3.84009877 6.03990123,3.9011358 6.44414815,4.01916049 Z" id="Path" fill="#53BEF4" fill-rule="nonzero"></path>
                                        <path d="M5.73392593,5.73392593 C5.36464198,5.53155556 5.03575309,5.28898765 4.71881481,5.0342716 C4.40345679,4.77797531 4.104,4.50597531 3.81797531,4.22044444 C3.53185185,3.93501235 3.25995062,3.63535802 3.00355556,3.32009877 C2.74874074,3.00335802 2.50637037,2.67407407 2.30449383,2.30439506 C2.67417284,2.50617284 3.00335802,2.74864198 3.32019753,3.00345679 C3.63545679,3.25975309 3.93511111,3.53175309 4.22054321,3.81787654 C4.50607407,4.10390123 4.77817284,4.40335802 5.03437037,4.71871605 C5.28888889,5.03565432 5.53145679,5.36464198 5.73392593,5.73392593 Z" id="Path" fill="#53BEF4" fill-rule="nonzero"></path>
                                        <path d="M4.01916049,7.94874074 C1.85234568,7.94874074 0.0895802469,6.18587654 0.0895802469,4.01916049 C0.0895802469,1.85234568 1.85244444,0.0895802469 4.01916049,0.0895802469 C6.18597531,0.0895802469 7.94874074,1.85244444 7.94874074,4.01916049 C7.94874074,6.18587654 6.18587654,7.94874074 4.01916049,7.94874074 Z M4.01916049,0.658962963 C2.16641975,0.658962963 0.659061728,2.16632099 0.659061728,4.01906173 C0.659061728,5.87190123 2.16641975,7.37916049 4.01916049,7.37916049 C5.872,7.37916049 7.37925926,5.87180247 7.37925926,4.01906173 C7.37925926,2.16632099 5.87190123,0.658962963 4.01916049,0.658962963 Z" id="Shape" fill="#53BEF4" fill-rule="nonzero"></path>
                                    </g>
                                </g>
                            </g>
                        </g>
                    </g>
                </g>
            </g>
        </g>
    </g>
</svg>