<?xml version="1.0" encoding="UTF-8"?>
<svg width="109px" height="109px" viewBox="0 0 109 109" version="1.1" xmlns="http://www.w3.org/2000/svg" xmlns:xlink="http://www.w3.org/1999/xlink">
    <!-- Generator: sketchtool 53 (72520) - https://sketchapp.com -->
    <title>9FA2657F-F2C0-4EA6-A82C-58B8A64F1001</title>
    <desc>Created with sketchtool.</desc>
    <g id="Desktop-Final" stroke="none" stroke-width="1" fill="none" fill-rule="evenodd">
        <g id="How-to-Buy-Bitcoin" transform="translate(-1087.000000, -1094.000000)">
            <g id="Group-21" transform="translate(170.000000, 624.000000)">
                <g id="Group-19" transform="translate(0.000000, 119.000000)">
                    <g id="Group-26" transform="translate(919.000000, 353.000000)">
                        <g id="003-payment-method-copy" stroke="#042C47" stroke-width="3">
                            <circle id="Oval" cx="52.5" cy="52.5" r="52.5"></circle>
                        </g>
                        <g id="006-thumbs-up" transform="translate(28.000000, 28.000000)" fill="#042C47" fill-rule="nonzero">
                            <path d="M27.2947368,29.2455166 L22.4520468,29.2455166 L23.501462,27.2986355 C24.2455166,25.9183236 24.2587719,24.6551657 23.8411306,23.6804094 C23.5987329,23.1147173 23.2170565,22.654386 22.744347,22.32154 C22.2831384,21.9967836 21.7347953,21.7968811 21.1462963,21.7432749 C20.068616,21.6451267 18.8690058,22.0469786 17.8973684,23.0986355 L12.2178363,29.2455166 L9.16179337,29.2455166 L9.16179337,48.4462963 L20.4807018,48.4462963 C21.4471735,48.4462963 22.3246589,48.0520468 22.9599415,47.4167641 C23.5952242,46.7815789 23.9894737,45.9039961 23.9894737,44.9375244 C23.9894737,44.7577973 23.9756335,44.5808967 23.9488304,44.4077973 C24.6981481,44.2902534 25.3701754,43.9342105 25.8838207,43.4205653 C26.5191033,42.7853801 26.9133528,41.9077973 26.9133528,40.9413255 C26.9133528,40.6317739 26.872807,40.331384 26.7969786,40.0451267 C27.1849903,39.8691033 27.535575,39.6244639 27.8331384,39.3269981 C28.4684211,38.6918129 28.8626706,37.81423 28.8626706,36.8477583 C28.8626706,36.5369396 28.8218324,36.2353801 28.7453216,35.9480507 C29.1302144,35.7722222 29.4782651,35.5289474 29.7736842,35.2334308 C30.4089669,34.5981481 30.8032164,33.7206628 30.8032164,32.754191 C30.8032164,31.7877193 30.4088694,30.9102339 29.7736842,30.2749513 C29.138694,29.6397661 28.2611111,29.2455166 27.2947368,29.2455166 Z" id="Path"></path>
                            <path d="M4.57660819,27.6814815 L1.4619883,27.6814815 C0.657894737,27.6814815 0,28.3393762 0,29.1434698 L0,48.4417154 C0,49.245809 0.657894737,49.9037037 1.4619883,49.9037037 L4.57670565,49.9037037 C5.38079922,49.9037037 6.03869396,49.245809 6.03869396,48.4417154 L6.03869396,29.1434698 C6.03859649,28.3393762 5.38070175,27.6814815 4.57660819,27.6814815 Z" id="Path"></path>
                            <path d="M26.9449318,2.48820663 C26.3096491,3.12339181 25.9153996,4.00097466 25.9153996,4.96744639 C25.9153996,5.14717349 25.9292398,5.32417154 25.9560429,5.49717349 C25.2067251,5.61471735 24.5346979,5.97076023 24.0210526,6.48440546 C23.38577,7.11959064 22.9915205,7.99717349 22.9915205,8.96364522 C22.9915205,9.27319688 23.0319688,9.57348928 23.1078947,9.85974659 C22.719883,10.03577 22.3692982,10.2804094 22.0717349,10.5779727 C21.4364522,11.2131579 21.0422027,12.0907407 21.0422027,13.0572125 C21.0422027,13.3680312 21.0830409,13.6695906 21.1595517,13.9569201 C20.7746589,14.1327485 20.4267057,14.3760234 20.1310916,14.67154 C19.495809,15.3068226 19.1015595,16.184308 19.1015595,17.1507797 C19.1015595,18.1172515 19.4959064,18.9947368 20.1310916,19.6300195 C20.7662768,20.2653021 21.6438596,20.6595517 22.6103314,20.6595517 L27.452924,20.6595517 L26.4035088,22.6064327 C25.6594542,23.9867446 25.6461988,25.2499025 26.0638402,26.2246589 C26.3062378,26.7903509 26.6879142,27.2506823 27.1606238,27.5835283 C27.6218324,27.9082846 28.1701754,28.1081871 28.7586745,28.1617934 C29.8362573,28.2599415 31.0359649,27.8580897 32.0076023,26.8064327 L37.6871345,20.6595517 L40.7431774,20.6595517 L40.7431774,1.45877186 L29.4240741,1.45877193 C28.4576998,1.458577 27.580117,1.85292398 26.9449318,2.48820663 Z" id="Path"></path>
                            <path d="M48.442885,0.00116959064 L45.3281676,0.00116959064 C44.5240741,0.00116959064 43.8661793,0.659064327 43.8661793,1.46315789 L43.8661793,20.7614035 C43.8661793,21.5654971 44.5240741,22.2233918 45.3281676,22.2233918 L48.442885,22.2233918 C49.2469786,22.2233918 49.9048733,21.5654971 49.9048733,20.7614035 L49.9048733,1.46315789 C49.9048733,0.659064327 49.2469786,0.00116959064 48.442885,0.00116959064 Z" id="Path"></path>
                        </g>
                    </g>
                </g>
            </g>
        </g>
    </g>
</svg>