<?xml version="1.0" encoding="UTF-8"?>
<svg width="56px" height="51px" viewBox="0 0 56 51" version="1.1" xmlns="http://www.w3.org/2000/svg" xmlns:xlink="http://www.w3.org/1999/xlink">
    <!-- Generator: sketchtool 53 (72520) - https://sketchapp.com -->
    <title>28DCC4F5-C447-411C-8361-1B9B623A4CB7</title>
    <desc>Created with sketchtool.</desc>
    <defs>
        <polygon id="path-1" points="0 0.178695652 49.458913 0.178695652 49.458913 49.6373913 0 49.6373913"></polygon>
        <polygon id="path-3" points="0.315507246 0.2875 22.7688406 0.2875 22.7688406 49.5288043 0.315507246 49.5288043"></polygon>
    </defs>
    <g id="Desktop-Final" stroke="none" stroke-width="1" fill="none" fill-rule="evenodd">
        <g id="Home" transform="translate(-201.000000, -7.000000)">
            <g id="Group-29" transform="translate(0.000000, -1.000000)">
                <g id="Group-23" transform="translate(201.000000, 8.000000)">
                    <g id="Group-7" transform="translate(0.000000, 1.000000)">
                        <mask id="mask-2" fill="white">
                            <use xlink:href="#path-1"></use>
                        </mask>
                        <g id="Clip-6"></g>
                        <path d="M24.7295652,45.4913768 C13.3799275,45.4913768 4.14623188,36.2580435 4.14623188,24.9080435 C4.14623188,13.5584058 13.3799275,4.32507246 24.7295652,4.32507246 C36.0792029,4.32507246 45.3128986,13.5584058 45.3128986,24.9080435 C45.3128986,36.2580435 36.0792029,45.4913768 24.7295652,45.4913768 M24.7295652,0.178695652 C11.0936957,0.178695652 -0.000144927536,11.2721739 -0.000144927536,24.9080435 C-0.000144927536,38.543913 11.0936957,49.6373913 24.7295652,49.6373913 C38.3654348,49.6373913 49.458913,38.543913 49.458913,24.9080435 C49.458913,11.2721739 38.3654348,0.178695652 24.7295652,0.178695652" id="Fill-5" fill="#104F8E" mask="url(#mask-2)"></path>
                    </g>
                    <path d="M23.99926,45 C15.973278,42.0735371 10.2342494,34.4370124 10.2342494,25.5003657 C10.2342494,16.5629876 15.973648,8.92609715 24,6 C17.0077905,6.41984246 10.984974,10.4445518 7.81853687,16.2170199 C6.64971531,19.0886253 6,22.2202551 6,25.5003657 C6,28.7804764 6.64971531,31.9117404 7.81853687,34.7837116 C10.984974,40.555814 17.0077905,44.5805233 23.99926,45" id="Fill-8" fill="#E7B022"></path>
                    <g id="Group-12" transform="translate(33.000000, 0.000000)">
                        <mask id="mask-4" fill="white">
                            <use xlink:href="#path-3"></use>
                        </mask>
                        <g id="Clip-11"></g>
                        <path d="M0.316231884,0.2875 C7.53471014,2.69655797 13.3488406,8.1932971 16.1865217,15.2063406 C17.739058,18.0987319 18.6223913,21.4016304 18.6223913,24.9081522 C18.6223913,28.4143116 17.7394203,31.7172101 16.1868841,34.6096014 C13.3492029,41.6230072 7.53471014,47.1197464 0.315507246,49.5288043 C12.887971,48.3755435 22.7691304,37.7766304 22.7691304,24.9081522 C22.7691304,12.0403986 12.8883333,1.44112319 0.316231884,0.2875" id="Fill-10" fill="#E7B022" mask="url(#mask-4)"></path>
                    </g>
                    <path d="M17.2699916,17.0342088 C17.6933221,17.0342088 18.0117688,17.1453876 18.2260216,17.367745 C18.4406195,17.5901024 19.1930921,18.5427441 20.4841294,20.2249265 C21.7962125,18.513741 22.5597255,17.5492006 22.7739784,17.329446 C22.9882312,17.1100632 23.3070229,17 23.7303534,17 C24.1429886,17 24.4607452,17.1141534 24.6825884,17.3420884 C24.8944261,17.5588683 25,17.8838522 25,18.317412 L25,18.3772775 C25,18.8621506 24.7753968,19.3154176 24.3255003,19.7374506 L22.1667561,22.4827097 L24.3337806,25.2030558 C24.7781569,25.65372 25,26.0872799 25,26.5033634 C25,26.5319947 24.9972399,26.5632289 24.9924097,26.5974377 L24.9924097,26.7086164 C24.9924097,27.1135449 24.8892509,27.4217963 24.6825884,27.6326268 C24.4500498,27.8665112 24.127118,27.9776899 23.7144829,27.9657912 C23.280457,27.9717405 22.954075,27.8534969 22.7343019,27.6110604 C22.5145289,27.3686239 21.7755118,26.4234189 20.5158706,24.7754454 C19.2303534,26.4520502 18.4789159,27.4084102 18.2619029,27.6452692 C18.04489,27.8821282 17.719543,28 17.2858621,28 L17.253776,28 C16.8573564,28 16.5475351,27.8888213 16.3253469,27.6668357 C16.1135092,27.4556333 16.0079353,27.1477538 16.0079353,26.7428253 L16.0079353,26.6316466 C16.0024151,26.5974377 16,26.5662036 16,26.5375723 C16,26.1211169 16.2221881,25.6905317 16.6665644,25.2458169 L18.9288124,22.5172903 L16.6744997,19.7712876 C16.2249482,19.3496265 16,18.8963594 16,18.4114863 L16,18.3516209 C16,17.9184329 16.1059189,17.5930771 16.3174116,17.376669 C16.5395998,17.1483622 16.8573564,17.0342088 17.2699916,17.0342088" id="Fill-1" fill="#E6B021"></path>
                    <path d="M32.2696466,17.0342088 C32.6933221,17.0342088 33.0117688,17.1453876 33.2260216,17.367745 C33.4406195,17.5901024 34.1930921,18.5427441 35.4841294,20.2249265 C36.7962125,18.513741 37.5597255,17.5492006 37.7739784,17.329446 C37.9882312,17.1100632 38.3070229,17 38.7303534,17 C39.1429886,17 39.4604002,17.1141534 39.6825884,17.3420884 C39.8944261,17.5588683 40,17.8838522 40,18.317412 L40,18.3772775 C40,18.8621506 39.7753968,19.3154176 39.3255003,19.7374506 L37.1667561,22.4827097 L39.3337806,25.2030558 C39.7781569,25.65372 40,26.0872799 40,26.5033634 C40,26.5319947 39.9972399,26.5632289 39.9924097,26.5974377 L39.9924097,26.7086164 C39.9924097,27.1135449 39.8892509,27.4217963 39.6825884,27.6326268 C39.4500498,27.8665112 39.127118,27.9776899 38.7144829,27.9657912 C38.280457,27.9717405 37.954075,27.8534969 37.7343019,27.6110604 C37.5145289,27.3686239 36.7751668,26.4234189 35.5158706,24.7754454 C34.2303534,26.4520502 33.4789159,27.4084102 33.2619029,27.6452692 C33.04489,27.8821282 32.719543,28 32.2858621,28 L32.253776,28 C31.8573564,28 31.5475351,27.8888213 31.3253469,27.6668357 C31.1135092,27.4556333 31.0079353,27.1477538 31.0079353,26.7428253 L31.0079353,26.6316466 C31.0024151,26.5974377 31,26.5662036 31,26.5375723 C31,26.1211169 31.2221881,25.6905317 31.6665644,25.2458169 L33.9288124,22.5172903 L31.6744997,19.7712876 C31.2249482,19.3496265 31,18.8963594 31,18.4114863 L31,18.3516209 C31,17.9184329 31.1055739,17.5930771 31.3174116,17.376669 C31.5395998,17.1483622 31.8573564,17.0342088 32.2696466,17.0342088" id="Fill-3" fill="#E6B021"></path>
                </g>
            </g>
        </g>
    </g>
</svg>