<?xml version="1.0" encoding="UTF-8"?>
<svg width="60px" height="29px" viewBox="0 0 60 29" version="1.1" xmlns="http://www.w3.org/2000/svg" xmlns:xlink="http://www.w3.org/1999/xlink">
    <!-- Generator: sketchtool 53 (72520) - https://sketchapp.com -->
    <title>64B5671C-2ABD-4587-9DF1-0FA4387D1117</title>
    <desc>Created with sketchtool.</desc>
    <defs>
        <polygon id="path-1" points="0.0872767383 0.032394958 16.2284981 0.032394958 16.2284981 16.1783257 0.0872767383 16.1783257"></polygon>
        <polygon id="path-3" points="0.00756302521 0.0563450367 36.2344755 0.0563450367 36.2344755 14.4882353 0.00756302521 14.4882353"></polygon>
        <polygon id="path-5" points="0.0430515693 0.0738309215 28.4165546 0.0738309215 28.4165546 8.10822823 0.0430515693 8.10822823"></polygon>
    </defs>
    <g id="Desktop-Final" stroke="none" stroke-width="1" fill="none" fill-rule="evenodd">
        <g id="Buyers-Trades" transform="translate(-361.000000, -355.000000)">
            <g id="Group-28" transform="translate(281.000000, 212.000000)">
                <g id="Group-26" transform="translate(80.000000, 131.000000)">
                    <g id="moneygram-white" transform="translate(0.000000, 12.000000)">
                        <g id="Group-3" transform="translate(21.806723, 0.000000)">
                            <mask id="mask-2" fill="white">
                                <use xlink:href="#path-1"></use>
                            </mask>
                            <g id="Clip-2"></g>
                            <path d="M9.29243697,4.43319328 C8.58239496,4.0637395 7.85042017,3.7657563 7.10659664,3.49638655 C6.45466387,3.26029412 6.45138655,3.25953782 6.13084034,3.87315126 C5.81016807,4.48676471 5.60546218,5.13642857 5.52138655,5.89134454 C6.70222689,5.12231092 7.88042017,4.48121849 9.29243697,4.43319328 Z M14.0504622,7.93411765 C14.3689916,7.51084034 14.5206303,7.04722689 14.3866387,6.51932773 C14.1854622,5.72533613 13.644958,5.24243697 12.9204202,4.93348739 C12.4996639,4.75411765 12.0526891,4.68453782 11.599916,4.66689076 C11.4355462,4.66058824 11.3391176,4.60878151 11.2667647,4.46117647 C11.1620168,4.24764706 11.0223529,4.05378151 10.8669328,3.87277311 C10.4647059,3.4047479 9.97663866,3.08760504 9.34865546,3.0302521 C9.01802521,3.00012605 8.70806723,3.06214286 8.4439916,3.2997479 C8.97756303,3.14760504 9.48491597,3.18894958 9.96113445,3.46701681 C10.434958,3.74357143 10.7556303,4.15109244 10.9880672,4.62869748 C10.9046218,4.70936975 10.8433613,4.70243697 10.7867647,4.70836134 C10.1084874,4.77970588 9.45579832,4.95226891 8.82907563,5.21798319 C8.1897479,5.4889916 7.59504202,5.83336134 7.10773109,6.33794118 C6.85588235,6.59861345 6.63302521,6.88033613 6.55134454,7.27878151 C6.82915966,6.78869748 7.18726891,6.41306723 7.62302521,6.11319328 C8.59121849,5.44663866 9.65155462,5.03306723 10.8341597,4.96109244 C11.1421008,4.94231092 11.1507983,4.93701681 11.2402941,5.22630252 C11.5252941,6.14735294 11.6136555,7.08642857 11.4816807,8.04403361 C11.4660504,8.15621849 11.4254622,8.26941176 11.4668067,8.38815126 C11.7357983,8.22088235 11.7520588,8.22252101 11.7823109,7.92151261 C11.8755882,6.99453782 11.9038235,6.06995798 11.5902101,5.17033613 C11.5719328,5.11777311 11.5314706,5.06558824 11.5729412,4.99411765 C11.8307143,4.9502521 12.0855882,5.01831933 12.3364286,5.07756303 C12.875042,5.20462185 13.3773529,5.4147479 13.7755462,5.81634454 C14.2831513,6.32823529 14.4481513,6.92117647 14.1776471,7.60966387 C14.135042,7.71781513 14.0928151,7.82596639 14.0504622,7.93411765 Z M9.99642857,2.03747899 C9.73903361,1.85747899 9.46348739,1.72411765 9.17331933,1.61571429 C8.37693277,1.31836134 7.61483193,1.3787395 6.87857143,1.80554622 C6.41016807,2.07705882 6.00390756,2.42130252 5.66294118,2.83915966 C5.55012605,2.97756303 5.44235294,3.02243697 5.26638655,2.97163866 C4.89932773,2.86563025 4.51764706,2.84735294 4.13798319,2.82529412 C3.96794118,2.81546218 3.93655462,2.85113445 3.99819328,2.99508403 C4.03058824,3.07096639 4.07735294,3.14117647 4.12172269,3.21138655 C4.22987395,3.38205882 4.34268908,3.54970588 4.44932773,3.7212605 C4.57537815,3.92407563 4.57348739,3.92558824 4.36890756,4.02189076 C4.31521008,4.04722689 4.2602521,4.06991597 4.20705882,4.0960084 C3.20861345,4.58483193 2.46756303,5.3237395 2.01957983,6.34739496 C1.99008403,6.41483193 1.94180672,6.47911765 1.98012605,6.59319328 C2.56726891,5.62235294 3.43852941,5.17563025 4.51978992,4.99726891 C4.13747899,6.47256303 4.16268908,7.91092437 4.43168067,9.35205882 C4.53289916,9.89420168 4.59932773,9.94285714 5.14777311,9.91978992 C5.19390756,9.91789916 5.23941176,9.90340336 5.29915966,9.89218487 C5.2657563,9.74470588 5.23386555,9.60680672 5.20336134,9.46852941 C4.87941176,7.99802521 4.82747899,6.52411765 5.17537815,5.05096639 C5.38840336,4.14869748 5.74487395,3.31096639 6.40121849,2.63256303 C7.0792437,1.93197479 7.90852941,1.62189076 8.88252101,1.71138655 C9.27542017,1.74756303 9.63365546,1.90235294 9.99642857,2.03747899 Z M7.50617647,12.0844538 C8.25970588,12.5371008 8.98310924,12.8870168 9.75012605,13.147563 C10.0996639,13.2661765 10.4541176,13.365 10.8190336,13.4159244 C11.3606723,13.4914286 11.3615546,13.485 11.4632773,12.9605042 C11.4656723,12.9489076 11.4680672,12.9371849 11.4692017,12.9253361 C11.4912605,12.6927731 11.6078571,12.5703782 11.8368908,12.4757143 C12.9345378,12.022563 13.8710924,11.3490756 14.5554202,10.3603361 C14.7226891,10.1188235 14.8841597,9.87189076 14.9853782,9.52537815 C14.2520168,10.5960504 13.2712185,11.1660504 12.0594958,11.3977311 C12.0548319,11.2454622 12.137395,11.1542017 12.190084,11.0542437 C12.4279412,10.6022269 12.6792857,10.1571429 12.9097059,9.70134454 C12.9695798,9.58285714 13.0889496,9.40134454 12.9772689,9.31071429 C12.8451681,9.20357143 12.7429412,9.40033613 12.6339076,9.47672269 C12.605042,9.49689076 12.5827311,9.52613445 12.5563866,9.55021008 C11.3444118,10.6617227 9.95281513,11.4514286 8.36294118,11.8830252 C8.1002521,11.9542437 7.83289916,12.0081933 7.50617647,12.0844538 Z M12.3211765,8.21911765 C12.6863445,7.89705882 12.8919328,7.58155462 12.9138655,7.29705882 C12.805084,7.45021008 12.7063866,7.59655462 12.6,7.73672269 C12.4869328,7.88571429 12.3663025,8.02878151 12.2494538,8.1744958 C12.2313025,8.18533613 12.2169328,8.19970588 12.2060924,8.21773109 C11.1065546,9.25336134 9.79978992,9.89584034 8.34264706,10.2513025 C6.93907563,10.5936555 5.52831933,10.6971429 4.10911765,10.3516387 C3.27705882,10.1490756 2.50651261,9.81831933 1.90323529,9.18668067 C1.26340336,8.51710084 1.04647059,7.72084034 1.26756303,6.81970588 C1.32844538,6.57138655 1.4402521,6.33567227 1.53403361,6.07978992 C0.752142857,7.1542437 0.756302521,8.3405042 1.53630252,9.38861345 C1.72172269,9.63781513 1.93512605,9.86067227 2.17537815,10.0573109 C2.88012605,10.6341176 3.68672269,10.9917227 4.57903361,11.1539496 C4.81689076,11.1971849 4.95957983,11.2934874 5.07516807,11.5268067 C5.85894958,13.1091176 7.05668067,14.2670168 8.69180672,14.9566387 C8.83953782,15.0189076 8.98676471,15.0917647 9.21516807,15.1222689 C7.605,14.2801261 5.95903361,12.3946639 5.8355042,11.262479 C7.79747899,11.2341176 9.51655462,10.4783193 11.1659244,9.43222689 C11.1564706,9.69403361 10.9908403,9.87352941 10.9563025,10.1039496 C11.1021429,10.0526471 11.2162185,9.99012605 11.2812605,9.86936975 C11.3711345,9.70235294 11.4738655,9.53785714 11.5328571,9.35962185 C11.6214706,9.09138655 11.772479,8.87886555 11.9751681,8.68638655 C12.0894958,8.57785714 12.252479,8.48848739 12.2533613,8.2937395 C12.2947059,8.28579832 12.3147479,8.25869748 12.3211765,8.21911765 Z M8.14638655,16.1783193 C3.4802521,16.1365966 0.0569747899,12.3117227 0.0874789916,8.07705882 C0.119243697,3.63957983 3.72907563,0.0245798319 8.16403361,0.032394958 C12.6138655,0.040210084 16.2356723,3.67714286 16.2284874,8.1305042 C16.2214286,12.5507143 12.5727731,16.1838655 8.14638655,16.1783193 L8.14638655,16.1783193 Z" id="Fill-1" fill="#FFFFFE" mask="url(#mask-2)"></path>
                        </g>
                        <path d="M36.6097059,15.0020168 C36.6097059,15.2665966 36.6109664,15.4655042 36.6089496,15.6644118 C36.6084454,15.7129412 36.592563,15.762605 36.532437,15.7622269 C36.4718067,15.7618487 36.4586975,15.7147059 36.4613445,15.6642857 C36.4808824,15.2963445 36.500042,14.9284034 36.522605,14.5607143 C36.5253782,14.5155882 36.5426471,14.4655462 36.6030252,14.4622689 C36.6584874,14.4591176 36.6908824,14.4952941 36.7081513,14.5413025 C36.7747059,14.7177731 36.8386134,14.895 36.9158824,15.1058824 C37.0847899,14.9513445 37.0783613,14.7507983 37.1560084,14.5927311 C37.1876471,14.5283193 37.2079412,14.4465126 37.2980672,14.4656723 C37.3609664,14.4790336 37.3760924,14.5455882 37.3791176,14.6086134 C37.3956303,14.9648319 37.4142857,15.3209244 37.4294118,15.6772689 C37.4307983,15.7091597 37.4236134,15.7483613 37.377479,15.7576891 C37.3177311,15.7696639 37.2840756,15.7356303 37.2809244,15.6864706 C37.2703361,15.5205882 37.2673109,15.3540756 37.2618908,15.1876891 C37.2602521,15.1390336 37.2539496,15.0902521 37.194958,15.0838235 C37.1396218,15.0777731 37.1218487,15.1237815 37.0965126,15.1646218 C37.0411765,15.2541176 37.0592017,15.3801681 36.9423529,15.4541597 C36.7738235,15.3734874 36.8577731,15.1191176 36.6097059,15.0020168" id="Fill-4" fill="#FFFFFE"></path>
                        <g id="Group-8" transform="translate(0.000000, 14.369748)">
                            <mask id="mask-4" fill="white">
                                <use xlink:href="#path-3"></use>
                            </mask>
                            <g id="Clip-6"></g>
                            <path d="M36.1769748,0.233067227 C36.0954202,0.258907563 36.0443697,0.220210084 35.9880252,0.208361345 C35.8658824,0.182773109 35.7441176,0.18302521 35.6960924,0.327983193 C35.6563866,0.447352941 35.7219328,0.532436975 35.8198739,0.593823529 C35.8797479,0.631512605 35.9455462,0.660252101 36.0039076,0.699957983 C36.2128992,0.841764706 36.2760504,0.991512605 36.2086134,1.17504202 C36.1371429,1.36941176 35.9693697,1.44995798 35.7139916,1.40798319 C35.6236134,1.39310924 35.5278151,1.38138655 35.4736134,1.26037815 C35.5902101,1.17428571 35.6943277,1.29088235 35.8005882,1.28117647 C35.899916,1.27210084 35.9944538,1.26642857 36.0351681,1.16105042 C36.077395,1.05151261 36.0565966,0.948781513 35.9582773,0.876680672 C35.882521,0.821092437 35.7976891,0.777731092 35.719916,0.724537815 C35.5208824,0.588529412 35.4651681,0.453529412 35.5322269,0.280714286 C35.6007983,0.103739496 35.784958,0.0176470588 36.0036555,0.0729831933 C36.0736134,0.0906302521 36.1743277,0.0932773109 36.1769748,0.233067227" id="Fill-5" fill="#FFFFFE" mask="url(#mask-4)"></path>
                            <path d="M23.0852521,9.35911765 C23.3282773,9.36277311 23.5484874,9.32848739 23.7548319,9.2389916 C24.1294538,9.07651261 24.3663025,8.68096639 24.3095798,8.33445378 C24.2636975,8.0539916 24.0666807,7.95567227 23.8196218,8.08953782 C23.7240756,8.14134454 23.6486975,8.21684874 23.58,8.29865546 C23.3251261,8.60205882 23.1608824,8.94756303 23.0852521,9.35911765 Z M12.9398319,8.97226891 C12.932395,8.73932773 12.9392017,8.56247899 12.8902941,8.38701681 C12.7566807,7.90852941 12.3666807,7.78033613 11.9713866,8.09130252 C11.7598739,8.25794118 11.6282773,8.48344538 11.5259244,8.72558824 C11.3112605,9.23357143 11.2013445,9.7662605 11.182437,10.3163445 C11.1744958,10.5413445 11.1872269,10.7672269 11.2852941,10.9781092 C11.4586134,11.3507143 11.792521,11.442479 12.1286975,11.2044958 C12.3182773,11.0702521 12.4382773,10.8791597 12.5338235,10.6723109 C12.7913445,10.1156723 12.9129832,9.52739496 12.9398319,8.97226891 Z M17.9430252,7.97710084 C18.2043277,7.61773109 18.5132773,7.30764706 18.8881513,7.06638655 C19.2466387,6.83558824 19.632479,6.70260504 20.0659664,6.72705882 C20.5885714,6.75668067 20.9290336,7.05794118 21.0068067,7.57852941 C21.0564706,7.91105042 21.0383193,8.24420168 20.9742857,8.57294118 C20.8309664,9.30756303 20.6805882,10.0406723 20.5333613,10.7745378 C20.5240336,10.8213025 20.5155882,10.8680672 20.5089076,10.9152101 C20.4683193,11.1998319 20.4685714,11.1998319 20.7881092,11.1912605 C20.6833613,9.50092437 21.3528151,8.19264706 22.7486975,7.26478992 C23.4221849,6.81718487 24.1936134,6.6739916 24.9993277,6.73436975 C25.3286975,6.75907563 25.6236555,6.87315126 25.8728571,7.09512605 C25.9503782,7.16407563 26.0268908,7.23428571 26.1083193,7.30802521 C26.2162185,7.15462185 26.1390756,6.92647059 26.2682773,6.84630252 C26.424958,6.7492437 26.6393697,6.81138655 26.8285714,6.80609244 C27.2567647,6.7942437 27.685084,6.78920168 28.1132773,6.78226891 C28.4040756,6.77735294 28.404958,6.77760504 28.5105882,7.06411765 C28.8083193,7.87197479 28.9571849,8.71361345 29.0737815,9.56218487 C29.0915546,9.6905042 29.1013866,9.81932773 29.1605042,9.96390756 C29.287437,9.87995798 29.3910504,9.78794118 29.4734874,9.67563025 C29.6702521,9.40739496 29.8736975,9.14294118 30.0535714,8.86361345 C30.3862185,8.34705882 30.370084,7.83264706 29.9960924,7.33903361 C29.8745798,7.17857143 29.7433613,7.02554622 29.6151681,6.86735294 C29.6664706,6.765 29.7617647,6.81441176 29.8337395,6.81277311 C30.4879412,6.79802521 31.142521,6.79726891 31.7964706,6.77521008 C31.9851681,6.76878151 32.072395,6.84201681 32.1394538,7.0047479 C32.2730672,7.32894958 32.2726891,7.6505042 32.1709664,7.98037815 C32.0533613,8.36231092 31.8439916,8.69407563 31.5957983,8.9989916 C30.9051681,9.84756303 30.2222269,10.7033193 29.4840756,11.5118067 C28.8097059,12.2504622 28.1521008,13.0008403 27.6153782,13.8494118 C27.5093697,14.0169328 27.4701681,14.2593277 27.2938235,14.3397479 C27.1331092,14.4131092 26.9197059,14.3696218 26.7297479,14.3809664 C26.1162605,14.417521 25.5028992,14.4557143 24.847563,14.4957983 C24.9486555,14.3415126 25.0736975,14.2733193 25.1836134,14.1931513 C25.8992017,13.6711765 26.5171008,13.0471008 27.0993277,12.3834454 C27.2430252,12.2197059 27.2962185,12.0511765 27.2778151,11.8331092 C27.1765966,10.6314706 26.9371008,9.45907563 26.5623529,8.31365546 C26.5438235,8.25718487 26.5218908,8.20184874 26.5007143,8.14638655 C26.4871008,8.11071429 26.46,8.09180672 26.4223109,8.08563025 C26.3582773,8.07516807 26.3396218,8.11878151 26.3302941,8.16655462 C26.3052101,8.2947479 26.2941176,8.42659664 26.2583193,8.55151261 C26.1260924,9.01361345 25.8484034,9.37815126 25.477437,9.67537815 C24.8068487,10.212605 24.0242017,10.4654622 23.1853361,10.5738655 C23.1271008,10.5813025 23.0689916,10.5883613 23.0006723,10.5968067 C23.0145378,10.8937815 23.2039916,11.0164286 23.4448739,11.0855042 C23.8120588,11.1907563 24.1784874,11.1259664 24.54,11.0537395 C25.172395,10.927563 25.7613025,10.6779832 26.3780672,10.3526471 C26.2797479,10.8722269 26.1903782,11.3469328 26.0997479,11.8213866 C26.0884034,11.8807563 26.0630672,11.919958 25.9944958,11.9447899 C24.9710924,12.3143697 23.9326891,12.6078151 22.8288655,12.5192017 C22.0609664,12.457563 21.3963025,12.187563 20.9679832,11.4968067 C20.9585294,11.4814286 20.9296639,11.4778992 20.8856723,11.457605 C20.8265546,11.7828151 20.7684454,12.1022269 20.7088235,12.429958 C19.780084,12.429958 18.8665966,12.429958 17.9132773,12.429958 C18.2160504,11.1737395 18.5315546,9.93844538 18.7565546,8.65638655 C18.5513445,8.69785714 18.4554202,8.82239496 18.3594958,8.93722689 C18.0010084,9.36668067 17.6669748,9.81441176 17.3671008,10.2869748 C17.2902101,10.4082353 17.2406723,10.5369328 17.2128151,10.6812605 C17.1114706,11.2060084 16.9944958,11.7277311 16.8888655,12.2515966 C16.8659244,12.3651681 16.8447479,12.4458403 16.6968908,12.4445798 C16.0077731,12.4381513 15.3187815,12.4416807 14.5939916,12.4416807 C14.9735294,10.9931092 15.2726471,9.55689076 15.5348319,8.12218487 C15.4261765,8.0557563 15.3346639,8.04794118 15.2431513,8.05689076 C15.2103782,8.08336134 15.2004202,8.11336134 15.2040756,8.15155462 C15.4015966,10.1905462 13.8702101,12.1826471 11.8517647,12.4970168 C11.3795798,12.5703782 10.9018487,12.5623109 10.4343277,12.4387815 C9.86180672,12.2872689 9.38319328,12.002395 9.08508403,11.4678151 C9.06302521,11.4284874 9.05004202,11.3790756 8.95928571,11.3757983 C8.90798319,11.667479 8.84823529,11.9633193 8.80701681,12.2616807 C8.78886555,12.3926471 8.74411765,12.4447059 8.60735294,12.4440756 C7.69222689,12.4395378 6.77710084,12.4416807 5.83764706,12.4416807 C5.90621849,12.0481513 6.04046218,11.6963445 6.13852941,11.3353361 C6.16222689,11.2482353 6.21844538,11.2241597 6.29357143,11.2191176 C6.43701681,11.2095378 6.49310924,11.1248319 6.52210084,10.9918487 C6.70096639,10.1708824 6.8855042,9.35130252 7.07457983,8.50273109 C6.90655462,8.5212605 6.87756303,8.63508403 6.8247479,8.71197479 C6.25991597,9.53546218 5.69193277,10.3571849 5.14109244,11.19 C5.01327731,11.3833613 4.87752101,11.4692017 4.64785714,11.4433613 C4.47163866,11.4236975 4.29138655,11.4403361 4.11289916,11.4393277 C3.80634454,11.4376891 3.80508403,11.437563 3.73752101,11.1531933 C3.58928571,10.5292437 3.44344538,9.90478992 3.29470588,9.28096639 C3.21542017,8.94869748 3.13210084,8.61743697 3.05193277,8.29096639 C2.91037815,8.2794958 2.94743697,8.38285714 2.93584034,8.43630252 C2.76302521,9.2252521 2.59348739,10.014958 2.42773109,10.8055462 C2.38928571,10.9892017 2.32071429,11.1922689 2.62310924,11.2339916 C2.72470588,11.2479832 2.68096639,11.3464286 2.6710084,11.4102101 C2.62676471,11.6920588 2.56852941,11.9720168 2.53563025,12.2548739 C2.51773109,12.4090336 2.45054622,12.4469748 2.30760504,12.4444538 C1.8912605,12.4371429 1.47478992,12.4419328 1.05844538,12.4419328 C0.715714286,12.4419328 0.372983193,12.4419328 0,12.4419328 C0.110168067,12.0547059 0.213151261,11.7027731 0.309579832,11.3490756 C0.342983193,11.2261765 0.435630252,11.2189916 0.531428571,11.2183613 C0.705378151,11.2173529 0.779495798,11.127479 0.812394958,10.9618487 C0.94210084,10.3095378 1.08453782,9.65987395 1.21689076,9.00819328 C1.38718487,8.16995798 1.55281513,7.33084034 1.71945378,6.49184874 C1.72865546,6.44571429 1.72865546,6.39768908 1.73281513,6.35205882 C1.35642857,6.19323529 1.35743697,6.19348739 1.42815126,5.77462185 C1.46168067,5.57546218 1.49697479,5.37617647 1.51953782,5.17563025 C1.53315126,5.0555042 1.58836134,5.01478992 1.70420168,5.01516807 C2.4894958,5.01768908 3.27478992,5.02134454 4.05995798,5.01289916 C4.24033613,5.01088235 4.23630252,5.13289916 4.26264706,5.24142857 C4.46722689,6.08394958 4.66613445,6.92773109 4.8744958,7.76936975 C4.96714286,8.14386555 5.02878151,8.52781513 5.16592437,8.89903361 C5.29865546,8.83071429 5.34176471,8.7137395 5.40705882,8.61857143 C6.17407563,7.5012605 6.94210084,6.38432773 7.69890756,5.26008403 C7.81764706,5.08386555 7.93953782,5.00584034 8.15697479,5.0110084 C8.7752521,5.02588235 9.39415966,5.01554622 10.0128151,5.01705882 C10.1065966,5.01718487 10.2028992,5.00042017 10.3169748,5.04983193 C10.2316387,5.41739496 10.1468067,5.78571429 10.059958,6.15352941 C10.0332353,6.26710084 9.9447479,6.30617647 9.84315126,6.29331933 C9.55689076,6.25701681 9.51151261,6.4639916 9.46852941,6.66214286 C9.31462185,7.37016807 9.16726891,8.07970588 9.01739496,8.78861345 C8.88478992,9.41609244 8.75218487,10.0436975 8.61970588,10.6711765 C8.60747899,10.7292857 8.59021008,10.7872689 8.58605042,10.8461345 C8.56121849,11.1959244 8.57432773,11.237395 8.9112605,11.2145798 C8.92222689,11.1954202 8.94617647,11.1729832 8.94214286,11.1578571 C8.79365546,10.6037395 8.89134454,10.0680252 9.08987395,9.55096639 C9.56747899,8.30710084 10.3498739,7.35088235 11.6587815,6.91285714 C12.3419748,6.68420168 13.037395,6.66214286 13.7343277,6.82487395 C14.3079832,6.95861345 14.8012185,7.22508403 15.0897479,7.84159664 C15.2116387,7.51827731 15.2131513,7.23605042 15.272395,6.96718487 C15.2979832,6.85134454 15.347521,6.81063025 15.4617227,6.8110084 C16.3052521,6.81365546 17.1487815,6.81239496 18.0220588,6.81239496 C17.9667227,7.18462185 17.8502521,7.55193277 17.7409664,7.9202521 C17.6965966,8.06760504 17.6134034,8.20789916 17.6505882,8.37226891 C17.6461765,8.37970588 17.6417647,8.38726891 17.6373529,8.39470588 C17.6421429,8.38752101 17.6469328,8.38046218 17.6517227,8.37340336 C17.7988235,8.27810924 17.8719328,8.12823529 17.9430252,7.97710084 L17.9430252,7.97710084 Z" id="Fill-7" fill="#FFFFFE" mask="url(#mask-4)"></path>
                        </g>
                        <path d="M44.7003782,24.8998739 C44.7176471,24.9664286 44.6605462,25.0846639 44.7766387,25.1305462 C44.874958,25.1694958 44.9570168,25.0961345 45.0328992,25.0421849 C45.2082353,24.9178992 45.3578571,24.7657563 45.4955042,24.6010084 C45.7854202,24.2541176 46.0215126,23.8680252 46.2934034,23.5094118 C46.5071849,23.227437 46.5526891,22.9060084 46.6254202,22.5843277 C46.6512605,22.4698739 46.6014706,22.4094958 46.4991176,22.3660084 C46.4096218,22.3276891 46.3192437,22.3085294 46.2236975,22.3043697 C45.8718908,22.2891176 45.6458824,22.4919328 45.467521,22.757521 C45.2081092,23.1439916 45.0313866,23.5723109 44.8831513,24.0110924 C44.7882353,24.2920588 44.7129832,24.5794538 44.7003782,24.8998739 Z M38.1826891,26.7712185 C38.2845378,26.3373529 38.3965966,25.9010924 38.4886134,25.4605462 C38.6803361,24.5426471 38.8595798,23.6221008 39.0486555,22.7036975 C39.082437,22.5393277 39.0778992,22.4209664 38.8668908,22.4188235 C38.702521,22.417437 38.6812185,22.3207563 38.707437,22.1810924 C38.7601261,21.9010084 38.8087815,21.619916 38.8478571,21.337437 C38.8647479,21.2154202 38.9248739,21.1811345 39.0366807,21.1813866 C39.8686134,21.1832773 40.7005462,21.182395 41.5667647,21.182395 C41.4444958,21.6586134 41.3193277,22.1459244 41.1864706,22.6638655 C41.3271429,22.6036134 41.3652101,22.5017647 41.4258403,22.4241176 C41.7133613,22.057437 42.024958,21.715084 42.4136975,21.4526471 C42.7234034,21.2435294 43.0545378,21.0884874 43.4401261,21.0971849 C43.5228151,21.0990756 43.6082773,21.1019748 43.6873109,21.1232773 C44.0079832,21.2097479 44.0362185,21.2784454 43.9314706,21.5934454 C43.8282353,21.9040336 43.6788655,22.2007563 43.610042,22.552563 C43.7759244,22.5018908 43.8308824,22.3742017 43.9143277,22.285084 C44.4644118,21.6966807 45.1033613,21.2683613 45.9139916,21.1327311 C46.1387395,21.095042 46.3663866,21.0719748 46.5886134,21.1078992 C47.335084,21.2282773 48.0836975,21.1662605 48.8320588,21.1583193 C48.9252101,21.157437 49.0205042,21.1318487 49.1412605,21.1859244 C49.0397899,21.5919328 48.9414706,22.0037395 48.8339496,22.4134034 C48.5832353,23.3681092 48.4401681,24.3443697 48.2490756,25.3109244 C48.2019328,25.5494118 48.2071008,25.5506723 48.4618487,25.5888655 C48.5082353,25.5959244 48.5548739,25.6003361 48.6282353,25.6091597 C48.6302521,25.9910924 48.5136555,26.3527311 48.4705462,26.7229412 C48.4622269,26.7935294 48.3988235,26.8118067 48.3365546,26.8119328 C47.4729832,26.8126891 46.6091597,26.812437 45.7153361,26.812437 C45.8357143,26.3572689 45.9584874,25.8930252 46.0918487,25.3889496 C45.9613866,25.4432773 45.9252101,25.5289916 45.8739076,25.594916 C45.6312605,25.9056303 45.3646639,26.192395 45.0465126,26.4272269 C44.8063866,26.6044538 44.5487395,26.7463866 44.2585714,26.8305882 C43.3806303,27.0855882 42.6792857,26.6331933 42.5620588,25.7243697 C42.4984034,25.2310084 42.5843697,24.7531513 42.7414286,24.2863866 C42.8437815,23.9819748 42.9714706,23.6877731 43.1331933,23.410084 C43.2021429,23.2917227 43.1779412,23.2159664 43.0627311,23.152437 C42.9010084,23.0633193 42.7387815,23.0222269 42.5509664,23.072395 C42.2897899,23.1422269 42.0756303,23.285042 41.8797479,23.4610084 C41.477521,23.8222689 41.1731092,24.2618067 40.8882353,24.7160924 C40.7635714,24.915 40.7703782,25.1495798 40.7202101,25.3677731 C40.629958,25.7610504 40.5640336,26.1598739 40.4846218,26.5557983 C40.4340756,26.8084034 40.4313025,26.8106723 40.1610504,26.8110504 C39.5306723,26.8120588 38.9004202,26.8102941 38.270042,26.8081513 C38.2486134,26.8080252 38.2271849,26.7905042 38.1826891,26.7712185 L38.1826891,26.7712185 Z" id="Fill-9" fill="#FFFFFE"></path>
                        <path d="M51.8263866,26.8116807 C52.0644958,25.5146218 52.4130252,24.2943277 52.6302101,23.0529832 C52.4644538,22.9890756 52.3943697,23.082479 52.3194958,23.1528151 C51.8465546,23.5967647 51.5106303,24.1464706 51.1557983,24.6806723 C51.0993277,24.7653782 51.0873529,24.8818487 51.0640336,24.9858403 C50.9426471,25.5303782 50.8211345,26.075042 50.7071849,26.6212185 C50.6822269,26.7407143 50.6498319,26.8145798 50.507521,26.8135714 C49.8671849,26.8087815 49.2267227,26.8114286 48.5594118,26.8114286 C48.6255882,26.5406723 48.6807983,26.2992857 48.7438235,26.0597899 C49.0165966,25.0256723 49.2001261,23.972521 49.4203361,22.9270588 C49.434958,22.8573529 49.4493277,22.7868908 49.4560084,22.7161765 C49.4778151,22.4834874 49.4706303,22.4759244 49.2265966,22.4155462 C49.1814706,22.4043277 49.1365966,22.3927311 49.0656303,22.374958 C49.1193277,22.032605 49.1728992,21.6970588 49.2243277,21.3611345 C49.2433613,21.237479 49.3012185,21.1794958 49.4368487,21.1802521 C50.2313445,21.185042 51.0255882,21.1827731 51.8510924,21.1827731 C51.7285714,21.657605 51.6052941,22.135084 51.4689076,22.6641176 C51.6114706,22.5791597 51.6529412,22.4730252 51.7162185,22.3909664 C52.0777311,21.9230672 52.5090756,21.5388655 53.0439076,21.2802101 C53.2694118,21.1711765 53.5052521,21.095042 53.7620168,21.0951681 C54.3404622,21.0954202 54.7303361,21.4489916 54.7695378,22.0269328 C54.7821429,22.2133613 54.7714286,22.4014286 54.7714286,22.5964286 C54.8885294,22.5742437 54.9205462,22.4614286 54.9816807,22.3851681 C55.3268067,21.9544538 55.7132773,21.5718908 56.2104202,21.3176471 C56.4442437,21.1981513 56.6877731,21.1067647 56.9555042,21.0968067 C57.5427731,21.075 57.9843277,21.4439496 58.0638655,22.0293277 C58.0962605,22.2670588 58.0754622,22.5036555 58.0297059,22.7386134 C57.8660924,23.5777311 57.712563,24.4188655 57.5345798,25.2548319 C57.4739496,25.539958 57.4827731,25.5818067 57.7918487,25.5932773 C57.8255042,25.5945378 57.8586555,25.6065126 57.9115966,25.617479 C57.9031513,25.9869328 57.7978992,26.3408824 57.7544118,26.702395 C57.7381513,26.8377731 57.6192857,26.8105462 57.5285294,26.8107983 C57.0647899,26.812563 56.6010504,26.8116807 56.1371849,26.8116807 C55.7936975,26.8116807 55.450084,26.8116807 55.0878151,26.8116807 C55.3189916,25.5305042 55.6735714,24.3022689 55.8907563,23.0468067 C55.6934874,23.0034454 55.6211345,23.1121008 55.5390756,23.1916387 C55.0913445,23.6257563 54.7651261,24.152521 54.4216387,24.6660504 C54.3681933,24.7458403 54.3559664,24.8416387 54.3360504,24.9352941 C54.2197059,25.4809664 54.0920168,26.0243697 53.982479,26.5714286 C53.9454202,26.7565966 53.8666387,26.8198739 53.6754202,26.8160924 C53.0706303,26.8039916 52.4653361,26.8116807 51.8263866,26.8116807" id="Fill-10" fill="#FFFFFE"></path>
                        <g id="Group-14" transform="translate(31.512605, 19.159664)">
                            <mask id="mask-6" fill="white">
                                <use xlink:href="#path-5"></use>
                            </mask>
                            <g id="Clip-12"></g>
                            <path d="M7.35516807,4.00676471 C7.26907563,4.35831933 7.18915966,4.66701681 7.11907563,4.97810924 C7.08327731,5.13743697 7.01344538,5.24407563 6.83319328,5.2210084 C6.63504202,5.19567227 6.56205882,5.31920168 6.50747899,5.4760084 C6.38130252,5.83802521 6.36831933,6.22273109 6.28058824,6.59243697 C6.25588235,6.69617647 6.22487395,6.80306723 6.22689076,6.90794118 C6.23294118,7.24096639 6.05735294,7.36865546 5.74915966,7.45121849 C4.83466387,7.69613445 3.91058824,7.83189076 2.96420168,7.79281513 C2.37668067,7.7687395 1.80718487,7.65605042 1.28861345,7.36210084 C0.469663866,6.89760504 0.104243697,6.1639916 0.0439915966,5.2487395 C0.0342857143,5.1002521 0.100966387,5.00067227 0.187310924,4.89995798 C0.528781513,4.5012605 0.833571429,4.08088235 1.03651261,3.58991597 C1.2292437,3.12415966 1.30323529,2.65462185 1.15563025,2.16491597 C1.12273109,2.05613445 1.10344538,1.96827731 1.20315126,1.8762605 C1.52609244,1.57815126 1.81210084,1.24197479 2.16340336,0.97210084 C2.84357143,0.449495798 3.61411765,0.161218487 4.46243697,0.0984453782 C5.44159664,0.0259663866 6.41079832,0.11407563 7.3639916,0.355840336 C7.60777311,0.417605042 7.61218487,0.422394958 7.55268908,0.660504202 C7.4402521,1.10987395 7.31445378,1.55571429 7.20882353,2.00647059 C7.17731092,2.14096639 7.11882353,2.17915966 6.9910084,2.17235294 C6.71785714,2.15823529 6.44407563,2.14827731 6.17042017,2.14865546 C6.01726891,2.14890756 5.96823529,2.09647059 5.97315126,1.93852941 C5.98588235,1.52735294 5.97768908,1.52710084 5.59121849,1.40331933 C4.65983193,1.10495798 3.88159664,1.3352521 3.2692437,2.10315126 C2.73579832,2.77222689 2.4737395,3.55512605 2.34453782,4.38894958 C2.29336134,4.71894958 2.27281513,5.04907563 2.3405042,5.38235294 C2.44739496,5.9089916 2.74273109,6.26105042 3.26256303,6.40827731 C3.4797479,6.46978992 3.70436975,6.51 3.93189076,6.4947479 C4.03777311,6.48768908 4.15109244,6.4647479 4.17882353,6.33189076 C4.23668067,6.05306723 4.29869748,5.7747479 4.34445378,5.49390756 C4.36815126,5.34907563 4.36865546,5.19781513 4.14189076,5.21785714 C4.00386555,5.22995798 3.95483193,5.1589916 3.97386555,5.01970588 C4.01256303,4.73710084 4.04357143,4.45323529 4.07142857,4.16936975 C4.08466387,4.0352521 4.15096639,3.9910084 4.28168067,3.99151261 C5.22163866,3.99478992 6.16159664,3.99302521 7.10155462,3.99378151 C7.17189076,3.99378151 7.24222689,4.00071429 7.35516807,4.00676471" id="Fill-11" fill="#FFFFFE" mask="url(#mask-6)"></path>
                            <path d="M27.5305462,6.50470588 C27.1213866,6.50722689 26.8155882,6.81857143 26.8178571,7.23012605 C26.82,7.64117647 27.1294538,7.94684874 27.5407563,7.94420168 C27.9462605,7.94168067 28.2617647,7.62327731 28.2586134,7.21966387 C28.2557143,6.81605042 27.9361765,6.50231092 27.5305462,6.50470588 Z M27.5190756,8.10806723 C27.0339076,8.09911765 26.6342017,7.68756303 26.645042,7.20857143 C26.6561345,6.72466387 27.0641597,6.33466387 27.5512185,6.34247899 C28.042563,6.35054622 28.4233613,6.74558824 28.4165546,7.24071429 C28.4097479,7.73092437 28.0101681,8.11726891 27.5190756,8.10806723 L27.5190756,8.10806723 Z" id="Fill-13" fill="#FFFFFE" mask="url(#mask-6)"></path>
                        </g>
                        <path d="M17.6517227,22.7431513 C17.6469328,22.7502101 17.6421429,22.7572689 17.6373529,22.7644538 C17.6417647,22.7570168 17.6461765,22.7494538 17.6505882,22.7420168 L17.6517227,22.7431513" id="Fill-15" fill="#FFFFFE"></path>
                        <path d="M59.2302748,25.9796464 C59.0736198,25.9927696 59.0916,26.0724012 59.0949067,26.1362339 C59.0978001,26.1976457 59.0490262,26.2929488 59.2174614,26.2967711 C59.3641963,26.3000838 59.4609173,26.244915 59.4669107,26.1450252 C59.4733175,26.0444983 59.3770098,26.0005417 59.2302748,25.9796464 Z M59.3879632,26.4328456 C59.5084512,26.6235791 59.7291736,26.7057589 59.7909676,26.8536825 C59.368743,26.9785448 59.3858965,26.6661342 59.1529807,26.6085446 C59.0091391,26.6774737 59.1881144,26.8725392 58.9659453,26.8638753 C58.6803288,26.8524084 58.8351239,26.6768367 58.8154903,26.574526 C58.7908967,26.445077 58.7964768,26.311933 58.8140436,26.1818468 C58.8270638,26.0848874 58.7148425,25.9405313 58.9473451,25.9057483 C59.1874944,25.8695637 59.4708375,25.8615368 59.6485727,25.9949356 C59.7971677,26.1064198 59.7595539,26.2455521 59.6020722,26.3541059 C59.5406916,26.3964061 59.4375638,26.4155177 59.3879632,26.4328456 L59.3879632,26.4328456 Z" id="Fill-16" fill="#FFFFFE"></path>
                    </g>
                </g>
            </g>
        </g>
    </g>
</svg>