<?xml version="1.0" encoding="UTF-8"?>
<svg width="109px" height="109px" viewBox="0 0 109 109" version="1.1" xmlns="http://www.w3.org/2000/svg" xmlns:xlink="http://www.w3.org/1999/xlink">
    <!-- Generator: sketchtool 53 (72520) - https://sketchapp.com -->
    <title>9E01F1ED-2545-4310-B1BA-2FB9CA3B648F</title>
    <desc>Created with sketchtool.</desc>
    <g id="Desktop-Final" stroke="none" stroke-width="1" fill="none" fill-rule="evenodd">
        <g id="How-to-Buy-Bitcoin" transform="translate(-683.000000, -741.000000)">
            <g id="Group-21" transform="translate(170.000000, 624.000000)">
                <g id="Group-19" transform="translate(0.000000, 119.000000)">
                    <g id="Group-3" transform="translate(515.000000, 0.000000)">
                        <g id="Group-Copy" stroke="#042C47" stroke-width="3">
                            <circle id="Oval" cx="52.5" cy="52.5" r="52.5"></circle>
                        </g>
                        <g id="002-timeline" transform="translate(23.000000, 28.000000)" fill="#042C47" fill-rule="nonzero">
                            <path d="M34.1656328,15.4229025 L29.4345146,15.4229025 L29.4345146,9.96772258 C29.4345146,4.47958672 24.7198744,0.0150240695 18.9506437,0.0150240695 C13.1814129,0.0150240695 8.4667727,4.48007134 8.4667727,9.96772258 L8.4667727,15.4229025 L3.25246203,15.4229025 L0.156540819,42.3440408 C-0.00823895782,43.7824713 0.457506203,45.2218711 1.43455335,46.2905164 C2.53809318,47.5050403 4.10737829,48.1912996 5.74839094,48.1772449 L31.6701885,48.1772449 C33.3112011,48.1912996 34.8809708,47.5050403 35.9845107,46.2900318 C36.9610732,45.2213865 37.4268184,43.7824713 37.261554,42.3445254 L34.1656328,15.4229025 Z M27.6975419,15.4229025 L10.2037454,15.4229025 L10.2037454,9.96772258 C10.2037454,5.43773263 14.1390742,1.75199677 18.9506437,1.75199677 C23.7626978,1.75199677 27.6975419,5.43773263 27.6975419,9.96772258 L27.6975419,15.4229025 Z" id="Shape"></path>
                            <path d="M49.7993563,29.5571301 C49.7993563,27.7901093 48.5412144,26.3066067 46.8042417,25.92519 L46.8042417,16.5375892 C48.5412144,16.1561725 49.7959639,14.6731545 49.7959639,12.905649 C49.7959639,10.849779 48.0614144,9.17726427 45.9313934,9.17726427 C43.8008878,9.17726427 42.0707002,10.849779 42.0707002,12.905649 C42.0707002,14.6731545 43.3302963,16.1561725 45.067269,16.5375892 L45.067269,25.92519 C43.3302963,26.3066067 42.0726388,27.7901093 42.0726388,29.5571301 C42.0726388,31.3246355 43.3302963,32.8081382 45.067269,33.1895548 L45.067269,42.5776403 C43.3302963,42.9590571 42.0697309,44.4420751 42.0697309,46.2095805 C42.0697309,48.2654505 43.8008878,49.9379653 45.9313934,49.9379653 C48.0614144,49.9379653 49.7969331,48.2654505 49.7969331,46.2095805 C49.7969331,44.4420751 48.5412144,42.9590571 46.8042417,42.5776403 L46.8042417,33.1895548 C48.5412144,32.8081382 49.7993563,31.3246355 49.7993563,29.5571301 L49.7993563,29.5571301 Z" id="Path"></path>
                            <path d="M52.5114377,10.0879149 L58.8389811,10.0879149 C59.318781,10.0879149 59.7074675,10.4766012 59.7074675,10.9564012 L59.7074675,15.6710414 C59.7074675,16.1508413 59.318781,16.5395278 58.8389811,16.5395278 L52.5114377,16.5395278 C52.0321223,16.5395278 51.6429514,16.1508413 51.6429514,15.6710414 L51.6429514,10.9564012 C51.6429514,10.4766012 52.0321223,10.0879149 52.5114377,10.0879149 Z" id="Path"></path>
                            <path d="M52.5114377,26.2169471 L58.8389811,26.2169471 C59.318781,26.2169471 59.7074675,26.6056335 59.7074675,27.0854335 L59.7074675,31.9241432 C59.7074675,32.4039431 59.318781,32.7926295 58.8389811,32.7926295 L52.5114377,32.7926295 C52.0321223,32.7926295 51.6429514,32.4039431 51.6429514,31.9241432 L51.6429514,27.0854335 C51.6429514,26.6056335 52.0321223,26.2169471 52.5114377,26.2169471 L52.5114377,26.2169471 Z" id="Path"></path>
                            <path d="M52.5114377,42.3459794 L58.8389811,42.3459794 C59.318781,42.3459794 59.7074675,42.7346658 59.7074675,43.2144658 L59.7074675,48.0531754 C59.7074675,48.5329753 59.318781,48.9216618 58.8389811,48.9216618 L52.5114377,48.9216618 C52.0321223,48.9216618 51.6429514,48.5329753 51.6429514,48.0531754 L51.6429514,43.2144658 C51.6429514,42.7346658 52.0321223,42.3459794 52.5114377,42.3459794 Z" id="Path"></path>
                        </g>
                    </g>
                </g>
            </g>
        </g>
    </g>
</svg>