<?xml version="1.0" encoding="UTF-8"?>
<svg width="109px" height="109px" viewBox="0 0 109 109" version="1.1" xmlns="http://www.w3.org/2000/svg" xmlns:xlink="http://www.w3.org/1999/xlink">
    <!-- Generator: sketchtool 53 (72520) - https://sketchapp.com -->
    <title>CC20122A-519F-410C-84FD-39D552A92A76</title>
    <desc>Created with sketchtool.</desc>
    <g id="Desktop-Final" stroke="none" stroke-width="1" fill="none" fill-rule="evenodd">
        <g id="How-to-Buy-Bitcoin" transform="translate(-1087.000000, -741.000000)">
            <g id="Group-21" transform="translate(170.000000, 624.000000)">
                <g id="Group-19" transform="translate(0.000000, 119.000000)">
                    <g id="003-payment-method" transform="translate(919.000000, 0.000000)">
                        <g id="Group-17">
                            <path d="M75.9747943,48.1125701 C75.22419,47.5216689 68.5965137,40.2232398 64.8434922,36.8215649 C64.8275219,36.8055946 64.8275219,36.8055946 64.8275219,36.7896243 L64.8275219,21.0748448 C64.8275219,17.1780906 61.6494313,14 57.752677,14 L34.5797654,14 C30.9545063,14 28,16.9704766 28,20.5797654 L28,57.4392279 C28,61.3359822 31.1780906,64.5140727 35.0748448,64.5140727 L41.8143133,64.5140727 L43.5231358,64.5140727 C43.8106013,64.5140727 44.0501559,64.2585479 44.0182153,63.9710824 L43.6508983,60.8409027 C43.6189577,60.5853778 43.4113437,60.4097045 43.1558188,60.4097045 L42.532977,60.4097045 L42.1496897,60.4097045 C41.8781945,60.4097045 41.6546102,60.1861202 41.6546102,59.9146251 L41.6546102,18.040487 C41.6546102,17.7689918 41.8781945,17.5454076 42.1496897,17.5454076 L57.800588,17.5454076 C59.3816481,17.5454076 60.6752427,18.8390022 60.6752427,20.4200624 L60.6752427,54.6284543 L60.6752427,57.9981885 C60.6752427,59.0841692 59.9246384,60.0104469 58.9185093,60.2979124 C58.902539,60.2979124 58.902539,60.2979124 58.8865687,60.2979124 C57.1777461,59.3716347 55.1654877,55.4109992 54.862052,54.7881574 C54.8301113,54.7402464 54.814141,54.6763652 54.814141,54.6284543 C54.7023489,53.6223251 53.5684573,43.8804395 48.3781084,43.8804395 C48.2343756,43.8804395 48.0906429,43.8804395 47.9469102,43.8964098 C47.9469102,43.8964098 43.794631,44.2477565 47.2282465,56.081752 C47.2282465,56.1136926 47.2442168,56.1296629 47.2442168,56.1616035 L48.7613957,69.2732234 C48.7613957,69.2891937 48.7613957,69.305164 48.777366,69.3371046 C48.9051284,69.8321841 50.6299213,76.5237416 55.0856362,81.266922 C55.1654877,81.3627438 55.2133986,81.474536 55.2133986,81.6022984 L55.2133986,82.73619 C55.2133986,82.7681306 55.1974283,82.7841009 55.1654877,82.7841009 L54.7662301,82.7841009 C53.7920416,82.7841009 52.9935263,83.5826161 52.9935263,84.5568047 L52.9935263,89.1722227 C52.9935263,90.1464112 53.7920416,90.9449265 54.7662301,90.9449265 L73.5632784,90.9449265 C74.5374669,90.9449265 75.3359822,90.1464112 75.3359822,89.1722227 L75.3359822,84.5887453 C75.3359822,83.6145567 74.5374669,82.8160415 73.5632784,82.8160415 C73.5313378,82.8160415 73.5153675,82.8000712 73.5153675,82.7681306 C74.1382093,76.9868804 76.3740519,57.2156436 77.5718248,55.6665241 C77.6037654,55.6186132 77.635706,55.5707023 77.6516763,55.5068211 C77.8592902,54.7881574 78.89736,50.3963237 75.9747943,48.1125701 Z M35.3942509,59.9465657 C35.3942509,60.2020905 35.186637,60.3937342 34.9470824,60.3937342 C33.3819926,60.3937342 32.1043682,59.1161098 32.1043682,57.55102 L32.1043682,20.3881217 C32.1043682,18.8230319 33.3819926,17.5454076 34.9470824,17.5454076 C35.2026073,17.5454076 35.3942509,17.7530215 35.3942509,17.9925761 L35.3942509,59.9465657 Z" id="Shape" fill="#042C47" fill-rule="nonzero"></path>
                            <g id="Group-3-Copy" stroke="#042C47" stroke-width="3">
                                <g id="Group-Copy">
                                    <circle id="Oval" cx="52.5" cy="52.5" r="52.5"></circle>
                                </g>
                            </g>
                        </g>
                    </g>
                </g>
            </g>
        </g>
    </g>
</svg>