<?xml version="1.0" encoding="UTF-8"?>
<svg width="50px" height="33px" viewBox="0 0 50 33" version="1.1" xmlns="http://www.w3.org/2000/svg" xmlns:xlink="http://www.w3.org/1999/xlink">
    <!-- Generator: sketchtool 53 (72520) - https://sketchapp.com -->
    <title>50CBFC39-83DD-4C3D-BDC5-7C83758957E0</title>
    <desc>Created with sketchtool.</desc>
    <g id="Desktop-Final" stroke="none" stroke-width="1" fill="none" fill-rule="evenodd">
        <g id="Buyers-Trades" transform="translate(-619.000000, -353.000000)" fill="#FFFFFF" fill-rule="nonzero">
            <g id="Group-28" transform="translate(281.000000, 212.000000)">
                <g id="Group-26" transform="translate(80.000000, 131.000000)">
                    <g id="WesternUnion" transform="translate(258.000000, 10.000000)">
                        <path d="M31.7933723,10.0779727 C31.6276803,10.0097466 31.4522417,10.0194932 31.2768031,10.0292398 C31.2768031,10.3021442 31.2768031,10.5653021 31.2768031,10.8382066 C31.4522417,10.8479532 31.6179337,10.8576998 31.7641326,10.7797271 C31.9103314,10.7017544 31.9785575,10.5847953 31.9785575,10.4191033 C31.9785575,10.2631579 31.9395712,10.1461988 31.7933723,10.0779727 Z" id="Path"></path>
                        <path d="M28.3723197,21.8421053 C28.1676413,21.8226121 27.9532164,21.8323587 27.7387914,21.8323587 C27.7387914,22.0467836 27.7387914,22.2612086 27.7387914,22.4756335 C27.7387914,22.4951267 27.7680312,22.5341131 27.7875244,22.5341131 C27.962963,22.5341131 28.1481481,22.5438596 28.3235867,22.5243665 C28.4892788,22.5048733 28.5964912,22.3586745 28.5964912,22.1832359 C28.6062378,21.9980507 28.5282651,21.8615984 28.3723197,21.8421053 Z" id="Path"></path>
                        <path d="M45.6369097,9.10331384 C45.3511954,9.10331384 45.1267057,9.32113562 45.1267057,9.59836335 C45.1267057,9.87559107 45.3511954,10.1033138 45.6267057,10.1033138 C45.9124199,10.1033138 46.1267057,9.89539305 46.1267057,9.60826434 C46.1267057,9.32113562 45.9124199,9.10331384 45.6369097,9.10331384 Z M45.8307873,9.59836335 C45.800175,9.60826434 45.7695628,9.61816533 45.7287465,9.62806632 C45.789971,9.71717523 45.8409914,9.80628414 45.9022159,9.89539305 C45.8920118,9.90529404 45.8920118,9.90529404 45.8818077,9.91519503 C45.8613995,9.89539305 45.8205832,9.88549206 45.8103791,9.86569008 C45.7695628,9.81618513 45.7389506,9.76668018 45.7083383,9.70727424 C45.667522,9.60826434 45.5960934,9.59836335 45.4736444,9.62806632 C45.4736444,9.71717523 45.4736444,9.80628414 45.4736444,9.90529404 C45.4634403,9.90529404 45.4430322,9.90529404 45.4328281,9.90529404 C45.4328281,9.70727424 45.4328281,9.50925443 45.4328281,9.29143265 C45.545073,9.29143265 45.667522,9.28153166 45.7797669,9.29143265 C45.8307873,9.30133364 45.8818077,9.36073958 45.9022159,9.40034354 C45.9430322,9.48945245 45.9124199,9.56866037 45.8307873,9.59836335 Z" id="Shape"></path>
                        <path d="M48.6842105,0.0877192982 L1.35477583,0.0877192982 C0.643274854,0.0877192982 0.0682261209,0.662768031 0.0682261209,1.37426901 L0.0682261209,31.1403509 C0.0682261209,31.8518519 0.643274854,32.4269006 1.35477583,32.4269006 L48.6842105,32.4269006 C49.3957115,32.4269006 49.9707602,31.8518519 49.9707602,31.1403509 L49.9707602,1.36452242 C49.9707602,0.662768031 49.3957115,0.0877192982 48.6842105,0.0877192982 Z M44.0643275,9.11306043 C44.2300195,9.11306043 44.3957115,9.11306043 44.5711501,9.11306043 C44.5711501,12.1734893 44.5711501,15.2241715 44.5711501,18.2846004 C44.3957115,18.2846004 44.2300195,18.2846004 44.0643275,18.2846004 C44.0643275,15.2339181 44.0643275,12.1734893 44.0643275,9.11306043 Z M29.6491228,9.07407407 C29.6881092,9.07407407 29.7173489,9.07407407 29.7465887,9.07407407 C30.5263158,9.07407407 31.3060429,9.07407407 32.0955166,9.07407407 C32.3879142,9.07407407 32.6900585,9.09356725 32.9727096,9.20077973 C33.3430799,9.33723197 33.5282651,9.61013645 33.5672515,9.99025341 C33.5867446,10.2534113 33.5672515,10.5068226 33.411306,10.7407407 C33.2651072,10.9356725 33.0701754,11.042885 32.8460039,11.1111111 C32.8265107,11.1208577 32.797271,11.1306043 32.748538,11.1403509 C32.8265107,11.1598441 32.8752437,11.1695906 32.9239766,11.1890838 C33.2163743,11.2573099 33.3918129,11.4424951 33.4502924,11.7348928 C33.4892788,11.9298246 33.5087719,12.1247563 33.5380117,12.3196881 C33.5867446,12.6413255 33.6452242,12.962963 33.6939571,13.2846004 C33.6842105,13.2846004 33.6549708,13.2846004 33.625731,13.2846004 C33.1384016,13.2846004 32.6608187,13.2846004 32.1734893,13.2846004 C32.1052632,13.2846004 32.0760234,13.2553606 32.0662768,13.1968811 C32.0175439,12.9044834 31.9688109,12.6218324 31.920078,12.3294347 C31.9005848,12.2124756 31.8810916,12.1052632 31.8615984,11.9980507 C31.8421053,11.8908382 31.7641326,11.8226121 31.6666667,11.8031189 C31.539961,11.7836257 31.4132554,11.7836257 31.2670565,11.7641326 C31.2670565,12.2807018 31.2670565,12.7777778 31.2670565,13.2748538 C30.7212476,13.2748538 30.1851852,13.2748538 29.6491228,13.2748538 C29.6491228,11.8908382 29.6491228,10.4873294 29.6491228,9.07407407 Z M25.1851852,9.07407407 C26.2475634,9.07407407 27.3099415,9.07407407 28.3723197,9.07407407 C28.3723197,9.43469786 28.3723197,9.78557505 28.3723197,10.1559454 C27.8460039,10.1559454 27.3099415,10.1559454 26.7738791,10.1559454 C26.7738791,10.3118908 26.7738791,10.4678363 26.7738791,10.6237817 C27.2709552,10.6237817 27.748538,10.6237817 28.245614,10.6237817 C28.245614,10.994152 28.245614,11.3450292 28.245614,11.7153996 C27.7582846,11.7153996 27.2709552,11.7153996 26.7738791,11.7153996 C26.7738791,11.8810916 26.7738791,12.037037 26.7738791,12.1929825 C26.8128655,12.1929825 26.8421053,12.202729 26.871345,12.202729 C27.3586745,12.202729 27.8460039,12.202729 28.3333333,12.202729 C28.411306,12.202729 28.4405458,12.2222222 28.4307992,12.3001949 C28.4210526,12.6023392 28.4307992,12.9044834 28.4307992,13.2066277 C28.4307992,13.2651072 28.411306,13.2846004 28.3528265,13.2846004 C27.3099415,13.2846004 26.2768031,13.2846004 25.2339181,13.2846004 C25.2241715,13.2846004 25.214425,13.2846004 25.1851852,13.2748538 C25.1851852,11.8908382 25.1851852,10.4873294 25.1851852,9.07407407 Z M28.0311891,14.2300195 C28.0311891,14.3469786 28.0311891,14.4639376 28.0311891,14.5808967 C28.0311891,15.7992203 28.0311891,17.0175439 28.0311891,18.2358674 C28.0311891,18.3625731 28.0311891,18.3625731 27.9044834,18.3625731 C27.4269006,18.3625731 26.9493177,18.3625731 26.4717349,18.3625731 C26.3937622,18.3625731 26.374269,18.3430799 26.374269,18.2651072 C26.374269,16.920078 26.374269,15.5750487 26.374269,14.2300195 C26.374269,14.2007797 26.374269,14.17154 26.3840156,14.1325536 C26.6374269,14.1325536 26.8810916,14.1325536 27.1247563,14.1325536 C27.3976608,14.1325536 27.6705653,14.1325536 27.9434698,14.1325536 C28.0116959,14.1423002 28.0409357,14.1617934 28.0311891,14.2300195 Z M20.331384,9.08382066 C21.5789474,9.08382066 22.8167641,9.08382066 24.0643275,9.08382066 C24.0643275,9.45419103 24.0643275,9.8245614 24.0643275,10.2046784 C23.7231969,10.2046784 23.3820663,10.2046784 23.0311891,10.2046784 C23.0311891,11.2378168 23.0311891,12.2612086 23.0311891,13.294347 C22.4658869,13.294347 21.9298246,13.294347 21.3645224,13.294347 C21.3645224,12.2709552 21.3645224,11.2475634 21.3645224,10.2046784 C21.0136452,10.2046784 20.6725146,10.2046784 20.3216374,10.2046784 C20.331384,9.8245614 20.331384,9.45419103 20.331384,9.08382066 Z M15.4191033,11.9980507 C15.9454191,11.9980507 16.4717349,11.9980507 16.9883041,11.9980507 C17.0077973,12.0662768 17.0175439,12.1345029 17.037037,12.202729 C17.0955166,12.3879142 17.2417154,12.4658869 17.4951267,12.4463938 C17.6705653,12.4269006 17.8167641,12.3099415 17.8362573,12.1345029 C17.8557505,12.0175439 17.7875244,11.9005848 17.6413255,11.8421053 C17.4756335,11.7836257 17.3001949,11.7348928 17.1345029,11.6861598 C16.8128655,11.588694 16.4912281,11.5107212 16.1793372,11.3937622 C15.6237817,11.1793372 15.4385965,10.7407407 15.497076,10.165692 C15.5555556,9.60038986 15.9161793,9.27875244 16.4327485,9.10331384 C16.8908382,8.94736842 17.3586745,8.94736842 17.8265107,8.98635478 C18.128655,9.00584795 18.411306,9.07407407 18.6744639,9.2202729 C19.0545809,9.43469786 19.2397661,9.76608187 19.2495127,10.2046784 C19.2495127,10.214425 19.2495127,10.2241715 19.2495127,10.2339181 C19.2495127,10.2436647 19.2397661,10.2436647 19.2397661,10.2631579 C19.2105263,10.2631579 19.1812865,10.2729045 19.1520468,10.2729045 C18.7329435,10.2729045 18.3040936,10.2729045 17.8849903,10.2729045 C17.8070175,10.2729045 17.7680312,10.2631579 17.7582846,10.1754386 C17.748538,10.0389864 17.6510721,9.95126706 17.5146199,9.94152047 C17.3976608,9.93177388 17.2807018,9.94152047 17.1734893,9.97076023 C17.0760234,9.99025341 17.0175439,10.0682261 17.0077973,10.1754386 C16.9980507,10.2826511 17.0467836,10.3606238 17.1442495,10.3898635 C17.3294347,10.4483431 17.5146199,10.5068226 17.6998051,10.5555556 C17.9824561,10.6432749 18.2748538,10.711501 18.5575049,10.8187135 C19.2202729,11.0623782 19.4931774,11.5594542 19.3664717,12.251462 C19.2690058,12.7777778 18.9278752,13.079922 18.4405458,13.2553606 C18.0701754,13.3820663 17.6900585,13.4210526 17.3001949,13.411306 C16.9590643,13.4015595 16.6179337,13.3723197 16.2865497,13.245614 C15.7699805,13.0506823 15.4678363,12.6900585 15.4191033,12.1247563 C15.4191033,12.1052632 15.4191033,12.0760234 15.4191033,12.0565302 C15.4191033,12.037037 15.4191033,12.0272904 15.4191033,11.9980507 Z M11.2573099,9.07407407 C12.251462,9.07407407 13.2358674,9.07407407 14.2300195,9.07407407 C14.3079922,9.07407407 14.3469786,9.09356725 14.337232,9.18128655 C14.337232,9.4834308 14.337232,9.77582846 14.337232,10.0779727 C14.337232,10.1072125 14.337232,10.1364522 14.3274854,10.1754386 C13.791423,10.1754386 13.2651072,10.1754386 12.7290448,10.1754386 C12.7290448,10.331384 12.7290448,10.4775828 12.7290448,10.6432749 C13.2261209,10.6432749 13.7134503,10.6432749 14.2105263,10.6432749 C14.2105263,11.0136452 14.2105263,11.3645224 14.2105263,11.7348928 C13.7231969,11.7348928 13.2358674,11.7348928 12.7387914,11.7348928 C12.7387914,11.9005848 12.7387914,12.0565302 12.7387914,12.2222222 C13.2846004,12.2222222 13.8304094,12.2222222 14.3859649,12.2222222 C14.3859649,12.582846 14.3859649,12.9434698 14.3859649,13.3138402 C13.3138402,13.3138402 12.2319688,13.3138402 11.1403509,13.3138402 C11.1403509,13.2651072 11.1306043,13.2261209 11.1306043,13.1773879 C11.1306043,11.8615984 11.1306043,10.5360624 11.1306043,9.2202729 C11.1306043,9.07407407 11.1306043,9.07407407 11.2573099,9.07407407 Z M9.03508772,13.294347 C8.5380117,13.294347 8.04093567,13.294347 7.54385965,13.294347 C7.51461988,13.294347 7.47563353,13.294347 7.42690058,13.294347 C7.30019493,12.3879142 7.16374269,11.4814815 7.03703704,10.5750487 C7.02729045,10.5750487 7.01754386,10.5750487 7.00779727,10.5750487 C6.88109162,11.4814815 6.74463938,12.3879142 6.61793372,13.294347 C6.51072125,13.294347 6.41325536,13.294347 6.30604288,13.294347 C5.84795322,13.294347 5.38011696,13.294347 4.92202729,13.294347 C4.83430799,13.294347 4.80506823,13.2651072 4.78557505,13.1871345 C4.66861598,12.6218324 4.55165692,12.0662768 4.42495127,11.5009747 C4.25925926,10.7212476 4.08382066,9.94152047 3.91812865,9.16179337 C3.90838207,9.13255361 3.91812865,9.11306043 3.90838207,9.07407407 C4.40545809,9.07407407 4.88304094,9.07407407 5.38011696,9.07407407 C5.49707602,9.96101365 5.61403509,10.8382066 5.74074074,11.7251462 C5.75048733,11.7251462 5.76023392,11.7251462 5.76998051,11.7251462 C5.89668616,10.8479532 6.0331384,9.97076023 6.15984405,9.08382066 C6.18908382,9.08382066 6.22807018,9.07407407 6.25730994,9.07407407 C6.76413255,9.07407407 7.27095517,9.07407407 7.77777778,9.07407407 C7.85575049,9.07407407 7.88499025,9.09356725 7.89473684,9.17153996 C7.97270955,9.74658869 8.07017544,10.331384 8.14814815,10.9064327 C8.1871345,11.1793372 8.22612086,11.4522417 8.26510721,11.7251462 C8.2748538,11.7251462 8.28460039,11.7251462 8.29434698,11.7251462 C8.41130604,10.8479532 8.52826511,9.96101365 8.65497076,9.08382066 C9.15204678,9.08382066 9.63937622,9.08382066 10.1364522,9.08382066 C10.1072125,9.2202729 10.0779727,9.35672515 10.0487329,9.49317739 C9.93177388,10.0194932 9.8245614,10.5555556 9.70760234,11.0818713 C9.56140351,11.754386 9.41520468,12.4366472 9.26900585,13.1091618 C9.23001949,13.294347 9.23001949,13.294347 9.03508772,13.294347 Z M12.2612086,23.9376218 C12.2612086,24.005848 12.2417154,24.0253411 12.1734893,24.0253411 C12.0175439,24.0253411 11.8615984,24.0253411 11.6959064,24.0253411 C11.6959064,23.294347 11.6959064,22.5730994 11.6959064,21.8518519 C11.6861598,21.8518519 11.6861598,21.8518519 11.6764133,21.8518519 C11.6179337,22.0272904 11.5594542,22.2124756 11.5009747,22.3879142 C11.3352827,22.91423 11.1695906,23.4405458 11.0038986,23.9668616 C10.994152,23.9961014 10.9551657,24.0253411 10.9259259,24.0253411 C10.8187135,24.0350877 10.711501,24.0253411 10.6042885,24.0350877 C10.5360624,24.0350877 10.5068226,24.005848 10.4873294,23.9473684 C10.3703704,23.5672515 10.2534113,23.1871345 10.1364522,22.8070175 C10.0389864,22.4951267 9.94152047,22.1929825 9.83430799,21.8908382 C9.83430799,21.920078 9.83430799,21.9493177 9.83430799,21.9688109 C9.83430799,22.6218324 9.83430799,23.2651072 9.83430799,23.9181287 C9.83430799,24.0155945 9.80506823,24.0350877 9.71734893,24.0350877 C9.58089669,24.0253411 9.44444444,24.0350877 9.3079922,24.0350877 C9.3079922,23.1481481 9.3079922,22.2807018 9.3079922,21.3937622 C9.45419103,21.3937622 9.59064327,21.3937622 9.73684211,21.3937622 C9.87329435,21.3937622 10,21.3937622 10.1364522,21.3937622 C10.2046784,21.3937622 10.2339181,21.4230019 10.2534113,21.4814815 C10.4191033,22.0662768 10.5847953,22.6413255 10.7602339,23.2261209 C10.7602339,23.2358674 10.7699805,23.245614 10.7797271,23.2748538 C10.9649123,22.6803119 11.1500975,22.1052632 11.3255361,21.5302144 C11.3547758,21.4327485 11.3937622,21.3840156 11.5107212,21.3937622 C11.7348928,21.4035088 11.9590643,21.4035088 12.1832359,21.3937622 C12.251462,21.3937622 12.2807018,21.4132554 12.2807018,21.4814815 C12.2612086,22.3001949 12.2612086,23.1189084 12.2612086,23.9376218 Z M15.1267057,23.4697856 C14.9805068,23.791423 14.7076023,23.9766082 14.3664717,24.0545809 C14.0448343,24.122807 13.7329435,24.1033138 13.4307992,23.9668616 C13.1091618,23.8206628 12.91423,23.5575049 12.8362573,23.2163743 C12.797271,23.0311891 12.7875244,22.8460039 12.7582846,22.6510721 C12.7875244,22.3781676 12.8460039,22.1247563 12.9824561,21.8908382 C13.1481481,21.6081871 13.4015595,21.4327485 13.7231969,21.374269 C14.0155945,21.3157895 14.2982456,21.3352827 14.5808967,21.4424951 C14.8732943,21.5594542 15.0682261,21.7738791 15.1754386,22.0565302 C15.3703704,22.5243665 15.3411306,23.0019493 15.1267057,23.4697856 Z M18.1773879,23.9376218 C18.1773879,24.005848 18.1481481,24.0350877 18.079922,24.0253411 C17.8752437,24.0253411 17.6705653,24.0253411 17.4756335,24.0253411 C17.417154,24.0253411 17.3781676,24.005848 17.3586745,23.9473684 C17.0565302,23.2846004 16.7446394,22.6315789 16.4424951,21.9688109 C16.4327485,21.9493177 16.4230019,21.9298246 16.4035088,21.8908382 C16.4035088,22.5730994 16.4035088,23.2261209 16.4035088,23.8791423 C16.4035088,24.0155945 16.4035088,24.0253411 16.2573099,24.0253411 C16.1306043,24.0253411 16.0038986,24.0253411 15.8674464,24.0253411 C15.8674464,23.1384016 15.8674464,22.2709552 15.8674464,21.3840156 C15.9454191,21.3840156 16.0136452,21.3840156 16.0818713,21.3840156 C16.2475634,21.3840156 16.4132554,21.3937622 16.588694,21.3840156 C16.6569201,21.3840156 16.6959064,21.4035088 16.7251462,21.4717349 C17.0175439,22.0955166 17.3196881,22.7192982 17.6120858,23.3430799 C17.6218324,23.3625731 17.6218324,23.3723197 17.6510721,23.3820663 C17.6510721,23.3430799 17.6510721,23.294347 17.6510721,23.2553606 C17.6510721,22.6608187 17.6510721,22.0760234 17.6510721,21.4912281 C17.6510721,21.4035088 17.6803119,21.374269 17.7680312,21.374269 C17.8752437,21.3840156 17.9824561,21.3840156 18.0896686,21.374269 C18.1773879,21.374269 18.1968811,21.4035088 18.1968811,21.4814815 C18.1968811,22.0662768 18.1968811,22.6608187 18.1968811,23.245614 C18.1773879,23.4892788 18.1676413,23.7134503 18.1773879,23.9376218 Z M16.4035088,18.3430799 C15.9844055,18.2261209 15.6432749,17.9922027 15.4775828,17.5633528 C15.4191033,17.4074074 15.3703704,17.2319688 15.3703704,17.0662768 C15.3606238,16.1111111 15.3606238,15.1461988 15.3606238,14.1910331 C15.3606238,14.1812865 15.3606238,14.17154 15.3703704,14.1423002 C15.9259259,14.1423002 16.4717349,14.1423002 17.0272904,14.1423002 C17.0272904,14.1812865 17.0272904,14.2202729 17.0272904,14.2592593 C17.0272904,15.1364522 17.0272904,16.0136452 17.0272904,16.8908382 C17.0272904,16.9883041 17.0467836,17.0760234 17.08577,17.1637427 C17.1345029,17.3001949 17.251462,17.3489279 17.3879142,17.3489279 C17.5243665,17.3489279 17.6218324,17.2709552 17.6608187,17.1442495 C17.6900585,17.0467836 17.6998051,16.9493177 17.6998051,16.8518519 C17.6998051,16.0331384 17.6998051,15.2046784 17.6998051,14.3859649 C17.6998051,14.3079922 17.6998051,14.2397661 17.6998051,14.1520468 C18.2553606,14.1520468 18.8011696,14.1520468 19.3664717,14.1520468 C19.3664717,14.1910331 19.3664717,14.2300195 19.3664717,14.2592593 C19.3664717,15.1559454 19.3664717,16.0526316 19.3664717,16.9590643 C19.3664717,17.6998051 18.957115,18.2066277 18.2358674,18.3723197 C17.6218324,18.5185185 17.0077973,18.5185185 16.4035088,18.3430799 Z M20.6140351,24.0253411 C20.0097466,24.0253411 19.4152047,24.0253411 18.8109162,24.0253411 C18.8109162,23.9863548 18.8109162,23.9473684 18.8109162,23.9083821 C18.8109162,23.1091618 18.8109162,22.3099415 18.8109162,21.5009747 C18.8109162,21.4132554 18.8401559,21.3840156 18.9278752,21.3840156 C19.4346979,21.3840156 19.9512671,21.3840156 20.4580897,21.3840156 C20.5555556,21.3840156 20.5847953,21.4132554 20.5750487,21.5107212 C20.5653021,21.6179337 20.5750487,21.7153996 20.5750487,21.8323587 C20.1754386,21.8323587 19.7953216,21.8323587 19.3957115,21.8323587 C19.3957115,22.0272904 19.3957115,22.2124756 19.3957115,22.3976608 C19.3957115,22.417154 19.454191,22.4463938 19.4834308,22.4463938 C19.7758285,22.4463938 20.0682261,22.4463938 20.3703704,22.4463938 C20.4093567,22.4463938 20.4483431,22.4463938 20.497076,22.4561404 C20.497076,22.6023392 20.497076,22.7387914 20.497076,22.8849903 C20.4483431,22.8849903 20.4093567,22.8947368 20.3606238,22.8947368 C20.0682261,22.8947368 19.7758285,22.8947368 19.4834308,22.8947368 C19.4054581,22.8947368 19.3859649,22.91423 19.3859649,22.9922027 C19.3859649,23.1871345 19.3859649,23.3723197 19.3859649,23.5769981 C19.4346979,23.5769981 19.4736842,23.5867446 19.502924,23.5867446 C19.8440546,23.5867446 20.1851852,23.5867446 20.5165692,23.5867446 C20.5847953,23.5867446 20.6140351,23.6062378 20.6042885,23.6744639 C20.6042885,23.7816764 20.6140351,23.8986355 20.6140351,24.0253411 Z M20.7212476,18.2553606 C20.7212476,16.920078 20.7212476,15.5847953 20.7212476,14.2495127 C20.7212476,14.1617934 20.7407407,14.1423002 20.82846,14.1423002 C21.4230019,14.1423002 22.0272904,14.1423002 22.6218324,14.1423002 C22.6900585,14.1423002 22.7290448,14.1617934 22.748538,14.2300195 C23.0214425,15.0292398 23.3040936,15.82846 23.5867446,16.6276803 C23.5964912,16.6471735 23.6062378,16.6666667 23.6159844,16.6959064 C23.625731,16.6959064 23.6354776,16.6959064 23.6452242,16.6861598 C23.6452242,15.8382066 23.6452242,15 23.6452242,14.1520468 C24.0935673,14.1520468 24.5321637,14.1520468 24.9805068,14.1520468 C24.9805068,15.5555556 24.9805068,16.9590643 24.9805068,18.3625731 C24.9512671,18.3625731 24.9220273,18.3723197 24.8927875,18.3723197 C24.288499,18.3723197 23.6939571,18.3723197 23.0896686,18.3723197 C23.0214425,18.3723197 22.9824561,18.3528265 22.962963,18.2846004 C22.6900585,17.4951267 22.417154,16.705653 22.1442495,15.9259259 C22.1345029,15.8869396 22.1150097,15.8479532 22.0955166,15.8089669 C22.08577,15.8089669 22.0760234,15.8089669 22.0662768,15.8089669 C22.0662768,16.6569201 22.0662768,17.5146199 22.0662768,18.3625731 C21.6081871,18.3625731 21.1695906,18.3625731 20.7212476,18.3625731 C20.7212476,18.3235867 20.7212476,18.294347 20.7212476,18.2553606 Z M23.0604288,21.8226121 C22.8557505,22.2124756 22.6413255,22.6120858 22.4366472,23.0019493 C22.417154,23.0409357 22.4074074,23.0896686 22.4074074,23.1384016 C22.4074074,23.4015595 22.4074074,23.6647173 22.4074074,23.9278752 C22.4074074,24.005848 22.3781676,24.0350877 22.3001949,24.0253411 C22.1734893,24.0155945 22.0467836,24.0155945 21.920078,24.0253411 C21.8518519,24.0253411 21.8323587,23.9961014 21.8323587,23.9278752 C21.8323587,23.6647173 21.8421053,23.411306 21.8323587,23.1481481 C21.8323587,23.0896686 21.8128655,23.0116959 21.7836257,22.962963 C21.5204678,22.4658869 21.2573099,21.9785575 20.994152,21.4912281 C20.9844055,21.4619883 20.9746589,21.4424951 20.9551657,21.4035088 C21.1695906,21.4035088 21.374269,21.4035088 21.5692008,21.4035088 C21.5984405,21.4035088 21.6276803,21.4424951 21.6471735,21.4717349 C21.8031189,21.8226121 21.9590643,22.1637427 22.1247563,22.5146199 C22.1345029,22.5341131 22.1442495,22.5438596 22.1539961,22.582846 C22.2319688,22.417154 22.3001949,22.2709552 22.3684211,22.1150097 C22.4658869,21.9005848 22.5633528,21.6959064 22.6608187,21.4814815 C22.6803119,21.4230019 22.7095517,21.4035088 22.7777778,21.4035088 C22.9434698,21.4035088 23.0994152,21.4035088 23.2846004,21.4035088 C23.2066277,21.5594542 23.1384016,21.6861598 23.0604288,21.8226121 Z M26.7738791,21.8421053 C26.5789474,21.8421053 26.3937622,21.8421053 26.1988304,21.8421053 C25.9649123,21.8421053 26.0038986,21.8226121 26.0038986,22.037037 C26.0038986,22.6608187 26.0038986,23.2748538 26.0038986,23.8986355 C26.0038986,23.9376218 26.0038986,23.9766082 26.0038986,24.0253411 C25.8187135,24.0253411 25.6530214,24.0253411 25.4775828,24.0253411 C25.4580897,24.0253411 25.4385965,23.9961014 25.4288499,23.9668616 C25.4191033,23.9376218 25.4288499,23.8986355 25.4288499,23.8596491 C25.4288499,23.2163743 25.4288499,22.582846 25.4288499,21.9395712 C25.4288499,21.8518519 25.3996101,21.8323587 25.3216374,21.8323587 C25.1267057,21.8323587 24.9317739,21.8323587 24.7465887,21.8323587 C24.6783626,21.8323587 24.6491228,21.8128655 24.6588694,21.7446394 C24.6588694,21.6569201 24.668616,21.5789474 24.6588694,21.4912281 C24.6491228,21.4035088 24.6881092,21.3840156 24.7660819,21.3840156 C25.2826511,21.3840156 25.8089669,21.3840156 26.3255361,21.3840156 C26.4717349,21.3840156 26.6276803,21.3840156 26.7836257,21.3840156 C26.7738791,21.5497076 26.7738791,21.6861598 26.7738791,21.8421053 Z M28.6549708,24.0155945 C28.625731,23.7816764 28.5867446,23.5575049 28.5575049,23.3333333 C28.5477583,23.2651072 28.5380117,23.1871345 28.5185185,23.1189084 C28.4990253,23.0311891 28.4307992,22.9727096 28.3430799,22.962963 C28.1481481,22.9532164 27.962963,22.962963 27.7582846,22.962963 C27.7582846,23.3138402 27.7582846,23.6549708 27.7582846,24.0155945 C27.5633528,24.0155945 27.3781676,24.0155945 27.1734893,24.0155945 C27.1734893,23.9766082 27.1637427,23.9473684 27.1637427,23.9181287 C27.1637427,23.1091618 27.1637427,22.3001949 27.1637427,21.5009747 C27.1637427,21.4132554 27.1832359,21.3937622 27.2709552,21.3937622 C27.6218324,21.3937622 27.9727096,21.3840156 28.3235867,21.4035088 C28.4795322,21.4132554 28.6452242,21.4230019 28.791423,21.4814815 C29.0643275,21.5789474 29.1812865,21.8031189 29.2007797,22.08577 C29.2105263,22.3489279 29.0643275,22.5730994 28.8109162,22.6803119 C28.7816764,22.6900585 28.7524366,22.7095517 28.6939571,22.7290448 C29.0155945,22.7680312 29.0838207,22.9922027 29.1130604,23.245614 C29.1423002,23.4405458 29.17154,23.6354776 29.2007797,23.8401559 C29.2105263,23.9083821 29.2397661,23.9668616 29.2592593,24.0350877 C29.0643275,24.0155945 28.8596491,24.0155945 28.6549708,24.0155945 Z M29.288499,15.9161793 C29.3567251,15.2729045 29.6003899,14.7173489 30.165692,14.3567251 C30.5750487,14.0935673 31.0331384,14.0253411 31.5107212,14.0350877 C31.8615984,14.0448343 32.2124756,14.0935673 32.5341131,14.2495127 C33.0116959,14.4736842 33.3235867,14.8440546 33.4892788,15.3411306 C33.6939571,15.9746589 33.6939571,16.6179337 33.460039,17.2417154 C33.2066277,17.9044834 32.6998051,18.2846004 32.0077973,18.411306 C31.8226121,18.4502924 31.6374269,18.4502924 31.4522417,18.4697856 C30.9844055,18.460039 30.5360624,18.3723197 30.1461988,18.1189084 C29.7368421,17.8460039 29.4931774,17.4658869 29.3664717,16.9883041 C29.2690058,16.6471735 29.2495127,16.2865497 29.288499,15.9161793 Z M31.8031189,24.0253411 C31.6959064,24.0253411 31.5692008,24.0545809 31.5009747,24.005848 C31.4327485,23.957115 31.4132554,23.8206628 31.3840156,23.7134503 C31.2962963,23.460039 31.2962963,23.460039 31.0331384,23.460039 C30.8089669,23.460039 30.5847953,23.460039 30.3606238,23.460039 C30.2923977,23.460039 30.2534113,23.4892788 30.2339181,23.5477583 C30.1949318,23.6842105 30.1461988,23.8109162 30.0974659,23.9473684 C30.0779727,24.005848 30.0487329,24.0350877 29.9805068,24.0350877 C29.834308,24.0253411 29.6881092,24.0350877 29.5126706,24.0350877 C29.6003899,23.8011696 29.668616,23.5867446 29.7465887,23.3723197 C29.9707602,22.748538 30.1949318,22.1345029 30.4191033,21.5107212 C30.4483431,21.4327485 30.4873294,21.3840156 30.5750487,21.3937622 C30.7309942,21.4035088 30.8869396,21.4035088 31.042885,21.3937622 C31.1111111,21.3937622 31.1500975,21.4132554 31.1695906,21.4814815 C31.3547758,22.037037 31.5497076,22.5925926 31.7446394,23.1481481 C31.8421053,23.4210526 31.9298246,23.6842105 32.0175439,23.957115 C32.0272904,23.9766082 32.0272904,23.9961014 32.037037,24.0448343 C31.9590643,24.0253411 31.8810916,24.0350877 31.8031189,24.0253411 Z M34.7758285,24.0350877 C34.5614035,24.0350877 34.3469786,24.0350877 34.1423002,24.0350877 C34.1033138,24.0350877 34.0545809,23.9961014 34.0350877,23.9668616 C33.791423,23.4502924 33.5575049,22.9337232 33.3138402,22.417154 C33.2358674,22.251462 33.1578947,22.0955166 33.0896686,21.9298246 C33.079922,21.9298246 33.079922,21.9298246 33.0701754,21.9298246 C33.0701754,22.5925926 33.0701754,23.2553606 33.0701754,23.9083821 C33.0701754,24.0350877 33.0701754,24.0350877 32.9434698,24.0350877 C32.8070175,24.0350877 32.6705653,24.0350877 32.5243665,24.0350877 C32.5243665,23.9863548 32.5243665,23.957115 32.5243665,23.9278752 C32.5243665,23.1189084 32.5243665,22.3099415 32.5243665,21.5107212 C32.5243665,21.4230019 32.5438596,21.3937622 32.6315789,21.3937622 C32.8362573,21.4035088 33.0409357,21.3937622 33.245614,21.3937622 C33.3138402,21.3937622 33.3528265,21.4230019 33.3820663,21.4814815 C33.6744639,22.1052632 33.9668616,22.7290448 34.2690058,23.3430799 C34.2787524,23.3625731 34.288499,23.3723197 34.3079922,23.411306 C34.3079922,23.3723197 34.3079922,23.3528265 34.3079922,23.3235867 C34.3079922,22.7095517 34.3079922,22.1052632 34.3079922,21.4912281 C34.3079922,21.4035088 34.337232,21.3840156 34.4152047,21.3840156 C34.5321637,21.3937622 34.6491228,21.3840156 34.7660819,21.3840156 C34.8245614,21.3840156 34.8440546,21.4132554 34.8440546,21.4717349 C34.8440546,22.3001949 34.8440546,23.1189084 34.8440546,23.9473684 C34.8538012,24.0155945 34.8245614,24.0350877 34.7758285,24.0350877 Z M34.9707602,9.07407407 C35.5653021,9.07407407 36.1695906,9.07407407 36.7641326,9.07407407 C36.8323587,9.07407407 36.8615984,9.10331384 36.8908382,9.16179337 C37.1637427,9.95126706 37.4463938,10.7504873 37.7192982,11.539961 C37.7290448,11.5692008 37.7387914,11.5984405 37.7582846,11.6276803 C37.7680312,11.6276803 37.7777778,11.6276803 37.7875244,11.6276803 C37.7875244,10.7797271 37.7875244,9.94152047 37.7875244,9.09356725 C38.2358674,9.09356725 38.6744639,9.09356725 39.122807,9.09356725 C39.122807,10.497076 39.122807,11.9005848 39.122807,13.3040936 C39.0935673,13.3040936 39.0740741,13.3138402 39.0448343,13.3138402 C38.4405458,13.3138402 37.8460039,13.3138402 37.2417154,13.3138402 C37.1637427,13.3138402 37.1247563,13.294347 37.0955166,13.2163743 C36.8421053,12.4658869 36.5789474,11.7153996 36.3157895,10.9649123 C36.2962963,10.8966862 36.2670565,10.82846 36.2183236,10.7504873 C36.2183236,10.7797271 36.208577,10.8089669 36.208577,10.8382066 C36.208577,11.6276803 36.208577,12.417154 36.208577,13.2066277 C36.208577,13.294347 36.1890838,13.3138402 36.1013645,13.3138402 C35.7212476,13.3138402 35.3411306,13.3138402 34.9610136,13.3138402 C34.9317739,13.3138402 34.9025341,13.3138402 34.8732943,13.3138402 C34.8732943,13.2748538 34.8635478,13.245614 34.8635478,13.2066277 C34.8635478,11.871345 34.8635478,10.5360624 34.8635478,9.20077973 C34.8635478,9.09356725 34.8830409,9.07407407 34.9707602,9.07407407 Z M34.8635478,18.2748538 C34.8635478,16.9298246 34.8635478,15.5847953 34.8635478,14.2397661 C34.8635478,14.17154 34.8830409,14.1423002 34.9512671,14.1423002 C35.5555556,14.1423002 36.1695906,14.1423002 36.7738791,14.1423002 C36.8421053,14.1423002 36.8615984,14.17154 36.8810916,14.2300195 C37.1539961,15.0292398 37.4366472,15.8187135 37.7192982,16.6179337 C37.7290448,16.6471735 37.7387914,16.6666667 37.7680312,16.6861598 C37.7680312,15.8479532 37.7680312,15 37.7680312,14.1520468 C38.2163743,14.1520468 38.6647173,14.1520468 39.1130604,14.1520468 C39.1130604,15.5555556 39.1130604,16.9493177 39.1130604,18.3625731 C39.0740741,18.3625731 39.0448343,18.3625731 39.0155945,18.3625731 C38.411306,18.3625731 37.8167641,18.3625731 37.2124756,18.3625731 C37.1442495,18.3625731 37.1150097,18.3430799 37.0955166,18.2748538 C36.8226121,17.4756335 36.539961,16.6861598 36.2670565,15.8869396 C36.2573099,15.8576998 36.2378168,15.82846 36.208577,15.7992203 C36.208577,15.8479532 36.208577,15.8869396 36.208577,15.9356725 C36.208577,16.705653 36.208577,17.4853801 36.208577,18.2553606 C36.208577,18.3430799 36.1793372,18.3625731 36.1013645,18.3625731 C35.7212476,18.3625731 35.3508772,18.3625731 34.9707602,18.3625731 C34.8927875,18.3723197 34.8635478,18.3528265 34.8635478,18.2748538 Z M37.3391813,23.6842105 C37.1929825,23.8791423 36.9883041,23.9863548 36.754386,24.0448343 C36.4327485,24.1130604 36.1208577,24.1130604 35.8187135,23.9961014 C35.5360624,23.8888889 35.380117,23.6647173 35.3606238,23.3723197 C35.3411306,23.1773879 35.3411306,23.1773879 35.545809,23.1773879 C35.6530214,23.1773879 35.7602339,23.1773879 35.8674464,23.1773879 C35.8869396,23.1773879 35.9356725,23.2066277 35.9356725,23.2261209 C35.9356725,23.625731 36.2573099,23.7037037 36.5594542,23.6549708 C36.6374269,23.6354776 36.7153996,23.6062378 36.7738791,23.5575049 C36.9688109,23.4015595 36.920078,23.128655 36.6861598,23.0506823 C36.5107212,22.9922027 36.3157895,22.9532164 36.1403509,22.8947368 C36.0233918,22.8557505 35.9064327,22.8070175 35.7992203,22.7582846 C35.2729045,22.4951267 35.380117,21.8518519 35.6725146,21.6081871 C35.7992203,21.5009747 35.9356725,21.4327485 36.1013645,21.3937622 C36.3645224,21.3352827 36.6374269,21.3352827 36.9005848,21.4132554 C37.2319688,21.5204678 37.4463938,21.8226121 37.417154,22.1539961 C37.2319688,22.1539961 37.0565302,22.1539961 36.9005848,22.1539961 C36.8421053,22.0565302 36.8128655,21.9395712 36.7446394,21.871345 C36.588694,21.705653 36.2280702,21.7348928 36.0916179,21.9103314 C35.9551657,22.0955166 36.042885,22.3196881 36.2768031,22.3976608 C36.4619883,22.4561404 36.6666667,22.4951267 36.8518519,22.5536062 C36.9980507,22.6023392 37.1442495,22.6608187 37.2709552,22.748538 C37.5341131,22.9532164 37.5633528,23.3820663 37.3391813,23.6842105 Z M39.7173489,21.8323587 C39.3469786,21.8323587 38.9766082,21.8323587 38.5964912,21.8323587 C38.5964912,22.037037 38.5964912,22.2222222 38.5964912,22.417154 C38.5964912,22.4366472 38.6549708,22.4658869 38.6842105,22.4658869 C38.9668616,22.4658869 39.2397661,22.4658869 39.5224172,22.4658869 C39.6491228,22.4658869 39.6491228,22.4658869 39.6491228,22.5925926 C39.6491228,22.6998051 39.6491228,22.8070175 39.6491228,22.9239766 C39.288499,22.9239766 38.9473684,22.9239766 38.5964912,22.9239766 C38.5964912,23.294347 38.5964912,23.6549708 38.5964912,24.0350877 C38.411306,24.0350877 38.2358674,24.0350877 38.0701754,24.0350877 C38.0506823,24.0350877 38.0311891,24.005848 38.0214425,23.9863548 C38.0116959,23.9668616 38.0214425,23.9473684 38.0214425,23.9181287 C38.0214425,23.1189084 38.0214425,22.3196881 38.0214425,21.5204678 C38.0214425,21.4522417 38.0311891,21.4132554 38.1189084,21.4132554 C38.625731,21.4132554 39.1325536,21.4132554 39.6393762,21.4132554 C39.668616,21.4132554 39.6881092,21.4230019 39.7270955,21.4230019 C39.7173489,21.539961 39.7173489,21.6764133 39.7173489,21.8323587 Z M40.0974659,9.11306043 C40.2631579,9.11306043 40.4385965,9.11306043 40.6042885,9.11306043 C40.6042885,12.1734893 40.6042885,15.2241715 40.6042885,18.2846004 C40.4288499,18.2846004 40.2631579,18.2846004 40.0974659,18.2846004 C40.0974659,15.2339181 40.0974659,12.1734893 40.0974659,9.11306043 Z M41.9883041,24.0253411 C41.3937622,24.0253411 40.7992203,24.0253411 40.2046784,24.0253411 C40.2046784,23.1481481 40.2046784,22.2807018 40.2046784,21.3937622 C40.2436647,21.3937622 40.2826511,21.3840156 40.3216374,21.3840156 C40.82846,21.3840156 41.3450292,21.3840156 41.8518519,21.3840156 C41.9395712,21.3840156 41.9785575,21.4132554 41.9688109,21.5009747 C41.9590643,21.6081871 41.9688109,21.705653 41.9688109,21.8226121 C41.5789474,21.8226121 41.1890838,21.8226121 40.7894737,21.8226121 C40.7894737,22.0175439 40.7894737,22.202729 40.7894737,22.3879142 C40.7894737,22.4074074 40.8479532,22.4269006 40.8869396,22.4269006 C41.1793372,22.4269006 41.4717349,22.4269006 41.7641326,22.4269006 C41.8908382,22.4269006 41.8908382,22.4269006 41.8908382,22.5536062 C41.8908382,22.6608187 41.8908382,22.7582846 41.8908382,22.8752437 C41.8323587,22.8752437 41.7933723,22.8849903 41.7446394,22.8849903 C41.4717349,22.8849903 41.1988304,22.8849903 40.9161793,22.8849903 C40.7797271,22.8849903 40.7797271,22.8849903 40.7797271,23.0311891 C40.7797271,23.1773879 40.7797271,23.3333333 40.7797271,23.4795322 C40.7797271,23.5477583 40.7992203,23.5769981 40.877193,23.5769981 C41.2183236,23.5769981 41.5497076,23.5769981 41.8908382,23.5769981 C41.9298246,23.5769981 41.9590643,23.5769981 41.9980507,23.5769981 C41.9883041,23.7329435 41.9883041,23.8693957 41.9883041,24.0253411 Z M44.0253411,24.0253411 C44.005848,24.0253411 43.9863548,23.9863548 43.9766082,23.957115 C43.9376218,23.7134503 43.8986355,23.4697856 43.8693957,23.2261209 C43.8401559,23.0311891 43.7719298,22.9727096 43.5769981,22.9727096 C43.411306,22.9727096 43.2553606,22.9727096 43.079922,22.9727096 C43.079922,23.3235867 43.079922,23.6744639 43.079922,24.0253411 C42.8849903,24.0253411 42.6900585,24.0253411 42.5048733,24.0253411 C42.5048733,23.1481481 42.5048733,22.2807018 42.5048733,21.4035088 C42.5438596,21.4035088 42.582846,21.3937622 42.6218324,21.3937622 C42.962963,21.3937622 43.294347,21.3840156 43.6354776,21.3937622 C43.7816764,21.3937622 43.9278752,21.4132554 44.0643275,21.4522417 C44.3469786,21.5302144 44.5321637,21.7738791 44.5321637,22.0760234 C44.5321637,22.3196881 44.4444444,22.5438596 44.1325536,22.6803119 C44.1033138,22.6900585 44.0740741,22.7095517 44.0253411,22.7290448 C44.2690058,22.7582846 44.3859649,22.9044834 44.4152047,23.1189084 C44.4346979,23.2261209 44.4444444,23.3430799 44.4639376,23.4502924 C44.4931774,23.6354776 44.5321637,23.8304094 44.5711501,24.0253411 C44.4054581,24.0253411 44.2105263,24.0253411 44.0253411,24.0253411 Z M45.6140351,10.1461988 C45.3118908,10.1461988 45.0487329,9.90253411 45.0487329,9.60038986 C45.0487329,9.29824561 45.2923977,9.0545809 45.5945419,9.04483431 C45.9064327,9.04483431 46.1500975,9.27875244 46.1500975,9.59064327 C46.1500975,9.89278752 45.9161793,10.1461988 45.6140351,10.1461988 Z" id="Shape"></path>
                        <path d="M45.7797271,9.36647173 C45.6822612,9.34697856 45.5847953,9.34697856 45.4873294,9.33723197 C45.4775828,9.33723197 45.4678363,9.35672515 45.4678363,9.36647173 C45.4191033,9.49317739 45.4678363,9.56140351 45.6335283,9.56140351 C45.6530214,9.56140351 45.6920078,9.5711501 45.7309942,9.55165692 C45.7602339,9.54191033 45.7992203,9.50292398 45.8089669,9.47368421 C45.8089669,9.44444444 45.7894737,9.37621832 45.7797271,9.36647173 Z" id="Path"></path>
                        <path d="M31.9005848,16.2475634 C31.9005848,16.1500975 31.9103314,16.0526316 31.9005848,15.9649123 C31.8810916,15.7504873 31.871345,15.5263158 31.7738791,15.331384 C31.705653,15.1851852 31.588694,15.1169591 31.4230019,15.1267057 C31.2670565,15.1364522 31.1598441,15.2046784 31.1013645,15.3508772 C31.0623782,15.4483431 31.0233918,15.5555556 31.0233918,15.662768 C31.0038986,16.0136452 30.994152,16.3645224 31.0038986,16.7153996 C31.0136452,16.8810916 31.0721248,17.0565302 31.1306043,17.2124756 C31.1695906,17.3294347 31.2768031,17.3781676 31.4035088,17.3879142 C31.6179337,17.4074074 31.7641326,17.3099415 31.8128655,17.0760234 C31.871345,16.8128655 31.8908382,16.5302144 31.9298246,16.2670565 C31.920078,16.2573099 31.9103314,16.2573099 31.9005848,16.2475634 Z" id="Path"></path>
                        <path d="M14.6101365,22.1734893 C14.5224172,21.9103314 14.3079922,21.7641326 14.0545809,21.7641326 C13.7719298,21.7641326 13.5575049,21.8908382 13.460039,22.1637427 C13.3333333,22.5243665 13.3333333,22.8947368 13.460039,23.2553606 C13.5477583,23.5185185 13.7329435,23.6549708 14.0155945,23.6647173 C14.2982456,23.6744639 14.4736842,23.5575049 14.6003899,23.2846004 C14.6881092,23.0994152 14.6978558,22.8947368 14.6978558,22.6900585 C14.7076023,22.6900585 14.7173489,22.6900585 14.7270955,22.6803119 C14.6881092,22.5146199 14.668616,22.3391813 14.6101365,22.1734893 Z" id="Path"></path>
                        <path d="M30.7894737,21.9395712 C30.662768,22.3099415 30.5360624,22.6608187 30.4191033,23.0214425 C30.662768,23.0214425 30.8966862,23.0214425 31.1403509,23.0214425 C31.0233918,22.6608187 30.9161793,22.3099415 30.7894737,21.9395712 Z" id="Path"></path>
                        <path d="M43.625731,21.8323587 C43.460039,21.8226121 43.3040936,21.8226121 43.1384016,21.8226121 C43.079922,21.8226121 43.0604288,21.8421053 43.0701754,21.8908382 C43.0701754,21.9883041 43.0701754,22.0760234 43.0701754,22.1734893 C43.0701754,22.2709552 43.0701754,22.3586745 43.0701754,22.4561404 C43.0701754,22.5048733 43.0896686,22.5341131 43.1384016,22.5341131 C43.3040936,22.5341131 43.4697856,22.5341131 43.6354776,22.5243665 C43.8109162,22.5146199 43.9278752,22.3489279 43.9278752,22.1539961 C43.9181287,21.9590643 43.8109162,21.8421053 43.625731,21.8323587 Z" id="Path"></path>
                    </g>
                </g>
            </g>
        </g>
    </g>
</svg>