<?xml version="1.0" encoding="UTF-8"?>
<svg width="48px" height="17px" viewBox="0 0 48 17" version="1.1" xmlns="http://www.w3.org/2000/svg" xmlns:xlink="http://www.w3.org/1999/xlink">
    <!-- Generator: sketchtool 53 (72520) - https://sketchapp.com -->
    <title>3A1C1CB0-9E54-4700-B2E4-C6157D21EA0A</title>
    <desc>Created with sketchtool.</desc>
    <g id="Desktop-Final" stroke="none" stroke-width="1" fill="none" fill-rule="evenodd">
        <g id="Buyers-Trades" transform="translate(-867.000000, -361.000000)">
            <g id="Group-28" transform="translate(281.000000, 212.000000)">
                <g id="Group-26" transform="translate(80.000000, 131.000000)">
                    <g id="Zoom" transform="translate(506.000000, 18.000000)">
                        <g id="ENGLISH_1_">
                            <rect id="Rectangle" x="0.110132159" y="0.176211454" width="49.7577093" height="16.4757709"></rect>
                            <path d="M13.4361233,15.0440529 L13.1277533,15.6167401 L12.7753304,15.6167401 L14.1189427,13.1277533 L14.4713656,13.1277533 L15,15.6167401 L14.6475771,15.6167401 L14.5374449,15.0440529 L13.4361233,15.0440529 Z M14.185022,13.5682819 L13.5682819,14.7577093 L14.4273128,14.7577093 L14.185022,13.5682819 Z" id="Shape" fill="#FFFFFF" fill-rule="nonzero"></path>
                            <path d="M37.246696,15.4405286 C37.3568282,15.4405286 37.4889868,15.4185022 37.5991189,15.3524229 C37.6872247,15.30837 37.753304,15.2422907 37.7973568,15.154185 C37.8414097,15.0881057 37.8634361,15 37.8634361,14.9118943 C37.8634361,14.845815 37.8414097,14.7797357 37.7973568,14.7136564 C37.7312775,14.6475771 37.6651982,14.5814978 37.5770925,14.5594714 L37.2246696,14.4273128 C37.0704846,14.3612335 36.938326,14.2731278 36.8281938,14.1629956 C36.7400881,14.0748899 36.6960352,13.9427313 36.6960352,13.8105727 C36.6960352,13.6563877 36.7400881,13.5242291 36.8061674,13.4140969 C36.8942731,13.2819383 37.0044053,13.1938326 37.1585903,13.1497797 C37.3127753,13.0837004 37.4669604,13.061674 37.6431718,13.061674 C37.7753304,13.061674 37.907489,13.0837004 38.0396476,13.1277533 C38.1497797,13.1718062 38.2599119,13.215859 38.3480176,13.3039648 L38.2819383,13.6563877 C38.1057269,13.4801762 37.8414097,13.3920705 37.5991189,13.3920705 C37.4669604,13.3920705 37.3348018,13.4361233 37.2246696,13.5022026 C37.1365639,13.5682819 37.0704846,13.6784141 37.0704846,13.8105727 C37.0704846,13.876652 37.092511,13.9427313 37.1365639,13.9867841 C37.2246696,14.0528634 37.3127753,14.1189427 37.4008811,14.1409692 L37.7312775,14.2951542 C37.8634361,14.3612335 37.9955947,14.4493392 38.1057269,14.5814978 C38.1718062,14.69163 38.215859,14.8017621 38.215859,14.9339207 C38.215859,15.0881057 38.1718062,15.2422907 38.1057269,15.3744493 C38.0396476,15.5286344 37.907489,15.6387665 37.753304,15.7268722 C37.5770925,15.814978 37.3788546,15.8590308 37.1806167,15.8590308 C36.8942731,15.8810573 36.6299559,15.7929515 36.4096916,15.6167401 L36.4757709,15.2422907 C36.6740088,15.4405286 36.938326,15.5286344 37.2246696,15.5286344" id="Path" fill="#FFFFFF" fill-rule="nonzero"></path>
                            <path d="M40.0881057,13.9867841 C40.2202643,14.1409692 40.2863436,14.3171806 40.2863436,14.5154185 C40.2863436,14.5814978 40.2863436,14.6475771 40.2863436,14.69163 C40.2863436,14.7577093 40.2643172,14.8017621 40.2422907,14.8678414 L38.8105727,14.8678414 C38.7885463,15.0220264 38.8546256,15.1982379 38.9647577,15.30837 C39.0748899,15.4185022 39.2511013,15.4625551 39.4052863,15.4625551 C39.5154185,15.4625551 39.6475771,15.4405286 39.7577093,15.4185022 C39.8678414,15.3744493 39.9559471,15.3303965 40.0660793,15.2863436 L40.0220264,15.5726872 C39.8237885,15.7048458 39.5814978,15.7709251 39.339207,15.7709251 C39.185022,15.7709251 39.030837,15.7268722 38.876652,15.660793 C38.7444934,15.5947137 38.6563877,15.4845815 38.5903084,15.3524229 C38.5242291,15.2202643 38.4801762,15.0660793 38.4801762,14.9118943 C38.4801762,14.7356828 38.5242291,14.5594714 38.6123348,14.4052863 C38.7004405,14.2290749 38.8105727,14.0748899 38.9867841,13.9647577 C39.1629956,13.8546256 39.3832599,13.7885463 39.6035242,13.7885463 C39.7577093,13.7885463 39.9559471,13.8546256 40.0881057,13.9867841 M39.0969163,14.2290749 C38.9867841,14.339207 38.8986784,14.4713656 38.8546256,14.6035242 L39.9339207,14.6035242 C39.9339207,14.5814978 39.9339207,14.5374449 39.9339207,14.5154185 C39.9339207,14.3832599 39.9118943,14.2731278 39.8237885,14.1629956 C39.7356828,14.0748899 39.6255507,14.030837 39.4933921,14.0528634 C39.339207,14.0528634 39.185022,14.0969163 39.0748899,14.2070485" id="Shape" fill="#FFFFFF" fill-rule="nonzero"></path>
                            <path d="M41.4317181,14.1409692 C41.277533,14.1409692 41.1453744,14.2070485 41.0572687,14.2951542 C40.9471366,14.4273128 40.8810573,14.5814978 40.8590308,14.7577093 L40.7048458,15.6828194 L40.3524229,15.6828194 L40.6387665,13.8325991 L40.969163,13.8325991 L40.9251101,14.1409692 C41.0352423,13.9427313 41.2555066,13.8325991 41.4757709,13.8105727 C41.5198238,13.8105727 41.5859031,13.8105727 41.6299559,13.8105727 L41.5859031,14.0969163 L41.4317181,14.0969163" id="Path" fill="#FFFFFF" fill-rule="nonzero"></path>
                            <polygon id="Path" fill="#FFFFFF" fill-rule="nonzero" points="42.4229075 15.6828194 42.1145374 15.6828194 41.6740088 13.8546256 42.0264317 13.8546256 42.3348018 15.2863436 43.1057269 13.8546256 43.4581498 13.8546256"></polygon>
                            <path d="M43.7611076,15.6828194 L43.3039648,15.6828194 L43.6753933,13.8325991 L44.1325362,13.8325991 L43.7611076,15.6828194 Z M43.8182505,13.4801762 C43.7611076,13.4361233 43.7611076,13.3920705 43.7611076,13.3480176 C43.7611076,13.2819383 43.789679,13.215859 43.8468219,13.1718062 C43.9039648,13.1277533 43.989679,13.1057269 44.0753933,13.1057269 C44.1325362,13.1057269 44.189679,13.1277533 44.2468219,13.1497797 C44.3039648,13.1938326 44.3039648,13.2378855 44.3039648,13.2819383 C44.3039648,13.4140969 44.1611076,13.5242291 43.989679,13.5242291 C43.989679,13.5242291 43.989679,13.5242291 43.989679,13.5242291 C43.9039648,13.5462555 43.8468219,13.5242291 43.8182505,13.4801762 L43.8182505,13.4801762 Z" id="Shape" fill="#FFFFFF" fill-rule="nonzero"></path>
                            <path d="M44.4493392,15.6387665 C44.3171806,15.5726872 44.2290749,15.4625551 44.1629956,15.3303965 C44.0969163,15.1982379 44.0528634,15.0440529 44.0528634,14.8898678 C44.0528634,14.69163 44.0969163,14.5154185 44.185022,14.339207 C44.2731278,14.1629956 44.4052863,14.030837 44.5814978,13.9207048 C44.7577093,13.8105727 44.9779736,13.7665198 45.1762115,13.7665198 C45.3744493,13.7665198 45.5506608,13.8105727 45.7048458,13.9427313 L45.6387665,14.2951542 C45.3964758,14.0748899 45.0440529,14.030837 44.7577093,14.2070485 C44.6255507,14.2731278 44.5374449,14.3832599 44.4713656,14.5154185 C44.4052863,14.6255507 44.3832599,14.7577093 44.3832599,14.9118943 C44.3832599,15.0660793 44.4273128,15.1982379 44.5374449,15.30837 C44.6475771,15.4185022 44.7797357,15.4845815 44.9339207,15.4625551 C45.0440529,15.4625551 45.154185,15.4405286 45.2422907,15.3964758 C45.3524229,15.3524229 45.4405286,15.30837 45.5066079,15.2202643 L45.4625551,15.5726872 C45.2863436,15.7048458 45.0660793,15.7709251 44.845815,15.7488987 C44.7136564,15.7488987 44.5594714,15.7048458 44.4493392,15.6387665" id="Path" fill="#FFFFFF" fill-rule="nonzero"></path>
                            <path d="M47.3788546,13.9867841 C47.5110132,14.1409692 47.5770925,14.3171806 47.5770925,14.5154185 C47.5770925,14.5814978 47.5770925,14.6475771 47.5770925,14.69163 C47.5770925,14.7577093 47.5550661,14.8017621 47.5330396,14.8678414 L46.1013216,14.8678414 C46.0792952,15.0220264 46.1453744,15.1982379 46.2555066,15.30837 C46.3656388,15.4185022 46.5418502,15.4845815 46.6960352,15.4625551 C46.8061674,15.4625551 46.9162996,15.4405286 47.0264317,15.4185022 C47.1365639,15.3744493 47.246696,15.3303965 47.3348018,15.2863436 L47.2907489,15.5726872 C47.092511,15.7048458 46.8502203,15.7709251 46.6079295,15.7709251 C46.4537445,15.7709251 46.2995595,15.7268722 46.1674009,15.660793 C46.0352423,15.5947137 45.9471366,15.4845815 45.8810573,15.3524229 C45.814978,15.2202643 45.7709251,15.0660793 45.7709251,14.9118943 C45.7709251,14.7356828 45.814978,14.5594714 45.8810573,14.4052863 C45.969163,14.2290749 46.0792952,14.0748899 46.2334802,13.9647577 C46.4096916,13.8546256 46.6299559,13.7885463 46.8281938,13.7885463 C47.0484581,13.7885463 47.246696,13.8546256 47.3788546,13.9867841 M46.3876652,14.2290749 C46.277533,14.339207 46.1894273,14.4713656 46.1453744,14.6035242 L47.246696,14.6035242 L47.246696,14.5154185 C47.246696,14.3832599 47.2026432,14.2731278 47.1145374,14.185022 C47.0264317,14.0969163 46.9162996,14.0528634 46.784141,14.0748899 C46.6519824,14.0748899 46.4977974,14.1189427 46.3876652,14.2290749" id="Shape" fill="#FFFFFF" fill-rule="nonzero"></path>
                            <path d="M29.2511013,11.4757709 L27.753304,11.4757709 C27.6431718,11.4757709 27.5770925,11.5418502 27.5550661,11.6519824 L26.9603524,15.4845815 C26.938326,15.5506608 26.9823789,15.6167401 27.0484581,15.6167401 C27.0484581,15.6167401 27.0484581,15.6167401 27.0484581,15.6167401 L27.8414097,15.6167401 C27.907489,15.6167401 27.9735683,15.5726872 27.9735683,15.4845815 L28.1497797,14.4052863 C28.1718062,14.2951542 28.2599119,14.2290749 28.3480176,14.2290749 L28.8325991,14.2290749 C29.8237885,14.2290749 30.3964758,13.7444934 30.5506608,12.7973568 C30.6167401,12.4669604 30.5506608,12.092511 30.3303965,11.8281938 C30.0440529,11.5638767 29.6475771,11.4096916 29.2511013,11.4757709 M29.4052863,12.8634361 C29.3171806,13.3920705 28.9207048,13.3920705 28.5242291,13.3920705 L28.3039648,13.3920705 L28.4581498,12.4008811 C28.4581498,12.3348018 28.5242291,12.2907489 28.5903084,12.2907489 L28.7004405,12.2907489 C28.9647577,12.2907489 29.2290749,12.2907489 29.3612335,12.4449339 C29.4493392,12.5770925 29.4713656,12.7312775 29.4493392,12.8634361" id="Shape" fill="#FFFFFF" fill-rule="nonzero"></path>
                            <path d="M18.5903084,11.4757709 L17.092511,11.4757709 C16.9823789,11.4757709 16.9162996,11.5418502 16.8942731,11.6519824 L16.2995595,15.4845815 C16.2995595,15.5506608 16.3436123,15.6167401 16.4096916,15.6167401 L17.1365639,15.6167401 C17.246696,15.6167401 17.3127753,15.5506608 17.3348018,15.4405286 L17.4889868,14.4052863 C17.5110132,14.2951542 17.5991189,14.2290749 17.6872247,14.2290749 L18.1718062,14.2290749 C19.1629956,14.2290749 19.7356828,13.7444934 19.8898678,12.7973568 C19.9779736,12.4669604 19.8898678,12.092511 19.69163,11.8281938 C19.3832599,11.5418502 18.9867841,11.4096916 18.5903084,11.4757709 M18.7665198,12.8634361 C18.6784141,13.4140969 18.2819383,13.4140969 17.8854626,13.4140969 L17.6651982,13.4140969 L17.8193833,12.4229075 C17.8193833,12.3568282 17.8854626,12.3127753 17.9515419,12.3127753 L18.061674,12.3127753 C18.3259912,12.3127753 18.5903084,12.3127753 18.722467,12.4669604 C18.7885463,12.5770925 18.8105727,12.7312775 18.7665198,12.8634361" id="Shape" fill="#FFFFFF" fill-rule="nonzero"></path>
                            <path d="M23.061674,12.8414097 L22.3568282,12.8414097 C22.2907489,12.8414097 22.246696,12.8854626 22.2246696,12.9515419 L22.2026432,13.1497797 L22.1585903,13.0837004 C21.938326,12.8634361 21.6299559,12.753304 21.2995595,12.7753304 C20.4845815,12.7753304 19.7797357,13.3920705 19.69163,14.2070485 C19.6255507,14.6035242 19.7136564,15 19.9559471,15.30837 C20.1762115,15.5506608 20.5286344,15.6828194 20.8590308,15.660793 C21.2334802,15.660793 21.6079295,15.5066079 21.8722467,15.2422907 L21.8502203,15.4405286 C21.8502203,15.5066079 21.8942731,15.5726872 21.9603524,15.5726872 L22.6211454,15.5726872 C22.7312775,15.5726872 22.7973568,15.5066079 22.8193833,15.3964758 L23.215859,12.9515419 C23.1938326,12.9295154 23.1497797,12.8634361 23.061674,12.8414097 C23.0837004,12.8414097 23.0837004,12.8414097 23.061674,12.8414097 L23.061674,12.8414097 M22.0484581,14.2511013 C21.9823789,14.6475771 21.6519824,14.9559471 21.2334802,14.9339207 C20.9251101,14.9559471 20.660793,14.7356828 20.6387665,14.4493392 C20.6387665,14.4493392 20.6387665,14.4493392 20.6387665,14.4493392 C20.6387665,14.3832599 20.6387665,14.3171806 20.660793,14.2511013 C20.7268722,13.8546256 21.0572687,13.5682819 21.4537445,13.5682819 C21.6299559,13.5682819 21.8061674,13.6343612 21.938326,13.7665198 C22.0264317,13.8986784 22.0704846,14.0748899 22.0484581,14.2511013" id="Shape" fill="#FFFFFF" fill-rule="nonzero"></path>
                            <path d="M33.722467,12.8414097 L32.9955947,12.8414097 C32.9295154,12.8414097 32.8854626,12.8854626 32.8634361,12.9515419 L32.8414097,13.1497797 L32.7973568,13.0837004 C32.5770925,12.8634361 32.2687225,12.753304 31.938326,12.7753304 C31.123348,12.7973568 30.4405286,13.4140969 30.3303965,14.2070485 C30.2643172,14.6035242 30.3524229,15 30.5947137,15.30837 C30.814978,15.5506608 31.1674009,15.6828194 31.4977974,15.6828194 C31.8722467,15.6828194 32.2246696,15.5286344 32.4889868,15.2643172 L32.4669604,15.4625551 C32.4669604,15.5286344 32.5110132,15.5947137 32.5770925,15.5947137 L33.2378855,15.5947137 C33.3480176,15.5947137 33.4140969,15.5286344 33.4361233,15.4185022 L33.8325991,12.9735683 C33.8546256,12.9295154 33.8105727,12.8634361 33.722467,12.8414097 L33.722467,12.8414097 M32.7092511,14.2511013 C32.6431718,14.6475771 32.3127753,14.9559471 31.8942731,14.9339207 C31.5859031,14.9339207 31.3436123,14.7136564 31.3215859,14.4052863 C31.3215859,14.3612335 31.3215859,14.2951542 31.3436123,14.2511013 C31.3876652,13.8546256 31.7400881,13.5462555 32.1365639,13.5462555 C32.4229075,13.5022026 32.6872247,13.722467 32.7312775,14.0088106 C32.753304,14.0969163 32.7312775,14.185022 32.7092511,14.2511013" id="Shape" fill="#FFFFFF" fill-rule="nonzero"></path>
                            <path d="M26.8722467,12.8414097 L26.1453744,12.8414097 C26.0792952,12.8414097 26.0132159,12.8854626 25.969163,12.9295154 L24.9779736,14.4052863 L24.5594714,12.9955947 C24.5374449,12.907489 24.4493392,12.8414097 24.3612335,12.8414097 L23.6563877,12.8414097 C23.5903084,12.8414097 23.5242291,12.8854626 23.5242291,12.9735683 C23.5242291,12.9955947 23.5242291,12.9955947 23.5242291,13.0176211 L24.3171806,15.3524229 L23.5903084,16.3876652 C23.5462555,16.4537445 23.5682819,16.5198238 23.6343612,16.5638767 C23.6563877,16.5859031 23.6784141,16.5859031 23.7004405,16.5859031 L24.4273128,16.5859031 C24.4933921,16.5859031 24.5594714,16.5418502 24.6035242,16.4977974 L27.0044053,13.0396476 C27.0484581,12.9955947 27.0264317,12.907489 26.9823789,12.8634361 C26.9823789,12.8634361 26.9823789,12.8634361 26.9823789,12.8634361 C26.938326,12.8634361 26.9162996,12.8414097 26.8722467,12.8414097" id="Path" fill="#FFFFFF" fill-rule="nonzero"></path>
                            <path d="M34.5814978,11.5638767 L33.9647577,15.4625551 C33.9647577,15.5286344 34.0088106,15.5947137 34.0748899,15.5947137 L34.7136564,15.5947137 C34.8237885,15.5947137 34.8898678,15.5286344 34.9118943,15.4185022 L35.5066079,11.5859031 C35.5286344,11.5198238 35.4845815,11.4537445 35.4185022,11.4537445 C35.4185022,11.4537445 35.4185022,11.4537445 35.4185022,11.4537445 L34.7136564,11.4537445 C34.6475771,11.4537445 34.5814978,11.5198238 34.5814978,11.5638767" id="Path" fill="#FFFFFF" fill-rule="nonzero"></path>
                            <path d="M16.1453744,0.220264317 C13.2599119,0.220264317 11.0132159,2.40088106 11.0132159,5.19823789 L11.0132159,5.22026432 C11.0132159,8.03964758 13.215859,10.1762115 16.123348,10.1762115 C19.030837,10.1762115 21.277533,7.99559471 21.277533,5.19823789 L21.277533,5.17621145 C21.2555066,2.35682819 19.0528634,0.220264317 16.1453744,0.220264317 L16.1453744,0.220264317 Z M13.2599119,5.17621145 C13.1938326,3.59030837 14.4052863,2.24669604 15.9911894,2.18061674 C17.5770925,2.11453744 18.9207048,3.32599119 18.9867841,4.91189427 C18.9867841,5 18.9867841,5.08810573 18.9867841,5.19823789 L18.9867841,5.22026432 C19.0528634,6.8061674 17.8193833,8.14977974 16.2555066,8.21585903 C14.6696035,8.28193833 13.3259912,7.04845815 13.2599119,5.4845815 L13.2599119,5.4845815 C13.2599119,5.39647577 13.2599119,5.30837004 13.2599119,5.19823789 L13.2599119,5.17621145 Z" id="Shape" fill="#FFFFFF" fill-rule="nonzero"></path>
                            <path d="M27.2246696,0.220264317 C24.339207,0.220264317 22.0704846,2.40088106 22.0704846,5.19823789 L22.0704846,5.22026432 C22.0704846,8.03964758 24.2511013,10.1762115 27.1806167,10.1762115 C30.0881057,10.1762115 32.3348018,7.99559471 32.3348018,5.19823789 L32.3348018,5.17621145 C32.3348018,2.35682819 30.1321586,0.220264317 27.2246696,0.220264317 L27.2246696,0.220264317 Z M24.339207,5.17621145 C24.339207,3.59030837 25.6387665,2.31277533 27.2246696,2.33480176 C28.8105727,2.33480176 30.0881057,3.63436123 30.0660793,5.22026432 L30.0660793,5.24229075 C30.0660793,6.82819383 28.7665198,8.10572687 27.1806167,8.08370044 C25.5947137,8.06167401 24.3171806,6.78414097 24.339207,5.19823789 L24.339207,5.17621145 Z" id="Shape" fill="#FFFFFF" fill-rule="nonzero"></path>
                            <path d="M44.2731278,0.330396476 C43.1057269,0.308370044 41.9823789,0.859030837 41.2555066,1.78414097 C40.6828194,0.859030837 39.6696035,0.308370044 38.5682819,0.330396476 C37.5770925,0.308370044 36.6079295,0.77092511 35.9911894,1.54185022 L35.9911894,0.682819383 C35.9911894,0.594713656 35.9251101,0.50660793 35.8370044,0.50660793 C35.8370044,0.50660793 35.8370044,0.50660793 35.8370044,0.50660793 L33.7665198,0.50660793 C33.6784141,0.50660793 33.5903084,0.572687225 33.5903084,0.682819383 C33.5903084,0.682819383 33.5903084,0.682819383 33.5903084,0.682819383 L33.5903084,9.66960352 C33.5903084,9.75770925 33.6563877,9.84581498 33.7665198,9.84581498 C33.7665198,9.84581498 33.7665198,9.84581498 33.7665198,9.84581498 L35.8370044,9.84581498 C35.9251101,9.84581498 36.0132159,9.77973568 36.0132159,9.66960352 L36.0132159,4.60352423 C36.0132159,3.34801762 36.6960352,2.55506608 37.7753304,2.55506608 C38.8546256,2.55506608 39.4273128,3.25991189 39.4273128,4.55947137 L39.4273128,9.69162996 C39.4273128,9.77973568 39.4933921,9.86784141 39.6035242,9.86784141 L41.6519824,9.86784141 C41.7400881,9.86784141 41.8281938,9.80176211 41.8281938,9.69162996 L41.8281938,4.62555066 C41.8281938,3.34801762 42.4889868,2.57709251 43.5682819,2.57709251 C44.9339207,2.57709251 45.2202643,3.6784141 45.2202643,4.5814978 L45.2202643,9.69162996 C45.2202643,9.77973568 45.2863436,9.86784141 45.3964758,9.86784141 C45.3964758,9.86784141 45.3964758,9.86784141 45.3964758,9.86784141 L47.4669604,9.86784141 C47.5550661,9.86784141 47.6431718,9.80176211 47.6431718,9.69162996 C47.6431718,9.69162996 47.6431718,9.69162996 47.6431718,9.69162996 L47.6431718,3.96475771 C47.5770925,1.69603524 46.3436123,0.352422907 44.2731278,0.330396476" id="Path" fill="#FFFFFF" fill-rule="nonzero"></path>
                            <path d="M7.7092511,4.33920705 C7.73127753,4.36123348 7.75330396,4.38325991 7.79735683,4.38325991 C7.81938326,4.38325991 7.86343612,4.36123348 7.88546256,4.33920705 L11.0792952,0.682819383 C11.1013216,0.63876652 11.1013216,0.594713656 11.0792952,0.572687225 C11.0572687,0.528634361 11.0352423,0.50660793 10.9911894,0.50660793 L8.23788546,0.50660793 C8.21585903,0.50660793 8.17180617,0.528634361 8.14977974,0.550660793 L6.34361233,2.59911894 C6.29955947,2.64317181 6.29955947,2.68722467 6.34361233,2.73127753 L7.7092511,4.33920705 Z" id="Path" fill="#FFFFFF" fill-rule="nonzero"></path>
                            <path d="M7.31277533,4.77973568 L3.63436123,0.572687225 C3.6123348,0.550660793 3.59030837,0.528634361 3.54625551,0.528634361 L0.837004405,0.528634361 C0.77092511,0.528634361 0.726872247,0.572687225 0.726872247,0.63876652 C0.726872247,0.63876652 0.726872247,0.63876652 0.726872247,0.63876652 C0.726872247,0.660792952 0.726872247,0.682819383 0.748898678,0.704845815 L4.33920705,4.82378855 L0.110132159,9.69162996 C0.0881057269,9.71365639 0.0660792952,9.75770925 0.0881057269,9.80176211 C0.110132159,9.84581498 0.154185022,9.86784141 0.176211454,9.86784141 L2.92951542,9.86784141 C2.95154185,9.86784141 2.99559471,9.84581498 3.01762115,9.82378855 L5.92511013,6.49779736 L5.92511013,6.49779736 L7.2907489,4.95594714 C7.35682819,4.88986784 7.35682819,4.84581498 7.31277533,4.77973568" id="Path" fill="#FFFFFF" fill-rule="nonzero"></path>
                            <path d="M11.5859031,9.66960352 L7.86343612,5.39647577 C7.84140969,5.35242291 7.7753304,5.33039648 7.7092511,5.37444934 C7.7092511,5.37444934 7.7092511,5.37444934 7.7092511,5.37444934 L7.7092511,5.39647577 L6.34361233,6.96035242 C6.29955947,7.00440529 6.29955947,7.04845815 6.34361233,7.09251101 L8.72246696,9.80176211 C8.74449339,9.82378855 8.76651982,9.84581498 8.81057269,9.84581498 L11.5198238,9.84581498 C11.5859031,9.84581498 11.6299559,9.77973568 11.6299559,9.71365639 C11.6079295,9.69162996 11.6079295,9.69162996 11.5859031,9.66960352" id="Path" fill="#FFFFFF" fill-rule="nonzero"></path>
                        </g>
                    </g>
                </g>
            </g>
        </g>
    </g>
</svg>